<ttFont>
<head>
    <!-- Most of this table will be recalculated by the compiler -->
    <tableVersion value="1.0"/>
    <fontRevision value="1.302"/>
    <checkSumAdjustment value="0xbcf8f87f"/>
    <magicNumber value="0x5f0f3cf5"/>
    <flags value="00000000 00001011"/>
    <unitsPerEm value="1000"/>
    <created value="Tue Oct  2 22:58:00 2007"/>
    <modified value="Thu Mar  6 18:39:41 2014"/>
    <xMin value="-101"/>
    <yMin value="-266"/>
    <xMax value="917"/>
    <yMax value="1073"/>
    <macStyle value="00000000 00000010"/>
    <lowestRecPPEM value="9"/>
    <fontDirectionHint value="2"/>
    <indexToLocFormat value="0"/>
    <glyphDataFormat value="0"/>
  </head>
    <TTGlyph name="A" xMin="-36" yMin="0" xMax="461" yMax="743">
      <contour>
        <pt x="385" y="0" on="1"/>
        <pt x="363" y="194" on="1"/>
        <pt x="136" y="194" on="1"/>
        <pt x="40" y="0" on="1"/>
        <pt x="-36" y="0" on="1"/>
        <pt x="339" y="743" on="1"/>
        <pt x="365" y="743" on="1"/>
        <pt x="461" y="0" on="1"/>
      </contour>
      <contour>
        <pt x="322" y="572" on="1"/>
        <pt x="168" y="259" on="1"/>
        <pt x="356" y="259" on="1"/>
      </contour>
    </TTGlyph>
    <TTGlyph name="AE" xMin="-40" yMin="0" xMax="787" yMax="733">
      <contour>
        <pt x="774" y="664" on="1"/>
        <pt x="525" y="664" on="1"/>
        <pt x="478" y="409" on="1"/>
        <pt x="706" y="409" on="1"/>
        <pt x="693" y="341" on="1"/>
        <pt x="465" y="341" on="1"/>
        <pt x="415" y="69" on="1"/>
        <pt x="665" y="69" on="1"/>
        <pt x="653" y="0" on="1"/>
        <pt x="329" y="0" on="1"/>
        <pt x="367" y="208" on="1"/>
        <pt x="183" y="208" on="1"/>
        <pt x="40" y="0" on="1"/>
        <pt x="-40" y="0" on="1"/>
        <pt x="451" y="733" on="1"/>
        <pt x="787" y="733" on="1"/>
      </contour>
      <contour>
        <pt x="442" y="614" on="1"/>
        <pt x="226" y="273" on="1"/>
        <pt x="379" y="273" on="1"/>
      </contour>
    </TTGlyph>
    <TTGlyph name="AEacute" xMin="-40" yMin="0" xMax="787" yMax="928">
      <component glyphName="acute" x="355" y="297" flags="0x4"/>
      <component glyphName="AE" x="0" y="0" flags="0x4"/>
    </TTGlyph>
    <TTGlyph name="Aacute" xMin="-36" yMin="0" xMax="505" yMax="933">
      <component glyphName="A" x="0" y="0" flags="0x204"/>
      <component glyphName="acute" x="153" y="302" flags="0x4"/>
    </TTGlyph>
    <TTGlyph name="Abreve" xMin="-36" yMin="0" xMax="494" yMax="909">
      <component glyphName="A" x="0" y="0" flags="0x204"/>
      <component glyphName="breve" x="106" y="302" flags="0x4"/>
    </TTGlyph>
    <TTGlyph name="Acircumflex" xMin="-36" yMin="0" xMax="485" yMax="932">
      <component glyphName="A" x="0" y="0" flags="0x204"/>
      <component glyphName="circumflex" x="99" y="302" flags="0x4"/>
    </TTGlyph>
    <TTGlyph name="Adieresis" xMin="-36" yMin="0" xMax="484" yMax="883">
      <component glyphName="A" x="0" y="0" flags="0x204"/>
      <component glyphName="dieresis" x="105" y="302" flags="0x4"/>
    </TTGlyph>
    <TTGlyph name="Agrave" xMin="-36" yMin="0" xMax="461" yMax="933">
      <component glyphName="A" x="0" y="0" flags="0x204"/>
      <component glyphName="grave" x="43" y="302" flags="0x4"/>
    </TTGlyph>
    <TTGlyph name="Amacron" xMin="-36" yMin="0" xMax="494" yMax="861">
      <component glyphName="A" x="0" y="0" flags="0x204"/>
      <component glyphName="macron" x="105" y="302" flags="0x4"/>
    </TTGlyph>
    <TTGlyph name="Aogonek" xMin="-36" yMin="-202" xMax="461" yMax="743">
      <contour>
        <pt x="441" y="-167" on="1"/>
        <pt x="423" y="-184" on="0"/>
        <pt x="388" y="-201" on="0"/>
        <pt x="365" y="-201" on="1"/>
        <pt x="336" y="-202" on="0"/>
        <pt x="302" y="-168" on="0"/>
        <pt x="302" y="-140" on="1"/>
        <pt x="302" y="-101" on="0"/>
        <pt x="347" y="-33" on="0"/>
        <pt x="385" y="1" on="1"/>
        <pt x="363" y="194" on="1"/>
        <pt x="136" y="194" on="1"/>
        <pt x="40" y="0" on="1"/>
        <pt x="-36" y="0" on="1"/>
        <pt x="339" y="743" on="1"/>
        <pt x="365" y="743" on="1"/>
        <pt x="461" y="0" on="1"/>
        <pt x="437" y="0" on="1"/>
        <pt x="424" y="-12" on="0"/>
        <pt x="397" y="-41" on="0"/>
        <pt x="374" y="-73" on="0"/>
        <pt x="360" y="-106" on="0"/>
        <pt x="360" y="-123" on="1"/>
        <pt x="360" y="-151" on="0"/>
        <pt x="383" y="-151" on="1"/>
        <pt x="402" y="-151" on="0"/>
        <pt x="423" y="-133" on="1"/>
      </contour>
      <contour>
        <pt x="322" y="572" on="1"/>
        <pt x="168" y="259" on="1"/>
        <pt x="356" y="259" on="1"/>
      </contour>
    </TTGlyph>
    <TTGlyph name="Aring" xMin="-36" yMin="0" xMax="461" yMax="887">
      <contour>
        <pt x="457" y="810" on="1"/>
        <pt x="457" y="774" on="0"/>
        <pt x="410" y="712" on="0"/>
        <pt x="369" y="705" on="1"/>
        <pt x="461" y="0" on="1"/>
        <pt x="385" y="0" on="1"/>
        <pt x="363" y="194" on="1"/>
        <pt x="136" y="194" on="1"/>
        <pt x="40" y="0" on="1"/>
        <pt x="-36" y="0" on="1"/>
        <pt x="322" y="708" on="1"/>
        <pt x="298" y="716" on="0"/>
        <pt x="269" y="756" on="0"/>
        <pt x="269" y="782" on="1"/>
        <pt x="269" y="801" on="0"/>
        <pt x="284" y="839" on="0"/>
        <pt x="311" y="869" on="0"/>
        <pt x="350" y="887" on="0"/>
        <pt x="374" y="887" on="1"/>
        <pt x="411" y="887" on="0"/>
        <pt x="457" y="842" on="0"/>
      </contour>
      <contour>
        <pt x="322" y="572" on="1"/>
        <pt x="168" y="259" on="1"/>
        <pt x="356" y="259" on="1"/>
      </contour>
      <contour>
        <pt x="408" y="805" on="1"/>
        <pt x="408" y="825" on="0"/>
        <pt x="388" y="847" on="0"/>
        <pt x="371" y="847" on="1"/>
        <pt x="349" y="847" on="0"/>
        <pt x="317" y="813" on="0"/>
        <pt x="317" y="787" on="1"/>
        <pt x="317" y="767" on="0"/>
        <pt x="338" y="744" on="0"/>
        <pt x="355" y="744" on="1"/>
        <pt x="376" y="744" on="0"/>
        <pt x="408" y="778" on="0"/>
      </contour>
    </TTGlyph>
    <TTGlyph name="Aringacute" xMin="-36" yMin="0" xMax="531" yMax="1073">
      <component glyphName="acute" x="179" y="442" flags="0x4"/>
      <component glyphName="Aring" x="0" y="0" flags="0x4"/>
    </TTGlyph>
    <TTGlyph name="Atilde" xMin="-36" yMin="0" xMax="501" yMax="888">
      <component glyphName="A" x="0" y="0" flags="0x204"/>
      <component glyphName="tilde" x="103" y="302" flags="0x4"/>
    </TTGlyph>
    <TTGlyph name="B" xMin="21" yMin="-7" xMax="463" yMax="739">
      <contour>
        <pt x="463" y="565" on="1"/>
        <pt x="463" y="530" on="0"/>
        <pt x="442" y="468" on="0"/>
        <pt x="405" y="418" on="0"/>
        <pt x="354" y="382" on="0"/>
        <pt x="325" y="373" on="1"/>
        <pt x="373" y="351" on="0"/>
        <pt x="421" y="273" on="0"/>
        <pt x="421" y="227" on="1"/>
        <pt x="421" y="177" on="0"/>
        <pt x="386" y="91" on="0"/>
        <pt x="317" y="28" on="0"/>
        <pt x="215" y="-7" on="0"/>
        <pt x="147" y="-7" on="1"/>
        <pt x="115" y="-7" on="0"/>
        <pt x="45" y="3" on="0"/>
        <pt x="21" y="9" on="1"/>
        <pt x="154" y="730" on="1"/>
        <pt x="183" y="735" on="0"/>
        <pt x="235" y="739" on="0"/>
        <pt x="263" y="739" on="1"/>
        <pt x="316" y="739" on="0"/>
        <pt x="392" y="708" on="0"/>
        <pt x="440" y="658" on="0"/>
        <pt x="463" y="596" on="0"/>
      </contour>
      <contour>
        <pt x="387" y="558" on="1"/>
        <pt x="387" y="611" on="0"/>
        <pt x="323" y="674" on="0"/>
        <pt x="264" y="674" on="1"/>
        <pt x="251" y="674" on="0"/>
        <pt x="229" y="672" on="0"/>
        <pt x="217" y="670" on="1"/>
        <pt x="169" y="408" on="1"/>
        <pt x="178" y="407" on="0"/>
        <pt x="208" y="406" on="0"/>
        <pt x="229" y="406" on="1"/>
        <pt x="304" y="406" on="0"/>
        <pt x="387" y="489" on="0"/>
      </contour>
      <contour>
        <pt x="345" y="217" on="1"/>
        <pt x="345" y="276" on="0"/>
        <pt x="272" y="348" on="0"/>
        <pt x="202" y="348" on="1"/>
        <pt x="193" y="348" on="0"/>
        <pt x="166" y="348" on="0"/>
        <pt x="157" y="346" on="1"/>
        <pt x="105" y="66" on="1"/>
        <pt x="122" y="62" on="0"/>
        <pt x="158" y="60" on="0"/>
        <pt x="173" y="60" on="1"/>
        <pt x="211" y="60" on="0"/>
        <pt x="274" y="83" on="0"/>
        <pt x="320" y="124" on="0"/>
        <pt x="345" y="182" on="0"/>
      </contour>
    </TTGlyph>
    <TTGlyph name="C" xMin="54" yMin="-11" xMax="552" yMax="744">
      <contour>
        <pt x="514" y="627" on="1"/>
        <pt x="489" y="647" on="0"/>
        <pt x="424" y="676" on="0"/>
        <pt x="383" y="676" on="1"/>
        <pt x="330" y="676" on="0"/>
        <pt x="238" y="606" on="0"/>
        <pt x="170" y="492" on="0"/>
        <pt x="131" y="348" on="0"/>
        <pt x="131" y="275" on="1"/>
        <pt x="131" y="222" on="0"/>
        <pt x="156" y="141" on="0"/>
        <pt x="200" y="85" on="0"/>
        <pt x="260" y="56" on="0"/>
        <pt x="295" y="56" on="1"/>
        <pt x="334" y="56" on="0"/>
        <pt x="399" y="81" on="0"/>
        <pt x="425" y="97" on="1"/>
        <pt x="448" y="35" on="1"/>
        <pt x="410" y="10" on="0"/>
        <pt x="329" y="-11" on="0"/>
        <pt x="291" y="-11" on="1"/>
        <pt x="240" y="-11" on="0"/>
        <pt x="153" y="28" on="0"/>
        <pt x="90" y="101" on="0"/>
        <pt x="54" y="207" on="0"/>
        <pt x="54" y="274" on="1"/>
        <pt x="54" y="362" on="0"/>
        <pt x="106" y="531" on="0"/>
        <pt x="198" y="663" on="0"/>
        <pt x="320" y="744" on="0"/>
        <pt x="391" y="744" on="1"/>
        <pt x="439" y="744" on="0"/>
        <pt x="523" y="711" on="0"/>
        <pt x="552" y="686" on="1"/>
      </contour>
    </TTGlyph>
    <TTGlyph name="Cacute" xMin="54" yMin="-11" xMax="552" yMax="933">
      <component glyphName="acute" x="186" y="302" flags="0x4"/>
      <component glyphName="C" x="0" y="0" flags="0x4"/>
    </TTGlyph>
    <TTGlyph name="Ccaron" xMin="54" yMin="-11" xMax="552" yMax="929">
      <component glyphName="caron" x="142" y="302" flags="0x4"/>
      <component glyphName="C" x="0" y="0" flags="0x4"/>
    </TTGlyph>
    <TTGlyph name="Ccedilla" xMin="54" yMin="-204" xMax="552" yMax="744">
      <contour>
        <pt x="323" y="-119" on="1"/>
        <pt x="323" y="-156" on="0"/>
        <pt x="270" y="-204" on="0"/>
        <pt x="227" y="-204" on="1"/>
        <pt x="179" y="-204" on="0"/>
        <pt x="135" y="-175" on="1"/>
        <pt x="160" y="-134" on="1"/>
        <pt x="179" y="-147" on="0"/>
        <pt x="214" y="-158" on="0"/>
        <pt x="231" y="-158" on="1"/>
        <pt x="248" y="-158" on="0"/>
        <pt x="270" y="-138" on="0"/>
        <pt x="270" y="-123" on="1"/>
        <pt x="270" y="-109" on="0"/>
        <pt x="236" y="-83" on="0"/>
        <pt x="194" y="-81" on="1"/>
        <pt x="192" y="-74" on="1"/>
        <pt x="224" y="-2" on="1"/>
        <pt x="147" y="20" on="0"/>
        <pt x="54" y="162" on="0"/>
        <pt x="54" y="274" on="1"/>
        <pt x="54" y="362" on="0"/>
        <pt x="106" y="531" on="0"/>
        <pt x="198" y="663" on="0"/>
        <pt x="320" y="744" on="0"/>
        <pt x="391" y="744" on="1"/>
        <pt x="439" y="744" on="0"/>
        <pt x="523" y="711" on="0"/>
        <pt x="552" y="686" on="1"/>
        <pt x="514" y="627" on="1"/>
        <pt x="489" y="647" on="0"/>
        <pt x="424" y="676" on="0"/>
        <pt x="383" y="676" on="1"/>
        <pt x="330" y="676" on="0"/>
        <pt x="238" y="606" on="0"/>
        <pt x="170" y="492" on="0"/>
        <pt x="131" y="348" on="0"/>
        <pt x="131" y="275" on="1"/>
        <pt x="131" y="222" on="0"/>
        <pt x="156" y="141" on="0"/>
        <pt x="200" y="85" on="0"/>
        <pt x="260" y="56" on="0"/>
        <pt x="295" y="56" on="1"/>
        <pt x="334" y="56" on="0"/>
        <pt x="399" y="81" on="0"/>
        <pt x="425" y="97" on="1"/>
        <pt x="448" y="35" on="1"/>
        <pt x="410" y="10" on="0"/>
        <pt x="329" y="-11" on="0"/>
        <pt x="291" y="-11" on="1"/>
        <pt x="284" y="-11" on="0"/>
        <pt x="271" y="-10" on="0"/>
        <pt x="264" y="-9" on="1"/>
        <pt x="250" y="-45" on="1"/>
        <pt x="290" y="-55" on="0"/>
        <pt x="323" y="-96" on="0"/>
      </contour>
    </TTGlyph>
    <TTGlyph name="Cdotaccent" xMin="54" yMin="-11" xMax="552" yMax="883">
      <component glyphName="C" x="0" y="0" flags="0x204"/>
      <component glyphName="dotaccent" x="136" y="302" flags="0x4"/>
    </TTGlyph>
    <TTGlyph name="D" xMin="25" yMin="-7" xMax="545" yMax="739">
      <contour>
        <pt x="151" y="-7" on="1"/>
        <pt x="119" y="-7" on="0"/>
        <pt x="51" y="2" on="0"/>
        <pt x="25" y="7" on="1"/>
        <pt x="159" y="731" on="1"/>
        <pt x="179" y="735" on="0"/>
        <pt x="229" y="739" on="0"/>
        <pt x="260" y="739" on="1"/>
        <pt x="388" y="739" on="0"/>
        <pt x="465" y="662" on="1"/>
        <pt x="507" y="620" on="0"/>
        <pt x="545" y="502" on="0"/>
        <pt x="545" y="436" on="1"/>
        <pt x="545" y="349" on="0"/>
        <pt x="491" y="189" on="0"/>
        <pt x="390" y="66" on="0"/>
        <pt x="244" y="-7" on="0"/>
      </contour>
      <contour>
        <pt x="268" y="673" on="1"/>
        <pt x="244" y="673" on="0"/>
        <pt x="222" y="670" on="1"/>
        <pt x="109" y="65" on="1"/>
        <pt x="123" y="63" on="0"/>
        <pt x="155" y="60" on="0"/>
        <pt x="173" y="60" on="1"/>
        <pt x="239" y="60" on="0"/>
        <pt x="347" y="123" on="0"/>
        <pt x="425" y="227" on="0"/>
        <pt x="468" y="360" on="0"/>
        <pt x="468" y="430" on="1"/>
        <pt x="468" y="496" on="0"/>
        <pt x="435" y="593" on="0"/>
        <pt x="405" y="622" on="1"/>
        <pt x="355" y="673" on="0"/>
      </contour>
    </TTGlyph>
    <TTGlyph name="Dcaron" xMin="25" yMin="-7" xMax="545" yMax="924">
      <component glyphName="caron" x="87" y="297" flags="0x4"/>
      <component glyphName="D" x="0" y="0" flags="0x4"/>
    </TTGlyph>
    <TTGlyph name="Dcroat" xMin="40" yMin="-7" xMax="559" yMax="739">
      <component glyphName="Eth" x="0" y="0" flags="0x204"/>
    </TTGlyph>
    <TTGlyph name="E" xMin="25" yMin="0" xMax="483" yMax="733">
      <contour>
        <pt x="470" y="664" on="1"/>
        <pt x="221" y="664" on="1"/>
        <pt x="174" y="409" on="1"/>
        <pt x="402" y="409" on="1"/>
        <pt x="389" y="341" on="1"/>
        <pt x="161" y="341" on="1"/>
        <pt x="111" y="69" on="1"/>
        <pt x="361" y="69" on="1"/>
        <pt x="348" y="0" on="1"/>
        <pt x="25" y="0" on="1"/>
        <pt x="160" y="733" on="1"/>
        <pt x="483" y="733" on="1"/>
      </contour>
    </TTGlyph>
    <TTGlyph name="Eacute" xMin="25" yMin="0" xMax="483" yMax="928">
      <component glyphName="acute" x="122" y="297" flags="0x4"/>
      <component glyphName="E" x="0" y="0" flags="0x4"/>
    </TTGlyph>
    <TTGlyph name="Ebreve" xMin="25" yMin="0" xMax="483" yMax="904">
      <component glyphName="E" x="0" y="0" flags="0x204"/>
      <component glyphName="breve" x="77" y="297" flags="0x4"/>
    </TTGlyph>
    <TTGlyph name="Ecaron" xMin="25" yMin="0" xMax="486" yMax="924">
      <component glyphName="caron" x="77" y="297" flags="0x4"/>
      <component glyphName="E" x="0" y="0" flags="0x4"/>
    </TTGlyph>
    <TTGlyph name="Ecircumflex" xMin="25" yMin="0" xMax="483" yMax="927">
      <component glyphName="circumflex" x="67" y="297" flags="0x4"/>
      <component glyphName="E" x="0" y="0" flags="0x4"/>
    </TTGlyph>
    <TTGlyph name="Edieresis" xMin="25" yMin="0" xMax="483" yMax="878">
      <component glyphName="dieresis" x="73" y="297" flags="0x4"/>
      <component glyphName="E" x="0" y="0" flags="0x4"/>
    </TTGlyph>
    <TTGlyph name="Edotaccent" xMin="25" yMin="0" xMax="483" yMax="878">
      <component glyphName="E" x="0" y="0" flags="0x204"/>
      <component glyphName="dotaccent" x="71" y="297" flags="0x4"/>
    </TTGlyph>
    <TTGlyph name="Egrave" xMin="25" yMin="0" xMax="483" yMax="928">
      <component glyphName="E" x="0" y="0" flags="0x204"/>
      <component glyphName="grave" x="12" y="297" flags="0x4"/>
    </TTGlyph>
    <TTGlyph name="Emacron" xMin="25" yMin="0" xMax="483" yMax="856">
      <component glyphName="E" x="0" y="0" flags="0x204"/>
      <component glyphName="macron" x="73" y="297" flags="0x4"/>
    </TTGlyph>
    <TTGlyph name="Eogonek" xMin="25" yMin="-202" xMax="483" yMax="733">
      <contour>
        <pt x="470" y="664" on="1"/>
        <pt x="221" y="664" on="1"/>
        <pt x="174" y="409" on="1"/>
        <pt x="402" y="409" on="1"/>
        <pt x="389" y="341" on="1"/>
        <pt x="161" y="341" on="1"/>
        <pt x="111" y="69" on="1"/>
        <pt x="361" y="69" on="1"/>
        <pt x="348" y="0" on="1"/>
        <pt x="315" y="0" on="1"/>
        <pt x="302" y="-12" on="0"/>
        <pt x="275" y="-41" on="0"/>
        <pt x="252" y="-73" on="0"/>
        <pt x="238" y="-106" on="0"/>
        <pt x="238" y="-123" on="1"/>
        <pt x="238" y="-151" on="0"/>
        <pt x="261" y="-151" on="1"/>
        <pt x="280" y="-151" on="0"/>
        <pt x="301" y="-133" on="1"/>
        <pt x="319" y="-167" on="1"/>
        <pt x="301" y="-184" on="0"/>
        <pt x="266" y="-201" on="0"/>
        <pt x="243" y="-201" on="1"/>
        <pt x="214" y="-202" on="0"/>
        <pt x="180" y="-168" on="0"/>
        <pt x="180" y="-140" on="1"/>
        <pt x="180" y="-102" on="0"/>
        <pt x="224" y="-34" on="0"/>
        <pt x="262" y="0" on="1"/>
        <pt x="25" y="0" on="1"/>
        <pt x="160" y="733" on="1"/>
        <pt x="483" y="733" on="1"/>
      </contour>
    </TTGlyph>
    <TTGlyph name="Eth" xMin="40" yMin="-7" xMax="559" yMax="739">
      <contour>
        <pt x="559" y="436" on="1"/>
        <pt x="559" y="349" on="0"/>
        <pt x="505" y="189" on="0"/>
        <pt x="404" y="66" on="0"/>
        <pt x="258" y="-7" on="0"/>
        <pt x="165" y="-7" on="1"/>
        <pt x="133" y="-7" on="0"/>
        <pt x="66" y="2" on="0"/>
        <pt x="40" y="7" on="1"/>
        <pt x="101" y="338" on="1"/>
        <pt x="42" y="338" on="1"/>
        <pt x="54" y="406" on="1"/>
        <pt x="113" y="406" on="1"/>
        <pt x="173" y="731" on="1"/>
        <pt x="193" y="735" on="0"/>
        <pt x="243" y="739" on="0"/>
        <pt x="275" y="739" on="1"/>
        <pt x="402" y="739" on="0"/>
        <pt x="479" y="662" on="1"/>
        <pt x="521" y="620" on="0"/>
        <pt x="559" y="502" on="0"/>
      </contour>
      <contour>
        <pt x="483" y="430" on="1"/>
        <pt x="483" y="496" on="0"/>
        <pt x="449" y="593" on="0"/>
        <pt x="420" y="622" on="1"/>
        <pt x="369" y="673" on="0"/>
        <pt x="282" y="673" on="1"/>
        <pt x="258" y="673" on="0"/>
        <pt x="236" y="670" on="1"/>
        <pt x="187" y="406" on="1"/>
        <pt x="288" y="406" on="1"/>
        <pt x="276" y="338" on="1"/>
        <pt x="174" y="338" on="1"/>
        <pt x="124" y="64" on="1"/>
        <pt x="138" y="62" on="0"/>
        <pt x="170" y="60" on="0"/>
        <pt x="187" y="60" on="1"/>
        <pt x="253" y="60" on="0"/>
        <pt x="362" y="123" on="0"/>
        <pt x="440" y="227" on="0"/>
        <pt x="483" y="360" on="0"/>
      </contour>
    </TTGlyph>
    <TTGlyph name="Euro" xMin="17" yMin="-11" xMax="521" yMax="668">
      <contour>
        <pt x="84" y="280" on="1"/>
        <pt x="86" y="304" on="0"/>
        <pt x="94" y="352" on="0"/>
        <pt x="100" y="375" on="1"/>
        <pt x="45" y="375" on="1"/>
        <pt x="56" y="437" on="1"/>
        <pt x="119" y="437" on="1"/>
        <pt x="138" y="486" on="0"/>
        <pt x="192" y="571" on="0"/>
        <pt x="259" y="633" on="0"/>
        <pt x="337" y="668" on="0"/>
        <pt x="381" y="668" on="1"/>
        <pt x="423" y="668" on="0"/>
        <pt x="495" y="639" on="0"/>
        <pt x="521" y="616" on="1"/>
        <pt x="483" y="559" on="1"/>
        <pt x="462" y="576" on="0"/>
        <pt x="407" y="601" on="0"/>
        <pt x="372" y="601" on="1"/>
        <pt x="344" y="601" on="0"/>
        <pt x="293" y="576" on="0"/>
        <pt x="247" y="532" on="0"/>
        <pt x="209" y="472" on="0"/>
        <pt x="194" y="437" on="1"/>
        <pt x="422" y="437" on="1"/>
        <pt x="410" y="375" on="1"/>
        <pt x="174" y="375" on="1"/>
        <pt x="161" y="326" on="0"/>
        <pt x="157" y="280" on="1"/>
        <pt x="393" y="280" on="1"/>
        <pt x="382" y="219" on="1"/>
        <pt x="156" y="219" on="1"/>
        <pt x="161" y="138" on="0"/>
        <pt x="238" y="56" on="0"/>
        <pt x="296" y="56" on="1"/>
        <pt x="326" y="56" on="0"/>
        <pt x="381" y="76" on="0"/>
        <pt x="403" y="88" on="1"/>
        <pt x="422" y="27" on="1"/>
        <pt x="389" y="7" on="0"/>
        <pt x="320" y="-11" on="0"/>
        <pt x="288" y="-11" on="1"/>
        <pt x="245" y="-11" on="0"/>
        <pt x="173" y="20" on="0"/>
        <pt x="119" y="80" on="0"/>
        <pt x="86" y="165" on="0"/>
        <pt x="83" y="219" on="1"/>
        <pt x="17" y="219" on="1"/>
        <pt x="27" y="280" on="1"/>
      </contour>
    </TTGlyph>
    <TTGlyph name="Euro.lin" xMin="20" yMin="-11" xMax="592" yMax="736">
      <contour>
        <pt x="133" y="477" on="1"/>
        <pt x="154" y="532" on="0"/>
        <pt x="216" y="627" on="0"/>
        <pt x="292" y="696" on="0"/>
        <pt x="382" y="736" on="0"/>
        <pt x="431" y="736" on="1"/>
        <pt x="479" y="736" on="0"/>
        <pt x="563" y="703" on="0"/>
        <pt x="592" y="678" on="1"/>
        <pt x="553" y="618" on="1"/>
        <pt x="529" y="638" on="0"/>
        <pt x="463" y="667" on="0"/>
        <pt x="422" y="667" on="1"/>
        <pt x="388" y="667" on="0"/>
        <pt x="326" y="638" on="0"/>
        <pt x="272" y="587" on="0"/>
        <pt x="227" y="517" on="0"/>
        <pt x="211" y="477" on="1"/>
        <pt x="478" y="477" on="1"/>
        <pt x="467" y="415" on="1"/>
        <pt x="191" y="415" on="1"/>
        <pt x="178" y="363" on="0"/>
        <pt x="173" y="308" on="1"/>
        <pt x="448" y="308" on="1"/>
        <pt x="437" y="246" on="1"/>
        <pt x="173" y="246" on="1"/>
        <pt x="179" y="155" on="0"/>
        <pt x="267" y="57" on="0"/>
        <pt x="336" y="57" on="1"/>
        <pt x="372" y="57" on="0"/>
        <pt x="440" y="82" on="0"/>
        <pt x="466" y="98" on="1"/>
        <pt x="489" y="35" on="1"/>
        <pt x="451" y="11" on="0"/>
        <pt x="368" y="-11" on="0"/>
        <pt x="330" y="-11" on="1"/>
        <pt x="283" y="-11" on="0"/>
        <pt x="200" y="24" on="0"/>
        <pt x="138" y="90" on="0"/>
        <pt x="99" y="185" on="0"/>
        <pt x="95" y="246" on="1"/>
        <pt x="20" y="246" on="1"/>
        <pt x="32" y="308" on="1"/>
        <pt x="96" y="308" on="1"/>
        <pt x="99" y="360" on="0"/>
        <pt x="113" y="415" on="1"/>
        <pt x="51" y="415" on="1"/>
        <pt x="62" y="477" on="1"/>
      </contour>
    </TTGlyph>
    <TTGlyph name="F" xMin="25" yMin="0" xMax="479" yMax="733">
      <contour>
        <pt x="467" y="664" on="1"/>
        <pt x="221" y="664" on="1"/>
        <pt x="173" y="403" on="1"/>
        <pt x="393" y="403" on="1"/>
        <pt x="381" y="335" on="1"/>
        <pt x="160" y="335" on="1"/>
        <pt x="98" y="0" on="1"/>
        <pt x="25" y="0" on="1"/>
        <pt x="160" y="733" on="1"/>
        <pt x="479" y="733" on="1"/>
      </contour>
    </TTGlyph>
    <TTGlyph name="G" xMin="57" yMin="-11" xMax="560" yMax="744">
      <contour>
        <pt x="465" y="41" on="1"/>
        <pt x="428" y="16" on="0"/>
        <pt x="348" y="-11" on="0"/>
        <pt x="297" y="-11" on="1"/>
        <pt x="247" y="-11" on="0"/>
        <pt x="160" y="27" on="0"/>
        <pt x="95" y="100" on="0"/>
        <pt x="57" y="207" on="0"/>
        <pt x="57" y="275" on="1"/>
        <pt x="57" y="368" on="0"/>
        <pt x="110" y="537" on="0"/>
        <pt x="202" y="667" on="0"/>
        <pt x="325" y="744" on="0"/>
        <pt x="395" y="744" on="1"/>
        <pt x="446" y="744" on="0"/>
        <pt x="534" y="707" on="0"/>
        <pt x="560" y="684" on="1"/>
        <pt x="521" y="625" on="1"/>
        <pt x="500" y="644" on="0"/>
        <pt x="429" y="676" on="0"/>
        <pt x="386" y="676" on="1"/>
        <pt x="332" y="676" on="0"/>
        <pt x="240" y="609" on="0"/>
        <pt x="172" y="498" on="0"/>
        <pt x="133" y="353" on="0"/>
        <pt x="133" y="276" on="1"/>
        <pt x="133" y="222" on="0"/>
        <pt x="159" y="140" on="0"/>
        <pt x="205" y="85" on="0"/>
        <pt x="268" y="56" on="0"/>
        <pt x="306" y="56" on="1"/>
        <pt x="338" y="56" on="0"/>
        <pt x="383" y="69" on="0"/>
        <pt x="400" y="80" on="1"/>
        <pt x="445" y="314" on="1"/>
        <pt x="306" y="314" on="1"/>
        <pt x="318" y="382" on="1"/>
        <pt x="529" y="382" on="1"/>
      </contour>
    </TTGlyph>
    <TTGlyph name="G.alt" xMin="57" yMin="-11" xMax="572" yMax="744">
      <contour>
        <pt x="572" y="374" on="1"/>
        <pt x="561" y="290" on="0"/>
        <pt x="516" y="148" on="0"/>
        <pt x="446" y="46" on="0"/>
        <pt x="351" y="-11" on="0"/>
        <pt x="290" y="-11" on="1"/>
        <pt x="240" y="-11" on="0"/>
        <pt x="155" y="28" on="0"/>
        <pt x="92" y="102" on="0"/>
        <pt x="57" y="208" on="0"/>
        <pt x="57" y="276" on="1"/>
        <pt x="57" y="369" on="0"/>
        <pt x="110" y="538" on="0"/>
        <pt x="202" y="667" on="0"/>
        <pt x="325" y="744" on="0"/>
        <pt x="395" y="744" on="1"/>
        <pt x="446" y="744" on="0"/>
        <pt x="534" y="707" on="0"/>
        <pt x="560" y="684" on="1"/>
        <pt x="521" y="625" on="1"/>
        <pt x="500" y="644" on="0"/>
        <pt x="430" y="676" on="0"/>
        <pt x="387" y="676" on="1"/>
        <pt x="333" y="676" on="0"/>
        <pt x="240" y="609" on="0"/>
        <pt x="172" y="497" on="0"/>
        <pt x="133" y="352" on="0"/>
        <pt x="133" y="275" on="1"/>
        <pt x="133" y="170" on="0"/>
        <pt x="223" y="54" on="0"/>
        <pt x="297" y="54" on="1"/>
        <pt x="333" y="54" on="0"/>
        <pt x="394" y="97" on="0"/>
        <pt x="444" y="167" on="0"/>
        <pt x="478" y="258" on="0"/>
        <pt x="487" y="306" on="1"/>
        <pt x="291" y="306" on="1"/>
        <pt x="303" y="374" on="1"/>
      </contour>
    </TTGlyph>
    <TTGlyph name="Gbreve" xMin="57" yMin="-11" xMax="560" yMax="909">
      <component glyphName="G" x="0" y="0" flags="0x204"/>
      <component glyphName="breve" x="147" y="302" flags="0x4"/>
    </TTGlyph>
    <TTGlyph name="Gbreve.alt" xMin="57" yMin="-11" xMax="572" yMax="909">
      <component glyphName="G.alt" x="0" y="0" flags="0x204"/>
      <component glyphName="breve" x="147" y="302" flags="0x4"/>
    </TTGlyph>
    <TTGlyph name="Gcommaaccent" xMin="57" yMin="-262" xMax="560" yMax="744">
      <component glyphName="commaaccent" x="130" y="0" flags="0x4"/>
      <component glyphName="G" x="0" y="0" flags="0x4"/>
    </TTGlyph>
    <TTGlyph name="Gcommaaccent.alt" xMin="57" yMin="-262" xMax="572" yMax="744">
      <component glyphName="commaaccent" x="147" y="0" flags="0x4"/>
      <component glyphName="G.alt" x="0" y="0" flags="0x4"/>
    </TTGlyph>
    <TTGlyph name="Gdotaccent" xMin="57" yMin="-11" xMax="560" yMax="883">
      <component glyphName="G" x="0" y="0" flags="0x204"/>
      <component glyphName="dotaccent" x="142" y="302" flags="0x4"/>
    </TTGlyph>
    <TTGlyph name="Gdotaccent.alt" xMin="57" yMin="-11" xMax="572" yMax="883">
      <component glyphName="G.alt" x="0" y="0" flags="0x204"/>
      <component glyphName="dotaccent" x="142" y="302" flags="0x4"/>
    </TTGlyph>
    <TTGlyph name="H" xMin="25" yMin="0" xMax="579" yMax="733">
      <contour>
        <pt x="444" y="0" on="1"/>
        <pt x="370" y="0" on="1"/>
        <pt x="432" y="338" on="1"/>
        <pt x="162" y="338" on="1"/>
        <pt x="99" y="0" on="1"/>
        <pt x="25" y="0" on="1"/>
        <pt x="160" y="733" on="1"/>
        <pt x="234" y="733" on="1"/>
        <pt x="175" y="407" on="1"/>
        <pt x="445" y="407" on="1"/>
        <pt x="505" y="733" on="1"/>
        <pt x="579" y="733" on="1"/>
      </contour>
    </TTGlyph>
    <TTGlyph name="Hbar" xMin="25" yMin="0" xMax="619" yMax="733">
      <contour>
        <pt x="556" y="607" on="1"/>
        <pt x="619" y="607" on="1"/>
        <pt x="608" y="548" on="1"/>
        <pt x="545" y="548" on="1"/>
        <pt x="444" y="0" on="1"/>
        <pt x="370" y="0" on="1"/>
        <pt x="432" y="338" on="1"/>
        <pt x="162" y="338" on="1"/>
        <pt x="99" y="0" on="1"/>
        <pt x="25" y="0" on="1"/>
        <pt x="126" y="548" on="1"/>
        <pt x="63" y="548" on="1"/>
        <pt x="74" y="607" on="1"/>
        <pt x="137" y="607" on="1"/>
        <pt x="160" y="733" on="1"/>
        <pt x="234" y="733" on="1"/>
        <pt x="211" y="607" on="1"/>
        <pt x="482" y="607" on="1"/>
        <pt x="505" y="733" on="1"/>
        <pt x="579" y="733" on="1"/>
      </contour>
      <contour>
        <pt x="445" y="407" on="1"/>
        <pt x="471" y="548" on="1"/>
        <pt x="200" y="548" on="1"/>
        <pt x="175" y="407" on="1"/>
      </contour>
    </TTGlyph>
    <TTGlyph name="I" xMin="30" yMin="0" xMax="239" yMax="733">
      <contour>
        <pt x="104" y="0" on="1"/>
        <pt x="30" y="0" on="1"/>
        <pt x="166" y="733" on="1"/>
        <pt x="239" y="733" on="1"/>
      </contour>
    </TTGlyph>
    <TTGlyph name="Iacute" xMin="30" yMin="0" xMax="355" yMax="928">
      <component glyphName="I" x="0" y="0" flags="0x204"/>
      <component glyphName="acute" x="3" y="297" flags="0x4"/>
    </TTGlyph>
    <TTGlyph name="Ibreve" xMin="30" yMin="0" xMax="348" yMax="904">
      <component glyphName="I" x="0" y="0" flags="0x204"/>
      <component glyphName="breve" x="-40" y="297" flags="0x4"/>
    </TTGlyph>
    <TTGlyph name="Icircumflex" xMin="30" yMin="0" xMax="336" yMax="927">
      <component glyphName="I" x="0" y="0" flags="0x204"/>
      <component glyphName="circumflex" x="-50" y="297" flags="0x4"/>
    </TTGlyph>
    <TTGlyph name="Idieresis" xMin="30" yMin="0" xMax="336" yMax="878">
      <component glyphName="I" x="0" y="0" flags="0x204"/>
      <component glyphName="dieresis" x="-43" y="297" flags="0x4"/>
    </TTGlyph>
    <TTGlyph name="Idotaccent" xMin="30" yMin="0" xMax="265" yMax="878">
      <component glyphName="I" x="0" y="0" flags="0x204"/>
      <component glyphName="dotaccent" x="-45" y="297" flags="0x4"/>
    </TTGlyph>
    <TTGlyph name="Igrave" xMin="30" yMin="0" xMax="263" yMax="928">
      <component glyphName="I" x="0" y="0" flags="0x204"/>
      <component glyphName="grave" x="-105" y="297" flags="0x4"/>
    </TTGlyph>
    <TTGlyph name="Imacron" xMin="30" yMin="0" xMax="346" yMax="856">
      <component glyphName="I" x="0" y="0" flags="0x204"/>
      <component glyphName="macron" x="-43" y="297" flags="0x4"/>
    </TTGlyph>
    <TTGlyph name="Iogonek" xMin="-41" yMin="-202" xMax="239" yMax="733">
      <contour>
        <pt x="104" y="0" on="1"/>
        <pt x="94" y="0" on="1"/>
        <pt x="81" y="-12" on="0"/>
        <pt x="54" y="-41" on="0"/>
        <pt x="31" y="-73" on="0"/>
        <pt x="17" y="-106" on="0"/>
        <pt x="17" y="-123" on="1"/>
        <pt x="17" y="-151" on="0"/>
        <pt x="41" y="-151" on="1"/>
        <pt x="59" y="-151" on="0"/>
        <pt x="80" y="-133" on="1"/>
        <pt x="98" y="-167" on="1"/>
        <pt x="80" y="-184" on="0"/>
        <pt x="45" y="-201" on="0"/>
        <pt x="22" y="-201" on="1"/>
        <pt x="-7" y="-202" on="0"/>
        <pt x="-41" y="-168" on="0"/>
        <pt x="-41" y="-140" on="1"/>
        <pt x="-41" y="-102" on="0"/>
        <pt x="4" y="-34" on="0"/>
        <pt x="41" y="0" on="1"/>
        <pt x="30" y="0" on="1"/>
        <pt x="166" y="733" on="1"/>
        <pt x="239" y="733" on="1"/>
      </contour>
    </TTGlyph>
    <TTGlyph name="J" xMin="-24" yMin="-10" xMax="386" yMax="733">
      <contour>
        <pt x="281" y="167" on="1"/>
        <pt x="266" y="85" on="0"/>
        <pt x="182" y="-10" on="0"/>
        <pt x="107" y="-10" on="1"/>
        <pt x="66" y="-10" on="0"/>
        <pt x="1" y="18" on="0"/>
        <pt x="-24" y="40" on="1"/>
        <pt x="18" y="95" on="1"/>
        <pt x="61" y="59" on="0"/>
        <pt x="108" y="59" on="1"/>
        <pt x="153" y="59" on="0"/>
        <pt x="199" y="119" on="0"/>
        <pt x="210" y="179" on="1"/>
        <pt x="312" y="733" on="1"/>
        <pt x="386" y="733" on="1"/>
      </contour>
    </TTGlyph>
    <TTGlyph name="K" xMin="25" yMin="0" xMax="547" yMax="733">
      <contour>
        <pt x="238" y="372" on="1"/>
        <pt x="418" y="0" on="1"/>
        <pt x="334" y="0" on="1"/>
        <pt x="165" y="362" on="1"/>
        <pt x="98" y="0" on="1"/>
        <pt x="25" y="0" on="1"/>
        <pt x="160" y="733" on="1"/>
        <pt x="233" y="733" on="1"/>
        <pt x="170" y="390" on="1"/>
        <pt x="457" y="733" on="1"/>
        <pt x="547" y="733" on="1"/>
      </contour>
    </TTGlyph>
    <TTGlyph name="Kcommaaccent" xMin="25" yMin="-257" xMax="547" yMax="733">
      <component glyphName="commaaccent" x="86" y="5" flags="0x4"/>
      <component glyphName="K" x="0" y="0" flags="0x4"/>
    </TTGlyph>
    <TTGlyph name="L" xMin="25" yMin="0" xMax="351" yMax="733">
      <contour>
        <pt x="338" y="0" on="1"/>
        <pt x="25" y="0" on="1"/>
        <pt x="160" y="733" on="1"/>
        <pt x="233" y="733" on="1"/>
        <pt x="111" y="69" on="1"/>
        <pt x="351" y="69" on="1"/>
      </contour>
    </TTGlyph>
    <TTGlyph name="Lacute" xMin="25" yMin="0" xMax="366" yMax="928">
      <component glyphName="acute" x="14" y="297" flags="0x4"/>
      <component glyphName="L" x="0" y="0" flags="0x4"/>
    </TTGlyph>
    <TTGlyph name="Lcaron" xMin="25" yMin="0" xMax="382" yMax="733">
      <component glyphName="caron.alt" x="220" y="-9" flags="0x4"/>
      <component glyphName="L" x="0" y="0" flags="0x4"/>
    </TTGlyph>
    <TTGlyph name="Lcommaaccent" xMin="25" yMin="-262" xMax="351" yMax="733">
      <component glyphName="commaaccent" x="54" y="0" flags="0x4"/>
      <component glyphName="L" x="0" y="0" flags="0x4"/>
    </TTGlyph>
    <TTGlyph name="Ldot" xMin="25" yMin="0" xMax="372" yMax="733">
      <component glyphName="L" x="0" y="0" flags="0x204"/>
      <component glyphName="dotaccent" x="62" y="-172" flags="0x4"/>
    </TTGlyph>
    <TTGlyph name="Lslash" xMin="30" yMin="0" xMax="363" yMax="733">
      <contour>
        <pt x="350" y="0" on="1"/>
        <pt x="37" y="0" on="1"/>
        <pt x="93" y="305" on="1"/>
        <pt x="30" y="279" on="1"/>
        <pt x="44" y="353" on="1"/>
        <pt x="106" y="379" on="1"/>
        <pt x="172" y="733" on="1"/>
        <pt x="246" y="733" on="1"/>
        <pt x="187" y="413" on="1"/>
        <pt x="287" y="455" on="1"/>
        <pt x="274" y="381" on="1"/>
        <pt x="173" y="338" on="1"/>
        <pt x="123" y="69" on="1"/>
        <pt x="363" y="69" on="1"/>
      </contour>
    </TTGlyph>
    <TTGlyph name="M" xMin="16" yMin="0" xMax="651" yMax="741">
      <contour>
        <pt x="547" y="0" on="1"/>
        <pt x="473" y="0" on="1"/>
        <pt x="553" y="500" on="1"/>
        <pt x="315" y="110" on="1"/>
        <pt x="301" y="110" on="1"/>
        <pt x="192" y="507" on="1"/>
        <pt x="90" y="0" on="1"/>
        <pt x="16" y="0" on="1"/>
        <pt x="175" y="738" on="1"/>
        <pt x="200" y="741" on="1"/>
        <pt x="330" y="249" on="1"/>
        <pt x="625" y="741" on="1"/>
        <pt x="651" y="738" on="1"/>
      </contour>
    </TTGlyph>
    <TTGlyph name="M.alt" xMin="16" yMin="0" xMax="651" yMax="741">
      <contour>
        <pt x="547" y="0" on="1"/>
        <pt x="473" y="0" on="1"/>
        <pt x="554" y="509" on="1"/>
        <pt x="321" y="144" on="1"/>
        <pt x="307" y="144" on="1"/>
        <pt x="194" y="517" on="1"/>
        <pt x="90" y="0" on="1"/>
        <pt x="16" y="0" on="1"/>
        <pt x="175" y="738" on="1"/>
        <pt x="200" y="741" on="1"/>
        <pt x="336" y="276" on="1"/>
        <pt x="625" y="741" on="1"/>
        <pt x="651" y="738" on="1"/>
      </contour>
    </TTGlyph>
    <TTGlyph name="N" xMin="25" yMin="-7" xMax="584" yMax="740">
      <contour>
        <pt x="447" y="-5" on="1"/>
        <pt x="425" y="-7" on="1"/>
        <pt x="197" y="533" on="1"/>
        <pt x="97" y="0" on="1"/>
        <pt x="25" y="0" on="1"/>
        <pt x="161" y="737" on="1"/>
        <pt x="185" y="740" on="1"/>
        <pt x="413" y="206" on="1"/>
        <pt x="510" y="733" on="1"/>
        <pt x="584" y="733" on="1"/>
      </contour>
    </TTGlyph>
    <TTGlyph name="Nacute" xMin="25" yMin="-7" xMax="584" yMax="921">
      <component glyphName="acute" x="171" y="290" flags="0x4"/>
      <component glyphName="N" x="0" y="0" flags="0x4"/>
    </TTGlyph>
    <TTGlyph name="Ncaron" xMin="25" yMin="-7" xMax="584" yMax="917">
      <component glyphName="caron" x="126" y="290" flags="0x4"/>
      <component glyphName="N" x="0" y="0" flags="0x4"/>
    </TTGlyph>
    <TTGlyph name="Ncommaaccent" xMin="25" yMin="-266" xMax="584" yMax="740">
      <component glyphName="commaaccent" x="111" y="-4" flags="0x4"/>
      <component glyphName="N" x="0" y="0" flags="0x4"/>
    </TTGlyph>
    <TTGlyph name="Ntilde" xMin="25" yMin="-7" xMax="584" yMax="876">
      <component glyphName="N" x="0" y="0" flags="0x204"/>
      <component glyphName="tilde" x="121" y="290" flags="0x4"/>
    </TTGlyph>
    <TTGlyph name="O" xMin="57" yMin="-11" xMax="596" yMax="744">
      <contour>
        <pt x="596" y="457" on="1"/>
        <pt x="596" y="409" on="0"/>
        <pt x="577" y="303" on="0"/>
        <pt x="539" y="199" on="0"/>
        <pt x="484" y="104" on="0"/>
        <pt x="412" y="32" on="0"/>
        <pt x="323" y="-11" on="0"/>
        <pt x="271" y="-11" on="1"/>
        <pt x="219" y="-11" on="0"/>
        <pt x="139" y="30" on="0"/>
        <pt x="85" y="105" on="0"/>
        <pt x="57" y="211" on="0"/>
        <pt x="57" y="276" on="1"/>
        <pt x="57" y="324" on="0"/>
        <pt x="76" y="430" on="0"/>
        <pt x="114" y="534" on="0"/>
        <pt x="169" y="629" on="0"/>
        <pt x="241" y="701" on="0"/>
        <pt x="330" y="744" on="0"/>
        <pt x="382" y="744" on="1"/>
        <pt x="434" y="744" on="0"/>
        <pt x="514" y="704" on="0"/>
        <pt x="568" y="629" on="0"/>
        <pt x="596" y="523" on="0"/>
      </contour>
      <contour>
        <pt x="521" y="456" on="1"/>
        <pt x="521" y="563" on="0"/>
        <pt x="448" y="678" on="0"/>
        <pt x="379" y="678" on="1"/>
        <pt x="325" y="678" on="0"/>
        <pt x="235" y="602" on="0"/>
        <pt x="169" y="485" on="0"/>
        <pt x="132" y="342" on="0"/>
        <pt x="132" y="276" on="1"/>
        <pt x="132" y="172" on="0"/>
        <pt x="205" y="54" on="0"/>
        <pt x="274" y="54" on="1"/>
        <pt x="328" y="54" on="0"/>
        <pt x="418" y="130" on="0"/>
        <pt x="484" y="248" on="0"/>
        <pt x="521" y="390" on="0"/>
      </contour>
    </TTGlyph>
    <TTGlyph name="OE" xMin="59" yMin="-6" xMax="829" yMax="740">
      <contour>
        <pt x="816" y="664" on="1"/>
        <pt x="567" y="664" on="1"/>
        <pt x="520" y="409" on="1"/>
        <pt x="748" y="409" on="1"/>
        <pt x="735" y="341" on="1"/>
        <pt x="507" y="341" on="1"/>
        <pt x="457" y="69" on="1"/>
        <pt x="706" y="69" on="1"/>
        <pt x="694" y="0" on="1"/>
        <pt x="425" y="0" on="1"/>
        <pt x="411" y="-1" on="0"/>
        <pt x="368" y="-6" on="0"/>
        <pt x="344" y="-6" on="1"/>
        <pt x="272" y="-6" on="0"/>
        <pt x="165" y="42" on="0"/>
        <pt x="94" y="124" on="0"/>
        <pt x="59" y="235" on="0"/>
        <pt x="59" y="298" on="1"/>
        <pt x="59" y="385" on="0"/>
        <pt x="113" y="545" on="0"/>
        <pt x="214" y="667" on="0"/>
        <pt x="360" y="740" on="0"/>
        <pt x="453" y="740" on="1"/>
        <pt x="474" y="740" on="0"/>
        <pt x="518" y="736" on="0"/>
        <pt x="537" y="733" on="1"/>
        <pt x="537" y="733" on="0"/>
        <pt x="563" y="733" on="0"/>
        <pt x="604" y="733" on="0"/>
        <pt x="657" y="733" on="0"/>
        <pt x="684" y="733" on="1"/>
        <pt x="829" y="733" on="1"/>
      </contour>
      <contour>
        <pt x="336" y="60" on="1"/>
        <pt x="358" y="60" on="0"/>
        <pt x="382" y="63" on="1"/>
        <pt x="494" y="669" on="1"/>
        <pt x="480" y="671" on="0"/>
        <pt x="448" y="674" on="0"/>
        <pt x="431" y="674" on="1"/>
        <pt x="365" y="674" on="0"/>
        <pt x="256" y="611" on="0"/>
        <pt x="178" y="507" on="0"/>
        <pt x="135" y="374" on="0"/>
        <pt x="135" y="304" on="1"/>
        <pt x="135" y="237" on="0"/>
        <pt x="169" y="141" on="0"/>
        <pt x="198" y="111" on="1"/>
        <pt x="251" y="60" on="0"/>
      </contour>
    </TTGlyph>
    <TTGlyph name="Oacute" xMin="57" yMin="-11" xMax="596" yMax="933">
      <component glyphName="acute" x="195" y="302" flags="0x4"/>
      <component glyphName="O" x="0" y="0" flags="0x4"/>
    </TTGlyph>
    <TTGlyph name="Obreve" xMin="57" yMin="-11" xMax="596" yMax="909">
      <component glyphName="O" x="0" y="0" flags="0x204"/>
      <component glyphName="breve" x="150" y="302" flags="0x4"/>
    </TTGlyph>
    <TTGlyph name="Ocircumflex" xMin="57" yMin="-11" xMax="596" yMax="932">
      <component glyphName="circumflex" x="141" y="302" flags="0x4"/>
      <component glyphName="O" x="0" y="0" flags="0x4"/>
    </TTGlyph>
    <TTGlyph name="Odieresis" xMin="57" yMin="-11" xMax="596" yMax="883">
      <component glyphName="dieresis" x="148" y="302" flags="0x4"/>
      <component glyphName="O" x="0" y="0" flags="0x4"/>
    </TTGlyph>
    <TTGlyph name="Ograve" xMin="57" yMin="-11" xMax="596" yMax="933">
      <component glyphName="O" x="0" y="0" flags="0x204"/>
      <component glyphName="grave" x="85" y="302" flags="0x4"/>
    </TTGlyph>
    <TTGlyph name="Ohungarumlaut" xMin="57" yMin="-11" xMax="596" yMax="968">
      <component glyphName="hungarumlaut" x="183" y="302" flags="0x4"/>
      <component glyphName="O" x="0" y="0" flags="0x4"/>
    </TTGlyph>
    <TTGlyph name="Omacron" xMin="57" yMin="-11" xMax="596" yMax="861">
      <component glyphName="macron" x="147" y="302" flags="0x4"/>
      <component glyphName="O" x="0" y="0" flags="0x4"/>
    </TTGlyph>
    <TTGlyph name="Oslash" xMin="11" yMin="-11" xMax="638" yMax="744">
      <contour>
        <pt x="596" y="457" on="1"/>
        <pt x="596" y="409" on="0"/>
        <pt x="577" y="303" on="0"/>
        <pt x="539" y="199" on="0"/>
        <pt x="484" y="104" on="0"/>
        <pt x="412" y="32" on="0"/>
        <pt x="323" y="-11" on="0"/>
        <pt x="271" y="-11" on="1"/>
        <pt x="219" y="-11" on="0"/>
        <pt x="140" y="29" on="0"/>
        <pt x="113" y="67" on="1"/>
        <pt x="52" y="-9" on="1"/>
        <pt x="11" y="25" on="1"/>
        <pt x="84" y="118" on="1"/>
        <pt x="57" y="184" on="0"/>
        <pt x="57" y="276" on="1"/>
        <pt x="57" y="324" on="0"/>
        <pt x="76" y="430" on="0"/>
        <pt x="114" y="534" on="0"/>
        <pt x="169" y="629" on="0"/>
        <pt x="241" y="701" on="0"/>
        <pt x="330" y="744" on="0"/>
        <pt x="382" y="744" on="1"/>
        <pt x="433" y="744" on="0"/>
        <pt x="511" y="705" on="0"/>
        <pt x="538" y="669" on="1"/>
        <pt x="597" y="741" on="1"/>
        <pt x="638" y="707" on="1"/>
        <pt x="625" y="692" on="0"/>
        <pt x="613" y="676" on="1"/>
        <pt x="602" y="662" on="0"/>
        <pt x="578" y="632" on="0"/>
        <pt x="567" y="618" on="1"/>
        <pt x="596" y="551" on="0"/>
      </contour>
      <contour>
        <pt x="521" y="456" on="1"/>
        <pt x="521" y="507" on="0"/>
        <pt x="512" y="548" on="1"/>
        <pt x="161" y="125" on="1"/>
        <pt x="198" y="54" on="0"/>
        <pt x="274" y="54" on="1"/>
        <pt x="328" y="54" on="0"/>
        <pt x="418" y="130" on="0"/>
        <pt x="484" y="248" on="0"/>
        <pt x="521" y="390" on="0"/>
      </contour>
      <contour>
        <pt x="132" y="276" on="1"/>
        <pt x="132" y="251" on="0"/>
        <pt x="136" y="207" on="0"/>
        <pt x="140" y="187" on="1"/>
        <pt x="490" y="610" on="1"/>
        <pt x="453" y="678" on="0"/>
        <pt x="379" y="678" on="1"/>
        <pt x="325" y="678" on="0"/>
        <pt x="235" y="602" on="0"/>
        <pt x="169" y="485" on="0"/>
        <pt x="132" y="342" on="0"/>
      </contour>
    </TTGlyph>
    <TTGlyph name="Oslashacute" xMin="11" yMin="-11" xMax="638" yMax="933">
      <component glyphName="Oslash" x="0" y="0" flags="0x204"/>
      <component glyphName="acute" x="194" y="302" flags="0x4"/>
    </TTGlyph>
    <TTGlyph name="Otilde" xMin="57" yMin="-11" xMax="596" yMax="888">
      <component glyphName="O" x="0" y="0" flags="0x204"/>
      <component glyphName="tilde" x="146" y="302" flags="0x4"/>
    </TTGlyph>
    <TTGlyph name="P" xMin="25" yMin="0" xMax="479" yMax="739">
      <contour>
        <pt x="479" y="534" on="1"/>
        <pt x="479" y="480" on="0"/>
        <pt x="443" y="381" on="0"/>
        <pt x="372" y="305" on="0"/>
        <pt x="268" y="260" on="0"/>
        <pt x="199" y="260" on="1"/>
        <pt x="188" y="260" on="0"/>
        <pt x="158" y="262" on="0"/>
        <pt x="147" y="264" on="1"/>
        <pt x="98" y="0" on="1"/>
        <pt x="25" y="0" on="1"/>
        <pt x="159" y="730" on="1"/>
        <pt x="180" y="734" on="0"/>
        <pt x="227" y="739" on="0"/>
        <pt x="253" y="739" on="1"/>
        <pt x="311" y="739" on="0"/>
        <pt x="397" y="706" on="0"/>
        <pt x="452" y="650" on="0"/>
        <pt x="479" y="576" on="0"/>
      </contour>
      <contour>
        <pt x="403" y="527" on="1"/>
        <pt x="403" y="592" on="0"/>
        <pt x="331" y="672" on="0"/>
        <pt x="261" y="672" on="1"/>
        <pt x="249" y="672" on="0"/>
        <pt x="230" y="670" on="0"/>
        <pt x="222" y="668" on="1"/>
        <pt x="159" y="331" on="1"/>
        <pt x="172" y="329" on="0"/>
        <pt x="196" y="327" on="0"/>
        <pt x="210" y="327" on="1"/>
        <pt x="259" y="327" on="0"/>
        <pt x="331" y="360" on="0"/>
        <pt x="379" y="415" on="0"/>
        <pt x="403" y="488" on="0"/>
      </contour>
    </TTGlyph>
    <TTGlyph name="Q" xMin="57" yMin="-24" xMax="596" yMax="744">
      <contour>
        <pt x="596" y="457" on="1"/>
        <pt x="596" y="414" on="0"/>
        <pt x="580" y="320" on="0"/>
        <pt x="550" y="226" on="0"/>
        <pt x="505" y="138" on="0"/>
        <pt x="476" y="101" on="1"/>
        <pt x="533" y="14" on="1"/>
        <pt x="477" y="-24" on="1"/>
        <pt x="428" y="51" on="1"/>
        <pt x="394" y="22" on="0"/>
        <pt x="316" y="-11" on="0"/>
        <pt x="271" y="-11" on="1"/>
        <pt x="219" y="-11" on="0"/>
        <pt x="139" y="30" on="0"/>
        <pt x="85" y="105" on="0"/>
        <pt x="57" y="211" on="0"/>
        <pt x="57" y="276" on="1"/>
        <pt x="57" y="324" on="0"/>
        <pt x="76" y="430" on="0"/>
        <pt x="114" y="534" on="0"/>
        <pt x="169" y="629" on="0"/>
        <pt x="241" y="701" on="0"/>
        <pt x="330" y="744" on="0"/>
        <pt x="382" y="744" on="1"/>
        <pt x="434" y="744" on="0"/>
        <pt x="514" y="704" on="0"/>
        <pt x="568" y="629" on="0"/>
        <pt x="596" y="523" on="0"/>
      </contour>
      <contour>
        <pt x="359" y="278" on="1"/>
        <pt x="436" y="161" on="1"/>
        <pt x="476" y="222" on="0"/>
        <pt x="521" y="380" on="0"/>
        <pt x="521" y="456" on="1"/>
        <pt x="521" y="563" on="0"/>
        <pt x="448" y="678" on="0"/>
        <pt x="379" y="678" on="1"/>
        <pt x="325" y="678" on="0"/>
        <pt x="235" y="602" on="0"/>
        <pt x="169" y="485" on="0"/>
        <pt x="132" y="342" on="0"/>
        <pt x="132" y="276" on="1"/>
        <pt x="132" y="172" on="0"/>
        <pt x="205" y="54" on="0"/>
        <pt x="274" y="54" on="1"/>
        <pt x="306" y="54" on="0"/>
        <pt x="365" y="82" on="0"/>
        <pt x="391" y="107" on="1"/>
        <pt x="305" y="237" on="1"/>
      </contour>
    </TTGlyph>
    <TTGlyph name="R" xMin="25" yMin="0" xMax="479" yMax="739">
      <contour>
        <pt x="479" y="545" on="1"/>
        <pt x="479" y="463" on="0"/>
        <pt x="392" y="333" on="0"/>
        <pt x="311" y="306" on="1"/>
        <pt x="424" y="0" on="1"/>
        <pt x="341" y="0" on="1"/>
        <pt x="238" y="291" on="1"/>
        <pt x="231" y="290" on="0"/>
        <pt x="218" y="289" on="0"/>
        <pt x="211" y="289" on="1"/>
        <pt x="177" y="289" on="0"/>
        <pt x="153" y="292" on="1"/>
        <pt x="98" y="0" on="1"/>
        <pt x="25" y="0" on="1"/>
        <pt x="159" y="730" on="1"/>
        <pt x="202" y="739" on="0"/>
        <pt x="261" y="739" on="1"/>
        <pt x="316" y="739" on="0"/>
        <pt x="398" y="708" on="0"/>
        <pt x="452" y="655" on="0"/>
        <pt x="479" y="584" on="0"/>
      </contour>
      <contour>
        <pt x="403" y="537" on="1"/>
        <pt x="403" y="599" on="0"/>
        <pt x="333" y="672" on="0"/>
        <pt x="267" y="672" on="1"/>
        <pt x="239" y="672" on="0"/>
        <pt x="222" y="668" on="1"/>
        <pt x="165" y="357" on="1"/>
        <pt x="192" y="354" on="0"/>
        <pt x="220" y="354" on="1"/>
        <pt x="265" y="354" on="0"/>
        <pt x="333" y="382" on="0"/>
        <pt x="379" y="431" on="0"/>
        <pt x="403" y="498" on="0"/>
      </contour>
    </TTGlyph>
    <TTGlyph name="Racute" xMin="25" yMin="0" xMax="479" yMax="928">
      <component glyphName="acute" x="119" y="297" flags="0x4"/>
      <component glyphName="R" x="0" y="0" flags="0x4"/>
    </TTGlyph>
    <TTGlyph name="Rcaron" xMin="25" yMin="0" xMax="483" yMax="924">
      <component glyphName="caron" x="74" y="297" flags="0x4"/>
      <component glyphName="R" x="0" y="0" flags="0x4"/>
    </TTGlyph>
    <TTGlyph name="Rcommaaccent" xMin="25" yMin="-257" xMax="479" yMax="739">
      <component glyphName="commaaccent" x="59" y="5" flags="0x4"/>
      <component glyphName="R" x="0" y="0" flags="0x4"/>
    </TTGlyph>
    <TTGlyph name="S" xMin="-4" yMin="-11" xMax="449" yMax="744">
      <contour>
        <pt x="412" y="623" on="1"/>
        <pt x="385" y="648" on="0"/>
        <pt x="325" y="675" on="0"/>
        <pt x="292" y="675" on="1"/>
        <pt x="263" y="675" on="0"/>
        <pt x="221" y="655" on="0"/>
        <pt x="194" y="622" on="0"/>
        <pt x="180" y="579" on="0"/>
        <pt x="180" y="557" on="1"/>
        <pt x="180" y="533" on="0"/>
        <pt x="195" y="491" on="0"/>
        <pt x="220" y="452" on="0"/>
        <pt x="252" y="415" on="0"/>
        <pt x="270" y="397" on="1"/>
        <pt x="291" y="375" on="0"/>
        <pt x="331" y="331" on="0"/>
        <pt x="362" y="282" on="0"/>
        <pt x="381" y="225" on="0"/>
        <pt x="381" y="190" on="1"/>
        <pt x="381" y="148" on="0"/>
        <pt x="353" y="74" on="0"/>
        <pt x="302" y="20" on="0"/>
        <pt x="230" y="-11" on="0"/>
        <pt x="187" y="-11" on="1"/>
        <pt x="125" y="-11" on="0"/>
        <pt x="31" y="38" on="0"/>
        <pt x="-4" y="70" on="1"/>
        <pt x="36" y="130" on="1"/>
        <pt x="71" y="98" on="0"/>
        <pt x="144" y="58" on="0"/>
        <pt x="187" y="58" on="1"/>
        <pt x="217" y="58" on="0"/>
        <pt x="261" y="78" on="0"/>
        <pt x="291" y="112" on="0"/>
        <pt x="306" y="158" on="0"/>
        <pt x="306" y="184" on="1"/>
        <pt x="306" y="211" on="0"/>
        <pt x="288" y="258" on="0"/>
        <pt x="259" y="300" on="0"/>
        <pt x="223" y="339" on="0"/>
        <pt x="205" y="358" on="1"/>
        <pt x="186" y="378" on="0"/>
        <pt x="150" y="419" on="0"/>
        <pt x="122" y="464" on="0"/>
        <pt x="105" y="517" on="0"/>
        <pt x="105" y="550" on="1"/>
        <pt x="105" y="590" on="0"/>
        <pt x="133" y="661" on="0"/>
        <pt x="184" y="713" on="0"/>
        <pt x="255" y="744" on="0"/>
        <pt x="297" y="744" on="1"/>
        <pt x="346" y="744" on="0"/>
        <pt x="424" y="706" on="0"/>
        <pt x="449" y="683" on="1"/>
      </contour>
    </TTGlyph>
    <TTGlyph name="Sacute" xMin="-4" yMin="-11" xMax="453" yMax="933">
      <component glyphName="acute" x="101" y="302" flags="0x4"/>
      <component glyphName="S" x="0" y="0" flags="0x4"/>
    </TTGlyph>
    <TTGlyph name="Scaron" xMin="-4" yMin="-11" xMax="466" yMax="929">
      <component glyphName="caron" x="57" y="302" flags="0x4"/>
      <component glyphName="S" x="0" y="0" flags="0x4"/>
    </TTGlyph>
    <TTGlyph name="Scedilla" xMin="-4" yMin="-204" xMax="449" yMax="744">
      <contour>
        <pt x="244" y="-119" on="1"/>
        <pt x="244" y="-156" on="0"/>
        <pt x="191" y="-204" on="0"/>
        <pt x="148" y="-204" on="1"/>
        <pt x="100" y="-204" on="0"/>
        <pt x="56" y="-175" on="1"/>
        <pt x="81" y="-134" on="1"/>
        <pt x="100" y="-147" on="0"/>
        <pt x="135" y="-158" on="0"/>
        <pt x="152" y="-158" on="1"/>
        <pt x="169" y="-158" on="0"/>
        <pt x="191" y="-138" on="0"/>
        <pt x="191" y="-123" on="1"/>
        <pt x="191" y="-109" on="0"/>
        <pt x="157" y="-83" on="0"/>
        <pt x="115" y="-81" on="1"/>
        <pt x="113" y="-74" on="1"/>
        <pt x="142" y="-7" on="1"/>
        <pt x="96" y="1" on="0"/>
        <pt x="24" y="44" on="0"/>
        <pt x="-4" y="70" on="1"/>
        <pt x="36" y="130" on="1"/>
        <pt x="71" y="98" on="0"/>
        <pt x="144" y="58" on="0"/>
        <pt x="187" y="58" on="1"/>
        <pt x="217" y="58" on="0"/>
        <pt x="261" y="78" on="0"/>
        <pt x="291" y="112" on="0"/>
        <pt x="306" y="158" on="0"/>
        <pt x="306" y="184" on="1"/>
        <pt x="306" y="211" on="0"/>
        <pt x="288" y="258" on="0"/>
        <pt x="259" y="300" on="0"/>
        <pt x="223" y="339" on="0"/>
        <pt x="205" y="358" on="1"/>
        <pt x="186" y="378" on="0"/>
        <pt x="150" y="419" on="0"/>
        <pt x="122" y="464" on="0"/>
        <pt x="105" y="517" on="0"/>
        <pt x="105" y="550" on="1"/>
        <pt x="105" y="590" on="0"/>
        <pt x="133" y="661" on="0"/>
        <pt x="184" y="713" on="0"/>
        <pt x="255" y="744" on="0"/>
        <pt x="297" y="744" on="1"/>
        <pt x="346" y="744" on="0"/>
        <pt x="424" y="706" on="0"/>
        <pt x="449" y="683" on="1"/>
        <pt x="412" y="623" on="1"/>
        <pt x="385" y="648" on="0"/>
        <pt x="325" y="675" on="0"/>
        <pt x="292" y="675" on="1"/>
        <pt x="263" y="675" on="0"/>
        <pt x="221" y="655" on="0"/>
        <pt x="194" y="622" on="0"/>
        <pt x="180" y="579" on="0"/>
        <pt x="180" y="557" on="1"/>
        <pt x="180" y="533" on="0"/>
        <pt x="195" y="491" on="0"/>
        <pt x="220" y="452" on="0"/>
        <pt x="252" y="415" on="0"/>
        <pt x="270" y="397" on="1"/>
        <pt x="291" y="375" on="0"/>
        <pt x="331" y="331" on="0"/>
        <pt x="362" y="282" on="0"/>
        <pt x="381" y="225" on="0"/>
        <pt x="381" y="190" on="1"/>
        <pt x="381" y="148" on="0"/>
        <pt x="353" y="74" on="0"/>
        <pt x="302" y="20" on="0"/>
        <pt x="230" y="-11" on="0"/>
        <pt x="187" y="-11" on="1"/>
        <pt x="185" y="-11" on="1"/>
        <pt x="171" y="-45" on="1"/>
        <pt x="211" y="-55" on="0"/>
        <pt x="244" y="-96" on="0"/>
      </contour>
    </TTGlyph>
    <TTGlyph name="Scommaaccent" xMin="-4" yMin="-262" xMax="449" yMax="744">
      <component glyphName="commaaccent" x="39" y="0" flags="0x4"/>
      <component glyphName="S" x="0" y="0" flags="0x4"/>
    </TTGlyph>
    <TTGlyph name="T" xMin="99" yMin="0" xMax="520" yMax="733">
      <contour>
        <pt x="507" y="664" on="1"/>
        <pt x="340" y="664" on="1"/>
        <pt x="218" y="0" on="1"/>
        <pt x="144" y="0" on="1"/>
        <pt x="266" y="664" on="1"/>
        <pt x="99" y="664" on="1"/>
        <pt x="112" y="733" on="1"/>
        <pt x="520" y="733" on="1"/>
      </contour>
    </TTGlyph>
    <TTGlyph name="Tcaron" xMin="99" yMin="0" xMax="520" yMax="924">
      <component glyphName="caron" x="74" y="297" flags="0x4"/>
      <component glyphName="T" x="0" y="0" flags="0x4"/>
    </TTGlyph>
    <TTGlyph name="Tcommaaccent" xMin="87" yMin="-262" xMax="521" yMax="733">
      <component glyphName="commaaccent" x="58" y="0" flags="0x4"/>
      <component glyphName="T" x="1" y="0" flags="0x4"/>
    </TTGlyph>
    <TTGlyph name="Thorn" xMin="25" yMin="0" xMax="457" yMax="733">
      <contour>
        <pt x="160" y="733" on="1"/>
        <pt x="234" y="733" on="1"/>
        <pt x="213" y="620" on="1"/>
        <pt x="218" y="621" on="0"/>
        <pt x="226" y="621" on="0"/>
        <pt x="231" y="621" on="1"/>
        <pt x="289" y="621" on="0"/>
        <pt x="375" y="588" on="0"/>
        <pt x="430" y="532" on="0"/>
        <pt x="457" y="458" on="0"/>
        <pt x="457" y="416" on="1"/>
        <pt x="457" y="362" on="0"/>
        <pt x="421" y="263" on="0"/>
        <pt x="350" y="186" on="0"/>
        <pt x="246" y="141" on="0"/>
        <pt x="177" y="141" on="1"/>
        <pt x="166" y="141" on="0"/>
        <pt x="137" y="143" on="0"/>
        <pt x="126" y="145" on="1"/>
        <pt x="98" y="0" on="1"/>
        <pt x="25" y="0" on="1"/>
      </contour>
      <contour>
        <pt x="381" y="409" on="1"/>
        <pt x="381" y="474" on="0"/>
        <pt x="310" y="554" on="0"/>
        <pt x="239" y="554" on="1"/>
        <pt x="216" y="554" on="0"/>
        <pt x="200" y="551" on="1"/>
        <pt x="138" y="212" on="1"/>
        <pt x="150" y="211" on="0"/>
        <pt x="174" y="209" on="0"/>
        <pt x="188" y="209" on="1"/>
        <pt x="237" y="209" on="0"/>
        <pt x="309" y="242" on="0"/>
        <pt x="357" y="297" on="0"/>
        <pt x="381" y="370" on="0"/>
      </contour>
    </TTGlyph>
    <TTGlyph name="U" xMin="57" yMin="-11" xMax="569" yMax="733">
      <contour>
        <pt x="475" y="220" on="1"/>
        <pt x="457" y="105" on="0"/>
        <pt x="337" y="-11" on="0"/>
        <pt x="241" y="-11" on="1"/>
        <pt x="200" y="-11" on="0"/>
        <pt x="132" y="13" on="0"/>
        <pt x="84" y="60" on="0"/>
        <pt x="57" y="127" on="0"/>
        <pt x="57" y="169" on="1"/>
        <pt x="57" y="184" on="0"/>
        <pt x="61" y="220" on="0"/>
        <pt x="64" y="236" on="1"/>
        <pt x="154" y="733" on="1"/>
        <pt x="228" y="733" on="1"/>
        <pt x="136" y="231" on="1"/>
        <pt x="134" y="217" on="0"/>
        <pt x="131" y="185" on="0"/>
        <pt x="131" y="174" on="1"/>
        <pt x="131" y="115" on="0"/>
        <pt x="194" y="54" on="0"/>
        <pt x="251" y="54" on="1"/>
        <pt x="308" y="54" on="0"/>
        <pt x="384" y="129" on="0"/>
        <pt x="401" y="221" on="1"/>
        <pt x="495" y="733" on="1"/>
        <pt x="569" y="733" on="1"/>
      </contour>
    </TTGlyph>
    <TTGlyph name="Uacute" xMin="57" yMin="-11" xMax="569" yMax="921">
      <component glyphName="acute" x="160" y="290" flags="0x4"/>
      <component glyphName="U" x="0" y="0" flags="0x4"/>
    </TTGlyph>
    <TTGlyph name="Ubreve" xMin="57" yMin="-11" xMax="569" yMax="897">
      <component glyphName="U" x="0" y="0" flags="0x204"/>
      <component glyphName="breve" x="114" y="290" flags="0x4"/>
    </TTGlyph>
    <TTGlyph name="Ucircumflex" xMin="57" yMin="-11" xMax="569" yMax="920">
      <component glyphName="circumflex" x="105" y="290" flags="0x4"/>
      <component glyphName="U" x="0" y="0" flags="0x4"/>
    </TTGlyph>
    <TTGlyph name="Udieresis" xMin="57" yMin="-11" xMax="569" yMax="871">
      <component glyphName="dieresis" x="112" y="290" flags="0x4"/>
      <component glyphName="U" x="0" y="0" flags="0x4"/>
    </TTGlyph>
    <TTGlyph name="Ugrave" xMin="57" yMin="-11" xMax="569" yMax="921">
      <component glyphName="U" x="0" y="0" flags="0x204"/>
      <component glyphName="grave" x="50" y="290" flags="0x4"/>
    </TTGlyph>
    <TTGlyph name="Uhungarumlaut" xMin="57" yMin="-11" xMax="569" yMax="956">
      <component glyphName="U" x="0" y="0" flags="0x204"/>
      <component glyphName="hungarumlaut" x="147" y="290" flags="0x4"/>
    </TTGlyph>
    <TTGlyph name="Umacron" xMin="57" yMin="-11" xMax="569" yMax="849">
      <component glyphName="U" x="0" y="0" flags="0x204"/>
      <component glyphName="macron" x="112" y="290" flags="0x4"/>
    </TTGlyph>
    <TTGlyph name="Uogonek" xMin="57" yMin="-202" xMax="569" yMax="733">
      <contour>
        <pt x="475" y="220" on="1"/>
        <pt x="458" y="111" on="0"/>
        <pt x="349" y="-4" on="0"/>
        <pt x="262" y="-10" on="1"/>
        <pt x="250" y="-22" on="0"/>
        <pt x="227" y="-49" on="0"/>
        <pt x="208" y="-77" on="0"/>
        <pt x="196" y="-108" on="0"/>
        <pt x="196" y="-123" on="1"/>
        <pt x="196" y="-151" on="0"/>
        <pt x="219" y="-151" on="1"/>
        <pt x="237" y="-151" on="0"/>
        <pt x="258" y="-133" on="1"/>
        <pt x="277" y="-167" on="1"/>
        <pt x="259" y="-184" on="0"/>
        <pt x="223" y="-201" on="0"/>
        <pt x="200" y="-201" on="1"/>
        <pt x="171" y="-202" on="0"/>
        <pt x="138" y="-168" on="0"/>
        <pt x="138" y="-140" on="1"/>
        <pt x="138" y="-104" on="0"/>
        <pt x="177" y="-41" on="0"/>
        <pt x="209" y="-9" on="1"/>
        <pt x="140" y="0" on="0"/>
        <pt x="57" y="92" on="0"/>
        <pt x="57" y="169" on="1"/>
        <pt x="57" y="184" on="0"/>
        <pt x="61" y="220" on="0"/>
        <pt x="64" y="236" on="1"/>
        <pt x="154" y="733" on="1"/>
        <pt x="228" y="733" on="1"/>
        <pt x="136" y="231" on="1"/>
        <pt x="134" y="217" on="0"/>
        <pt x="131" y="185" on="0"/>
        <pt x="131" y="174" on="1"/>
        <pt x="131" y="115" on="0"/>
        <pt x="194" y="54" on="0"/>
        <pt x="251" y="54" on="1"/>
        <pt x="308" y="54" on="0"/>
        <pt x="384" y="129" on="0"/>
        <pt x="401" y="221" on="1"/>
        <pt x="495" y="733" on="1"/>
        <pt x="569" y="733" on="1"/>
      </contour>
    </TTGlyph>
    <TTGlyph name="Uring" xMin="57" yMin="-11" xMax="569" yMax="964">
      <component glyphName="ring" x="109" y="290" flags="0x4"/>
      <component glyphName="U" x="0" y="0" flags="0x4"/>
    </TTGlyph>
    <TTGlyph name="V" xMin="103" yMin="-10" xMax="586" yMax="733">
      <contour>
        <pt x="217" y="-10" on="1"/>
        <pt x="192" y="-10" on="1"/>
        <pt x="103" y="733" on="1"/>
        <pt x="178" y="733" on="1"/>
        <pt x="239" y="171" on="1"/>
        <pt x="505" y="733" on="1"/>
        <pt x="586" y="733" on="1"/>
      </contour>
    </TTGlyph>
    <TTGlyph name="W" xMin="108" yMin="-8" xMax="785" yMax="736">
      <contour>
        <pt x="487" y="-7" on="1"/>
        <pt x="461" y="-8" on="1"/>
        <pt x="408" y="545" on="1"/>
        <pt x="138" y="-8" on="1"/>
        <pt x="111" y="-7" on="1"/>
        <pt x="108" y="733" on="1"/>
        <pt x="183" y="733" on="1"/>
        <pt x="179" y="212" on="1"/>
        <pt x="432" y="736" on="1"/>
        <pt x="456" y="736" on="1"/>
        <pt x="507" y="209" on="1"/>
        <pt x="704" y="733" on="1"/>
        <pt x="785" y="733" on="1"/>
      </contour>
    </TTGlyph>
    <TTGlyph name="Wacute" xMin="108" yMin="-8" xMax="785" yMax="928">
      <component glyphName="acute" x="241" y="297" flags="0x4"/>
      <component glyphName="W" x="0" y="0" flags="0x4"/>
    </TTGlyph>
    <TTGlyph name="Wcircumflex" xMin="108" yMin="-8" xMax="785" yMax="927">
      <component glyphName="circumflex" x="187" y="297" flags="0x4"/>
      <component glyphName="W" x="0" y="0" flags="0x4"/>
    </TTGlyph>
    <TTGlyph name="Wdieresis" xMin="108" yMin="-8" xMax="785" yMax="878">
      <component glyphName="dieresis" x="194" y="297" flags="0x4"/>
      <component glyphName="W" x="0" y="0" flags="0x4"/>
    </TTGlyph>
    <TTGlyph name="Wgrave" xMin="108" yMin="-8" xMax="785" yMax="928">
      <component glyphName="W" x="0" y="0" flags="0x204"/>
      <component glyphName="grave" x="131" y="297" flags="0x4"/>
    </TTGlyph>
    <TTGlyph name="X" xMin="-33" yMin="0" xMax="563" yMax="733">
      <contour>
        <pt x="309" y="366" on="1"/>
        <pt x="430" y="0" on="1"/>
        <pt x="352" y="0" on="1"/>
        <pt x="257" y="307" on="1"/>
        <pt x="52" y="0" on="1"/>
        <pt x="-33" y="0" on="1"/>
        <pt x="227" y="373" on="1"/>
        <pt x="106" y="733" on="1"/>
        <pt x="183" y="733" on="1"/>
        <pt x="279" y="431" on="1"/>
        <pt x="479" y="733" on="1"/>
        <pt x="563" y="733" on="1"/>
      </contour>
    </TTGlyph>
    <TTGlyph name="Y" xMin="98" yMin="0" xMax="553" yMax="733">
      <contour>
        <pt x="284" y="301" on="1"/>
        <pt x="229" y="0" on="1"/>
        <pt x="154" y="0" on="1"/>
        <pt x="210" y="303" on="1"/>
        <pt x="98" y="733" on="1"/>
        <pt x="171" y="733" on="1"/>
        <pt x="260" y="379" on="1"/>
        <pt x="470" y="733" on="1"/>
        <pt x="553" y="733" on="1"/>
      </contour>
    </TTGlyph>
    <TTGlyph name="Yacute" xMin="98" yMin="0" xMax="553" yMax="921">
      <component glyphName="Y" x="0" y="0" flags="0x204"/>
      <component glyphName="acute" x="128" y="290" flags="0x4"/>
    </TTGlyph>
    <TTGlyph name="Ycircumflex" xMin="98" yMin="0" xMax="553" yMax="920">
      <component glyphName="Y" x="0" y="0" flags="0x204"/>
      <component glyphName="circumflex" x="72" y="290" flags="0x4"/>
    </TTGlyph>
    <TTGlyph name="Ydieresis" xMin="98" yMin="0" xMax="553" yMax="871">
      <component glyphName="Y" x="0" y="0" flags="0x204"/>
      <component glyphName="dieresis" x="79" y="290" flags="0x4"/>
    </TTGlyph>
    <TTGlyph name="Ygrave" xMin="98" yMin="0" xMax="553" yMax="921">
      <component glyphName="Y" x="0" y="0" flags="0x204"/>
      <component glyphName="grave" x="17" y="290" flags="0x4"/>
    </TTGlyph>
    <TTGlyph name="Z" xMin="-14" yMin="0" xMax="522" yMax="733">
      <contour>
        <pt x="103" y="69" on="1"/>
        <pt x="399" y="69" on="1"/>
        <pt x="386" y="0" on="1"/>
        <pt x="-11" y="0" on="1"/>
        <pt x="-14" y="11" on="1"/>
        <pt x="405" y="664" on="1"/>
        <pt x="125" y="664" on="1"/>
        <pt x="138" y="733" on="1"/>
        <pt x="519" y="733" on="1"/>
        <pt x="522" y="721" on="1"/>
      </contour>
    </TTGlyph>
    <TTGlyph name="Zacute" xMin="-14" yMin="0" xMax="522" yMax="928">
      <component glyphName="acute" x="122" y="297" flags="0x4"/>
      <component glyphName="Z" x="0" y="0" flags="0x4"/>
    </TTGlyph>
    <TTGlyph name="Zcaron" xMin="-14" yMin="0" xMax="522" yMax="924">
      <component glyphName="caron" x="77" y="297" flags="0x4"/>
      <component glyphName="Z" x="0" y="0" flags="0x4"/>
    </TTGlyph>
    <TTGlyph name="Zdotaccent" xMin="-14" yMin="0" xMax="522" yMax="878">
      <component glyphName="Z" x="0" y="0" flags="0x204"/>
      <component glyphName="dotaccent" x="72" y="297" flags="0x4"/>
    </TTGlyph>
    <TTGlyph name="a" xMin="11" yMin="-9" xMax="338" yMax="445">
      <contour>
        <pt x="338" y="331" on="1"/>
        <pt x="338" y="320" on="0"/>
        <pt x="335" y="290" on="0"/>
        <pt x="332" y="276" on="1"/>
        <pt x="281" y="0" on="1"/>
        <pt x="213" y="0" on="1"/>
        <pt x="221" y="45" on="1"/>
        <pt x="204" y="25" on="0"/>
        <pt x="151" y="-9" on="0"/>
        <pt x="116" y="-9" on="1"/>
        <pt x="95" y="-9" on="0"/>
        <pt x="57" y="6" on="0"/>
        <pt x="28" y="36" on="0"/>
        <pt x="11" y="80" on="0"/>
        <pt x="11" y="109" on="1"/>
        <pt x="11" y="141" on="0"/>
        <pt x="32" y="199" on="0"/>
        <pt x="70" y="244" on="0"/>
        <pt x="124" y="271" on="0"/>
        <pt x="157" y="271" on="1"/>
        <pt x="188" y="271" on="0"/>
        <pt x="236" y="248" on="0"/>
        <pt x="253" y="231" on="1"/>
        <pt x="261" y="278" on="1"/>
        <pt x="263" y="284" on="0"/>
        <pt x="266" y="308" on="0"/>
        <pt x="266" y="317" on="1"/>
        <pt x="266" y="346" on="0"/>
        <pt x="230" y="379" on="0"/>
        <pt x="198" y="379" on="1"/>
        <pt x="158" y="379" on="0"/>
        <pt x="108" y="357" on="1"/>
        <pt x="100" y="420" on="1"/>
        <pt x="120" y="428" on="0"/>
        <pt x="182" y="445" on="0"/>
        <pt x="214" y="445" on="1"/>
        <pt x="238" y="445" on="0"/>
        <pt x="282" y="434" on="0"/>
        <pt x="316" y="407" on="0"/>
        <pt x="338" y="363" on="0"/>
      </contour>
      <contour>
        <pt x="243" y="177" on="1"/>
        <pt x="229" y="194" on="0"/>
        <pt x="188" y="216" on="0"/>
        <pt x="163" y="216" on="1"/>
        <pt x="127" y="216" on="0"/>
        <pt x="80" y="159" on="0"/>
        <pt x="80" y="117" on="1"/>
        <pt x="80" y="89" on="0"/>
        <pt x="109" y="50" on="0"/>
        <pt x="141" y="50" on="1"/>
        <pt x="167" y="50" on="0"/>
        <pt x="211" y="78" on="0"/>
        <pt x="229" y="98" on="1"/>
      </contour>
    </TTGlyph>
    <TTGlyph name="aacute" xMin="11" yMin="-9" xMax="380" yMax="631">
      <component glyphName="a" x="0" y="0" flags="0x204"/>
      <component glyphName="acute" x="28" y="0" flags="0x4"/>
    </TTGlyph>
    <TTGlyph name="abreve" xMin="11" yMin="-9" xMax="373" yMax="607">
      <component glyphName="a" x="0" y="0" flags="0x204"/>
      <component glyphName="breve" x="-15" y="0" flags="0x4"/>
    </TTGlyph>
    <TTGlyph name="acircumflex" xMin="11" yMin="-9" xMax="362" yMax="630">
      <component glyphName="a" x="0" y="0" flags="0x204"/>
      <component glyphName="circumflex" x="-24" y="0" flags="0x4"/>
    </TTGlyph>
    <TTGlyph name="acute" xMin="167" yMin="484" xMax="352" yMax="631">
      <contour>
        <pt x="187" y="484" on="1"/>
        <pt x="167" y="520" on="1"/>
        <pt x="316" y="631" on="1"/>
        <pt x="352" y="565" on="1"/>
      </contour>
    </TTGlyph>
    <TTGlyph name="adieresis" xMin="11" yMin="-9" xMax="361" yMax="581">
      <component glyphName="a" x="0" y="0" flags="0x204"/>
      <component glyphName="dieresis" x="-18" y="0" flags="0x4"/>
    </TTGlyph>
    <TTGlyph name="ae" xMin="11" yMin="-10" xMax="576" yMax="445">
      <contour>
        <pt x="127" y="-10" on="1"/>
        <pt x="104" y="-10" on="0"/>
        <pt x="62" y="5" on="0"/>
        <pt x="30" y="35" on="0"/>
        <pt x="11" y="79" on="0"/>
        <pt x="11" y="109" on="1"/>
        <pt x="11" y="141" on="0"/>
        <pt x="32" y="199" on="0"/>
        <pt x="70" y="244" on="0"/>
        <pt x="124" y="271" on="0"/>
        <pt x="157" y="271" on="1"/>
        <pt x="188" y="271" on="0"/>
        <pt x="236" y="248" on="0"/>
        <pt x="253" y="231" on="1"/>
        <pt x="262" y="279" on="1"/>
        <pt x="264" y="287" on="0"/>
        <pt x="266" y="308" on="0"/>
        <pt x="266" y="316" on="1"/>
        <pt x="266" y="348" on="0"/>
        <pt x="230" y="379" on="0"/>
        <pt x="198" y="379" on="1"/>
        <pt x="159" y="379" on="0"/>
        <pt x="108" y="358" on="1"/>
        <pt x="100" y="419" on="1"/>
        <pt x="120" y="428" on="0"/>
        <pt x="182" y="445" on="0"/>
        <pt x="214" y="445" on="1"/>
        <pt x="250" y="445" on="0"/>
        <pt x="309" y="415" on="0"/>
        <pt x="320" y="375" on="1"/>
        <pt x="346" y="408" on="0"/>
        <pt x="413" y="445" on="0"/>
        <pt x="452" y="445" on="1"/>
        <pt x="514" y="445" on="0"/>
        <pt x="576" y="360" on="0"/>
        <pt x="576" y="294" on="1"/>
        <pt x="576" y="253" on="0"/>
        <pt x="561" y="198" on="1"/>
        <pt x="318" y="198" on="1"/>
        <pt x="316" y="190" on="0"/>
        <pt x="316" y="172" on="0"/>
        <pt x="316" y="161" on="1"/>
        <pt x="316" y="108" on="0"/>
        <pt x="366" y="52" on="0"/>
        <pt x="412" y="52" on="1"/>
        <pt x="430" y="52" on="0"/>
        <pt x="475" y="64" on="0"/>
        <pt x="496" y="74" on="1"/>
        <pt x="509" y="16" on="1"/>
        <pt x="484" y="3" on="0"/>
        <pt x="435" y="-10" on="0"/>
        <pt x="402" y="-10" on="1"/>
        <pt x="358" y="-10" on="0"/>
        <pt x="281" y="31" on="0"/>
        <pt x="264" y="79" on="1"/>
        <pt x="254" y="62" on="0"/>
        <pt x="228" y="30" on="0"/>
        <pt x="193" y="5" on="0"/>
        <pt x="152" y="-10" on="0"/>
      </contour>
      <contour>
        <pt x="141" y="49" on="1"/>
        <pt x="154" y="49" on="0"/>
        <pt x="184" y="62" on="0"/>
        <pt x="213" y="92" on="0"/>
        <pt x="237" y="141" on="0"/>
        <pt x="243" y="177" on="1"/>
        <pt x="229" y="194" on="0"/>
        <pt x="188" y="216" on="0"/>
        <pt x="163" y="216" on="1"/>
        <pt x="127" y="216" on="0"/>
        <pt x="80" y="158" on="0"/>
        <pt x="80" y="116" on="1"/>
        <pt x="80" y="88" on="0"/>
        <pt x="109" y="49" on="0"/>
      </contour>
      <contour>
        <pt x="502" y="253" on="1"/>
        <pt x="505" y="264" on="0"/>
        <pt x="508" y="296" on="0"/>
        <pt x="508" y="307" on="1"/>
        <pt x="508" y="339" on="0"/>
        <pt x="478" y="383" on="0"/>
        <pt x="447" y="383" on="1"/>
        <pt x="428" y="383" on="0"/>
        <pt x="392" y="363" on="0"/>
        <pt x="362" y="327" on="0"/>
        <pt x="338" y="280" on="0"/>
        <pt x="330" y="253" on="1"/>
      </contour>
    </TTGlyph>
    <TTGlyph name="aeacute" xMin="11" yMin="-10" xMax="576" yMax="631">
      <component glyphName="acute" x="134" y="0" flags="0x4"/>
      <component glyphName="ae" x="0" y="0" flags="0x4"/>
    </TTGlyph>
    <TTGlyph name="agrave" xMin="11" yMin="-9" xMax="338" yMax="631">
      <component glyphName="a" x="0" y="0" flags="0x204"/>
      <component glyphName="grave" x="-80" y="0" flags="0x4"/>
    </TTGlyph>
    <TTGlyph name="amacron" xMin="11" yMin="-9" xMax="371" yMax="559">
      <component glyphName="a" x="0" y="0" flags="0x204"/>
      <component glyphName="macron" x="-18" y="0" flags="0x4"/>
    </TTGlyph>
    <TTGlyph name="ampersand" xMin="24" yMin="-14" xMax="486" yMax="672">
      <contour>
        <pt x="486" y="280" on="1"/>
        <pt x="460" y="231" on="0"/>
        <pt x="405" y="147" on="0"/>
        <pt x="378" y="112" on="1"/>
        <pt x="394" y="86" on="0"/>
        <pt x="423" y="42" on="0"/>
        <pt x="437" y="25" on="1"/>
        <pt x="383" y="-14" on="1"/>
        <pt x="379" y="-11" on="0"/>
        <pt x="364" y="10" on="0"/>
        <pt x="348" y="34" on="0"/>
        <pt x="332" y="55" on="0"/>
        <pt x="328" y="60" on="1"/>
        <pt x="291" y="26" on="0"/>
        <pt x="214" y="-11" on="0"/>
        <pt x="171" y="-11" on="1"/>
        <pt x="138" y="-11" on="0"/>
        <pt x="83" y="12" on="0"/>
        <pt x="45" y="53" on="0"/>
        <pt x="24" y="108" on="0"/>
        <pt x="24" y="141" on="1"/>
        <pt x="24" y="276" on="0"/>
        <pt x="181" y="361" on="1"/>
        <pt x="173" y="388" on="0"/>
        <pt x="164" y="446" on="0"/>
        <pt x="164" y="476" on="1"/>
        <pt x="164" y="513" on="0"/>
        <pt x="186" y="584" on="0"/>
        <pt x="226" y="639" on="0"/>
        <pt x="283" y="672" on="0"/>
        <pt x="318" y="672" on="1"/>
        <pt x="346" y="672" on="0"/>
        <pt x="390" y="650" on="0"/>
        <pt x="418" y="614" on="0"/>
        <pt x="433" y="569" on="0"/>
        <pt x="433" y="546" on="1"/>
        <pt x="433" y="507" on="0"/>
        <pt x="406" y="439" on="0"/>
        <pt x="361" y="384" on="0"/>
        <pt x="300" y="340" on="0"/>
        <pt x="266" y="324" on="1"/>
        <pt x="281" y="285" on="0"/>
        <pt x="320" y="207" on="0"/>
        <pt x="342" y="169" on="1"/>
        <pt x="392" y="233" on="0"/>
        <pt x="437" y="318" on="1"/>
      </contour>
      <contour>
        <pt x="294" y="114" on="1"/>
        <pt x="266" y="159" on="0"/>
        <pt x="219" y="254" on="0"/>
        <pt x="202" y="300" on="1"/>
        <pt x="154" y="277" on="0"/>
        <pt x="94" y="201" on="0"/>
        <pt x="94" y="148" on="1"/>
        <pt x="94" y="109" on="0"/>
        <pt x="136" y="55" on="0"/>
        <pt x="179" y="55" on="1"/>
        <pt x="207" y="55" on="0"/>
        <pt x="265" y="85" on="0"/>
      </contour>
      <contour>
        <pt x="366" y="544" on="1"/>
        <pt x="366" y="573" on="0"/>
        <pt x="339" y="611" on="0"/>
        <pt x="313" y="611" on="1"/>
        <pt x="294" y="611" on="0"/>
        <pt x="264" y="586" on="0"/>
        <pt x="243" y="547" on="0"/>
        <pt x="232" y="498" on="0"/>
        <pt x="232" y="473" on="1"/>
        <pt x="232" y="449" on="0"/>
        <pt x="239" y="405" on="0"/>
        <pt x="247" y="381" on="1"/>
        <pt x="366" y="446" on="0"/>
      </contour>
    </TTGlyph>
    <TTGlyph name="ampersand.cap" xMin="23" yMin="-11" xMax="540" yMax="737">
      <contour>
        <pt x="540" y="306" on="1"/>
        <pt x="511" y="255" on="0"/>
        <pt x="446" y="160" on="0"/>
        <pt x="414" y="121" on="1"/>
        <pt x="452" y="63" on="0"/>
        <pt x="483" y="29" on="1"/>
        <pt x="429" y="-11" on="1"/>
        <pt x="424" y="-7" on="0"/>
        <pt x="407" y="14" on="0"/>
        <pt x="388" y="40" on="0"/>
        <pt x="370" y="64" on="0"/>
        <pt x="364" y="70" on="1"/>
        <pt x="277" y="-8" on="0"/>
        <pt x="186" y="-8" on="1"/>
        <pt x="149" y="-8" on="0"/>
        <pt x="89" y="17" on="0"/>
        <pt x="46" y="60" on="0"/>
        <pt x="23" y="121" on="0"/>
        <pt x="23" y="157" on="1"/>
        <pt x="23" y="235" on="0"/>
        <pt x="114" y="353" on="0"/>
        <pt x="200" y="395" on="1"/>
        <pt x="192" y="424" on="0"/>
        <pt x="180" y="486" on="0"/>
        <pt x="180" y="521" on="1"/>
        <pt x="180" y="562" on="0"/>
        <pt x="203" y="640" on="0"/>
        <pt x="246" y="700" on="0"/>
        <pt x="309" y="737" on="0"/>
        <pt x="349" y="737" on="1"/>
        <pt x="382" y="737" on="0"/>
        <pt x="432" y="713" on="0"/>
        <pt x="464" y="674" on="0"/>
        <pt x="480" y="623" on="0"/>
        <pt x="480" y="597" on="1"/>
        <pt x="480" y="552" on="0"/>
        <pt x="448" y="478" on="0"/>
        <pt x="395" y="418" on="0"/>
        <pt x="325" y="372" on="0"/>
        <pt x="287" y="356" on="1"/>
        <pt x="304" y="311" on="0"/>
        <pt x="352" y="219" on="0"/>
        <pt x="378" y="177" on="1"/>
        <pt x="408" y="213" on="0"/>
        <pt x="466" y="299" on="0"/>
        <pt x="491" y="344" on="1"/>
      </contour>
      <contour>
        <pt x="330" y="123" on="1"/>
        <pt x="299" y="171" on="0"/>
        <pt x="241" y="279" on="0"/>
        <pt x="221" y="333" on="1"/>
        <pt x="164" y="308" on="0"/>
        <pt x="96" y="223" on="0"/>
        <pt x="96" y="165" on="1"/>
        <pt x="96" y="143" on="0"/>
        <pt x="108" y="104" on="0"/>
        <pt x="133" y="75" on="0"/>
        <pt x="170" y="58" on="0"/>
        <pt x="195" y="58" on="1"/>
        <pt x="227" y="58" on="0"/>
        <pt x="295" y="90" on="0"/>
      </contour>
      <contour>
        <pt x="268" y="416" on="1"/>
        <pt x="334" y="448" on="0"/>
        <pt x="411" y="539" on="0"/>
        <pt x="411" y="597" on="1"/>
        <pt x="411" y="631" on="0"/>
        <pt x="377" y="676" on="0"/>
        <pt x="348" y="676" on="1"/>
        <pt x="325" y="676" on="0"/>
        <pt x="288" y="649" on="0"/>
        <pt x="263" y="604" on="0"/>
        <pt x="250" y="547" on="0"/>
        <pt x="250" y="518" on="1"/>
        <pt x="250" y="490" on="0"/>
        <pt x="260" y="440" on="0"/>
      </contour>
    </TTGlyph>
    <TTGlyph name="aogonek" xMin="11" yMin="-202" xMax="338" yMax="445">
      <contour>
        <pt x="268" y="-167" on="1"/>
        <pt x="250" y="-184" on="0"/>
        <pt x="215" y="-201" on="0"/>
        <pt x="192" y="-201" on="1"/>
        <pt x="163" y="-202" on="0"/>
        <pt x="129" y="-168" on="0"/>
        <pt x="129" y="-140" on="1"/>
        <pt x="129" y="-101" on="0"/>
        <pt x="175" y="-33" on="0"/>
        <pt x="213" y="2" on="1"/>
        <pt x="221" y="45" on="1"/>
        <pt x="204" y="25" on="0"/>
        <pt x="151" y="-9" on="0"/>
        <pt x="116" y="-9" on="1"/>
        <pt x="95" y="-9" on="0"/>
        <pt x="57" y="6" on="0"/>
        <pt x="28" y="36" on="0"/>
        <pt x="11" y="80" on="0"/>
        <pt x="11" y="109" on="1"/>
        <pt x="11" y="141" on="0"/>
        <pt x="32" y="199" on="0"/>
        <pt x="70" y="244" on="0"/>
        <pt x="124" y="271" on="0"/>
        <pt x="157" y="271" on="1"/>
        <pt x="188" y="271" on="0"/>
        <pt x="236" y="248" on="0"/>
        <pt x="253" y="231" on="1"/>
        <pt x="261" y="278" on="1"/>
        <pt x="263" y="284" on="0"/>
        <pt x="266" y="308" on="0"/>
        <pt x="266" y="317" on="1"/>
        <pt x="266" y="346" on="0"/>
        <pt x="230" y="379" on="0"/>
        <pt x="198" y="379" on="1"/>
        <pt x="158" y="379" on="0"/>
        <pt x="108" y="357" on="1"/>
        <pt x="100" y="420" on="1"/>
        <pt x="120" y="428" on="0"/>
        <pt x="182" y="445" on="0"/>
        <pt x="214" y="445" on="1"/>
        <pt x="238" y="445" on="0"/>
        <pt x="282" y="434" on="0"/>
        <pt x="316" y="407" on="0"/>
        <pt x="338" y="363" on="0"/>
        <pt x="338" y="331" on="1"/>
        <pt x="338" y="320" on="0"/>
        <pt x="335" y="290" on="0"/>
        <pt x="332" y="276" on="1"/>
        <pt x="281" y="0" on="1"/>
        <pt x="264" y="0" on="1"/>
        <pt x="251" y="-12" on="0"/>
        <pt x="224" y="-41" on="0"/>
        <pt x="201" y="-73" on="0"/>
        <pt x="187" y="-106" on="0"/>
        <pt x="187" y="-123" on="1"/>
        <pt x="187" y="-151" on="0"/>
        <pt x="210" y="-151" on="1"/>
        <pt x="229" y="-151" on="0"/>
        <pt x="250" y="-133" on="1"/>
      </contour>
      <contour>
        <pt x="243" y="177" on="1"/>
        <pt x="229" y="194" on="0"/>
        <pt x="188" y="216" on="0"/>
        <pt x="163" y="216" on="1"/>
        <pt x="127" y="216" on="0"/>
        <pt x="80" y="159" on="0"/>
        <pt x="80" y="117" on="1"/>
        <pt x="80" y="89" on="0"/>
        <pt x="109" y="50" on="0"/>
        <pt x="141" y="50" on="1"/>
        <pt x="167" y="50" on="0"/>
        <pt x="211" y="78" on="0"/>
        <pt x="229" y="98" on="1"/>
      </contour>
    </TTGlyph>
    <TTGlyph name="aring" xMin="11" yMin="-9" xMax="351" yMax="674">
      <component glyphName="a" x="0" y="0" flags="0x204"/>
      <component glyphName="ring" x="-20" y="0" flags="0x4"/>
    </TTGlyph>
    <TTGlyph name="aringacute" xMin="11" yMin="-9" xMax="423" yMax="860">
      <component glyphName="a" x="0" y="0" flags="0x204"/>
      <component glyphName="acute" x="71" y="229" flags="0x4"/>
      <component glyphName="ring" x="-20" y="0" flags="0x4"/>
    </TTGlyph>
    <TTGlyph name="arrowleft" xMin="31" yMin="33" xMax="523" yMax="480">
      <contour>
        <pt x="136" y="224" on="1"/>
        <pt x="250" y="76" on="1"/>
        <pt x="197" y="33" on="1"/>
        <pt x="31" y="251" on="1"/>
        <pt x="34" y="263" on="1"/>
        <pt x="279" y="480" on="1"/>
        <pt x="322" y="432" on="1"/>
        <pt x="158" y="290" on="1"/>
        <pt x="523" y="290" on="1"/>
        <pt x="511" y="224" on="1"/>
      </contour>
    </TTGlyph>
    <TTGlyph name="arrowleft.cap" xMin="52" yMin="147" xMax="544" yMax="594">
      <component glyphName="arrowleft" x="21" y="114" flags="0x204"/>
    </TTGlyph>
    <TTGlyph name="arrowright" xMin="40" yMin="33" xMax="531" yMax="480">
      <contour>
        <pt x="426" y="290" on="1"/>
        <pt x="313" y="438" on="1"/>
        <pt x="366" y="480" on="1"/>
        <pt x="531" y="263" on="1"/>
        <pt x="528" y="251" on="1"/>
        <pt x="283" y="33" on="1"/>
        <pt x="240" y="82" on="1"/>
        <pt x="404" y="224" on="1"/>
        <pt x="40" y="224" on="1"/>
        <pt x="52" y="290" on="1"/>
      </contour>
    </TTGlyph>
    <TTGlyph name="arrowright.cap" xMin="61" yMin="147" xMax="552" yMax="594">
      <component glyphName="arrowright" x="21" y="114" flags="0x204"/>
    </TTGlyph>
    <TTGlyph name="asciicircum" xMin="139" yMin="536" xMax="393" yMax="674">
      <contour>
        <pt x="326" y="536" on="1"/>
        <pt x="282" y="609" on="1"/>
        <pt x="212" y="536" on="1"/>
        <pt x="139" y="536" on="1"/>
        <pt x="279" y="674" on="1"/>
        <pt x="304" y="674" on="1"/>
        <pt x="393" y="536" on="1"/>
      </contour>
    </TTGlyph>
    <TTGlyph name="asciitilde" xMin="92" yMin="246" xMax="351" yMax="334">
      <contour>
        <pt x="351" y="296" on="1"/>
        <pt x="310" y="246" on="0"/>
        <pt x="264" y="246" on="1"/>
        <pt x="249" y="246" on="0"/>
        <pt x="223" y="257" on="0"/>
        <pt x="212" y="264" on="1"/>
        <pt x="201" y="271" on="0"/>
        <pt x="182" y="280" on="0"/>
        <pt x="171" y="280" on="1"/>
        <pt x="157" y="280" on="0"/>
        <pt x="135" y="264" on="0"/>
        <pt x="122" y="248" on="1"/>
        <pt x="92" y="287" on="1"/>
        <pt x="112" y="310" on="0"/>
        <pt x="155" y="334" on="0"/>
        <pt x="176" y="334" on="1"/>
        <pt x="191" y="334" on="0"/>
        <pt x="215" y="324" on="0"/>
        <pt x="226" y="317" on="1"/>
        <pt x="238" y="310" on="0"/>
        <pt x="259" y="300" on="0"/>
        <pt x="270" y="300" on="1"/>
        <pt x="284" y="300" on="0"/>
        <pt x="307" y="317" on="0"/>
        <pt x="322" y="334" on="1"/>
      </contour>
    </TTGlyph>
    <TTGlyph name="asterisk" xMin="98" yMin="497" xMax="332" yMax="734">
      <contour>
        <pt x="246" y="595" on="1"/>
        <pt x="288" y="517" on="1"/>
        <pt x="239" y="497" on="1"/>
        <pt x="206" y="577" on="1"/>
        <pt x="147" y="514" on="1"/>
        <pt x="109" y="550" on="1"/>
        <pt x="176" y="608" on="1"/>
        <pt x="98" y="647" on="1"/>
        <pt x="124" y="691" on="1"/>
        <pt x="196" y="646" on="1"/>
        <pt x="208" y="734" on="1"/>
        <pt x="261" y="724" on="1"/>
        <pt x="240" y="638" on="1"/>
        <pt x="324" y="653" on="1"/>
        <pt x="332" y="603" on="1"/>
      </contour>
    </TTGlyph>
    <TTGlyph name="at" xMin="57" yMin="-12" xMax="578" yMax="676">
      <contour>
        <pt x="578" y="434" on="1"/>
        <pt x="578" y="385" on="0"/>
        <pt x="555" y="289" on="0"/>
        <pt x="516" y="213" on="0"/>
        <pt x="462" y="166" on="0"/>
        <pt x="431" y="166" on="1"/>
        <pt x="408" y="166" on="0"/>
        <pt x="375" y="192" on="0"/>
        <pt x="369" y="216" on="1"/>
        <pt x="348" y="192" on="0"/>
        <pt x="304" y="168" on="0"/>
        <pt x="278" y="168" on="1"/>
        <pt x="243" y="168" on="0"/>
        <pt x="199" y="211" on="0"/>
        <pt x="199" y="249" on="1"/>
        <pt x="199" y="270" on="0"/>
        <pt x="212" y="311" on="0"/>
        <pt x="238" y="342" on="0"/>
        <pt x="273" y="361" on="0"/>
        <pt x="296" y="361" on="1"/>
        <pt x="321" y="361" on="0"/>
        <pt x="353" y="345" on="0"/>
        <pt x="367" y="333" on="1"/>
        <pt x="372" y="360" on="0"/>
        <pt x="375" y="384" on="0"/>
        <pt x="375" y="390" on="1"/>
        <pt x="375" y="412" on="0"/>
        <pt x="345" y="433" on="0"/>
        <pt x="319" y="433" on="1"/>
        <pt x="306" y="433" on="0"/>
        <pt x="281" y="428" on="0"/>
        <pt x="264" y="423" on="1"/>
        <pt x="261" y="469" on="1"/>
        <pt x="275" y="473" on="0"/>
        <pt x="314" y="482" on="0"/>
        <pt x="335" y="482" on="1"/>
        <pt x="378" y="482" on="0"/>
        <pt x="431" y="442" on="0"/>
        <pt x="431" y="399" on="1"/>
        <pt x="431" y="393" on="0"/>
        <pt x="429" y="371" on="0"/>
        <pt x="427" y="361" on="1"/>
        <pt x="411" y="271" on="1"/>
        <pt x="406" y="239" on="0"/>
        <pt x="423" y="211" on="0"/>
        <pt x="438" y="211" on="1"/>
        <pt x="455" y="211" on="0"/>
        <pt x="487" y="248" on="0"/>
        <pt x="513" y="310" on="0"/>
        <pt x="528" y="388" on="0"/>
        <pt x="528" y="430" on="1"/>
        <pt x="528" y="468" on="0"/>
        <pt x="509" y="540" on="0"/>
        <pt x="468" y="595" on="0"/>
        <pt x="405" y="628" on="0"/>
        <pt x="362" y="628" on="1"/>
        <pt x="306" y="628" on="0"/>
        <pt x="213" y="565" on="0"/>
        <pt x="145" y="462" on="0"/>
        <pt x="107" y="331" on="0"/>
        <pt x="107" y="263" on="1"/>
        <pt x="107" y="218" on="0"/>
        <pt x="131" y="135" on="0"/>
        <pt x="180" y="72" on="0"/>
        <pt x="255" y="35" on="0"/>
        <pt x="306" y="35" on="1"/>
        <pt x="329" y="35" on="0"/>
        <pt x="364" y="42" on="0"/>
        <pt x="388" y="51" on="1"/>
        <pt x="394" y="4" on="1"/>
        <pt x="368" y="-4" on="0"/>
        <pt x="322" y="-12" on="0"/>
        <pt x="297" y="-12" on="1"/>
        <pt x="235" y="-12" on="0"/>
        <pt x="145" y="34" on="0"/>
        <pt x="86" y="109" on="0"/>
        <pt x="57" y="206" on="0"/>
        <pt x="57" y="257" on="1"/>
        <pt x="57" y="339" on="0"/>
        <pt x="104" y="491" on="0"/>
        <pt x="187" y="607" on="0"/>
        <pt x="299" y="676" on="0"/>
        <pt x="365" y="676" on="1"/>
        <pt x="418" y="676" on="0"/>
        <pt x="498" y="636" on="0"/>
        <pt x="551" y="570" on="0"/>
        <pt x="578" y="482" on="0"/>
      </contour>
      <contour>
        <pt x="359" y="295" on="1"/>
        <pt x="349" y="306" on="0"/>
        <pt x="322" y="322" on="0"/>
        <pt x="305" y="322" on="1"/>
        <pt x="281" y="322" on="0"/>
        <pt x="252" y="284" on="0"/>
        <pt x="252" y="255" on="1"/>
        <pt x="252" y="237" on="0"/>
        <pt x="273" y="211" on="0"/>
        <pt x="294" y="211" on="1"/>
        <pt x="310" y="211" on="0"/>
        <pt x="338" y="228" on="0"/>
        <pt x="350" y="242" on="1"/>
      </contour>
    </TTGlyph>
    <TTGlyph name="at.cap" xMin="73" yMin="-11" xMax="666" yMax="744">
      <contour>
        <pt x="460" y="5" on="1"/>
        <pt x="436" y="-3" on="0"/>
        <pt x="384" y="-11" on="0"/>
        <pt x="363" y="-11" on="1"/>
        <pt x="297" y="-11" on="0"/>
        <pt x="190" y="32" on="0"/>
        <pt x="114" y="112" on="0"/>
        <pt x="73" y="223" on="0"/>
        <pt x="73" y="291" on="1"/>
        <pt x="73" y="381" on="0"/>
        <pt x="127" y="545" on="0"/>
        <pt x="221" y="670" on="0"/>
        <pt x="348" y="744" on="0"/>
        <pt x="420" y="744" on="1"/>
        <pt x="476" y="744" on="0"/>
        <pt x="567" y="704" on="0"/>
        <pt x="631" y="632" on="0"/>
        <pt x="666" y="532" on="0"/>
        <pt x="666" y="472" on="1"/>
        <pt x="666" y="418" on="0"/>
        <pt x="644" y="314" on="0"/>
        <pt x="602" y="231" on="0"/>
        <pt x="541" y="181" on="0"/>
        <pt x="502" y="181" on="1"/>
        <pt x="473" y="181" on="0"/>
        <pt x="435" y="212" on="0"/>
        <pt x="427" y="239" on="1"/>
        <pt x="385" y="186" on="0"/>
        <pt x="326" y="186" on="1"/>
        <pt x="288" y="186" on="0"/>
        <pt x="234" y="231" on="0"/>
        <pt x="234" y="277" on="1"/>
        <pt x="234" y="302" on="0"/>
        <pt x="250" y="347" on="0"/>
        <pt x="279" y="380" on="0"/>
        <pt x="319" y="399" on="0"/>
        <pt x="342" y="399" on="1"/>
        <pt x="388" y="399" on="0"/>
        <pt x="426" y="366" on="1"/>
        <pt x="431" y="395" on="0"/>
        <pt x="434" y="420" on="0"/>
        <pt x="434" y="430" on="1"/>
        <pt x="434" y="458" on="0"/>
        <pt x="390" y="478" on="0"/>
        <pt x="365" y="478" on="1"/>
        <pt x="351" y="478" on="0"/>
        <pt x="324" y="472" on="0"/>
        <pt x="307" y="467" on="1"/>
        <pt x="304" y="519" on="1"/>
        <pt x="318" y="523" on="0"/>
        <pt x="359" y="532" on="0"/>
        <pt x="382" y="532" on="1"/>
        <pt x="432" y="532" on="0"/>
        <pt x="497" y="490" on="0"/>
        <pt x="497" y="440" on="1"/>
        <pt x="497" y="432" on="0"/>
        <pt x="494" y="409" on="0"/>
        <pt x="492" y="400" on="1"/>
        <pt x="475" y="303" on="1"/>
        <pt x="468" y="266" on="0"/>
        <pt x="488" y="232" on="0"/>
        <pt x="509" y="232" on="1"/>
        <pt x="532" y="232" on="0"/>
        <pt x="570" y="274" on="0"/>
        <pt x="597" y="342" on="0"/>
        <pt x="612" y="427" on="0"/>
        <pt x="612" y="471" on="1"/>
        <pt x="612" y="518" on="0"/>
        <pt x="586" y="599" on="0"/>
        <pt x="535" y="659" on="0"/>
        <pt x="461" y="693" on="0"/>
        <pt x="414" y="693" on="1"/>
        <pt x="354" y="693" on="0"/>
        <pt x="250" y="625" on="0"/>
        <pt x="172" y="513" on="0"/>
        <pt x="128" y="369" on="0"/>
        <pt x="128" y="293" on="1"/>
        <pt x="128" y="236" on="0"/>
        <pt x="162" y="143" on="0"/>
        <pt x="225" y="77" on="0"/>
        <pt x="311" y="41" on="0"/>
        <pt x="364" y="41" on="1"/>
        <pt x="387" y="41" on="0"/>
        <pt x="430" y="48" on="0"/>
        <pt x="454" y="56" on="1"/>
      </contour>
      <contour>
        <pt x="416" y="321" on="1"/>
        <pt x="405" y="336" on="0"/>
        <pt x="372" y="354" on="0"/>
        <pt x="352" y="354" on="1"/>
        <pt x="326" y="354" on="0"/>
        <pt x="295" y="314" on="0"/>
        <pt x="295" y="283" on="1"/>
        <pt x="295" y="260" on="0"/>
        <pt x="320" y="233" on="0"/>
        <pt x="343" y="233" on="1"/>
        <pt x="362" y="233" on="0"/>
        <pt x="397" y="256" on="0"/>
        <pt x="409" y="275" on="1"/>
      </contour>
    </TTGlyph>
    <TTGlyph name="atilde" xMin="11" yMin="-9" xMax="378" yMax="586">
      <component glyphName="a" x="0" y="0" flags="0x204"/>
      <component glyphName="tilde" x="-20" y="0" flags="0x4"/>
    </TTGlyph>
    <TTGlyph name="b" xMin="9" yMin="-9" xMax="370" yMax="733">
      <contour>
        <pt x="370" y="294" on="1"/>
        <pt x="370" y="231" on="0"/>
        <pt x="339" y="121" on="0"/>
        <pt x="286" y="39" on="0"/>
        <pt x="216" y="-9" on="0"/>
        <pt x="178" y="-9" on="1"/>
        <pt x="122" y="-9" on="0"/>
        <pt x="86" y="34" on="1"/>
        <pt x="79" y="0" on="1"/>
        <pt x="9" y="0" on="1"/>
        <pt x="144" y="733" on="1"/>
        <pt x="216" y="733" on="1"/>
        <pt x="155" y="401" on="1"/>
        <pt x="175" y="419" on="0"/>
        <pt x="224" y="443" on="0"/>
        <pt x="253" y="443" on="1"/>
        <pt x="305" y="443" on="0"/>
        <pt x="370" y="363" on="0"/>
      </contour>
      <contour>
        <pt x="299" y="286" on="1"/>
        <pt x="299" y="334" on="0"/>
        <pt x="260" y="382" on="0"/>
        <pt x="225" y="382" on="1"/>
        <pt x="202" y="382" on="0"/>
        <pt x="160" y="359" on="0"/>
        <pt x="144" y="343" on="1"/>
        <pt x="97" y="86" on="1"/>
        <pt x="110" y="70" on="0"/>
        <pt x="145" y="51" on="0"/>
        <pt x="167" y="51" on="1"/>
        <pt x="195" y="51" on="0"/>
        <pt x="243" y="93" on="0"/>
        <pt x="279" y="160" on="0"/>
        <pt x="299" y="244" on="0"/>
      </contour>
    </TTGlyph>
    <TTGlyph name="backslash" xMin="81" yMin="-216" xMax="215" yMax="733">
      <contour>
        <pt x="152" y="-216" on="1"/>
        <pt x="81" y="733" on="1"/>
        <pt x="143" y="733" on="1"/>
        <pt x="215" y="-216" on="1"/>
      </contour>
    </TTGlyph>
    <TTGlyph name="backslash.cap" xMin="105" yMin="-111" xMax="239" yMax="838">
      <component glyphName="backslash" x="24" y="105" flags="0x204"/>
    </TTGlyph>
    <TTGlyph name="bar" xMin="-8" yMin="-215" xMax="228" yMax="734">
      <contour>
        <pt x="-8" y="-215" on="1"/>
        <pt x="167" y="734" on="1"/>
        <pt x="228" y="734" on="1"/>
        <pt x="53" y="-215" on="1"/>
      </contour>
    </TTGlyph>
    <TTGlyph name="bar.cap" xMin="11" yMin="-111" xMax="247" yMax="838">
      <component glyphName="bar" x="19" y="104" flags="0x204"/>
    </TTGlyph>
    <TTGlyph name="braceleft" xMin="25" yMin="-223" xMax="340" yMax="740">
      <contour>
        <pt x="329" y="676" on="1"/>
        <pt x="320" y="676" on="1"/>
        <pt x="288" y="676" on="0"/>
        <pt x="243" y="646" on="0"/>
        <pt x="235" y="602" on="1"/>
        <pt x="192" y="364" on="1"/>
        <pt x="188" y="340" on="0"/>
        <pt x="174" y="306" on="0"/>
        <pt x="154" y="282" on="0"/>
        <pt x="126" y="266" on="0"/>
        <pt x="107" y="259" on="1"/>
        <pt x="133" y="245" on="0"/>
        <pt x="157" y="213" on="0"/>
        <pt x="157" y="188" on="1"/>
        <pt x="157" y="181" on="0"/>
        <pt x="154" y="160" on="0"/>
        <pt x="152" y="148" on="1"/>
        <pt x="114" y="-56" on="1"/>
        <pt x="112" y="-67" on="0"/>
        <pt x="108" y="-91" on="0"/>
        <pt x="108" y="-102" on="1"/>
        <pt x="108" y="-132" on="0"/>
        <pt x="145" y="-160" on="0"/>
        <pt x="177" y="-160" on="1"/>
        <pt x="165" y="-223" on="1"/>
        <pt x="108" y="-223" on="0"/>
        <pt x="43" y="-166" on="0"/>
        <pt x="43" y="-112" on="1"/>
        <pt x="43" y="-102" on="0"/>
        <pt x="46" y="-75" on="0"/>
        <pt x="48" y="-64" on="1"/>
        <pt x="90" y="163" on="1"/>
        <pt x="91" y="168" on="0"/>
        <pt x="93" y="185" on="0"/>
        <pt x="93" y="190" on="1"/>
        <pt x="93" y="230" on="0"/>
        <pt x="43" y="230" on="1"/>
        <pt x="25" y="230" on="1"/>
        <pt x="37" y="293" on="1"/>
        <pt x="55" y="293" on="1"/>
        <pt x="83" y="293" on="0"/>
        <pt x="119" y="320" on="0"/>
        <pt x="125" y="353" on="1"/>
        <pt x="170" y="603" on="1"/>
        <pt x="184" y="678" on="0"/>
        <pt x="263" y="740" on="0"/>
        <pt x="328" y="740" on="1"/>
        <pt x="340" y="740" on="1"/>
      </contour>
    </TTGlyph>
    <TTGlyph name="braceleft.cap" xMin="44" yMin="-118" xMax="359" yMax="845">
      <component glyphName="braceleft" x="19" y="105" flags="0x204"/>
    </TTGlyph>
    <TTGlyph name="braceright" xMin="-74" yMin="-223" xMax="241" yMax="740">
      <contour>
        <pt x="-63" y="-160" on="1"/>
        <pt x="-54" y="-160" on="1"/>
        <pt x="-22" y="-160" on="0"/>
        <pt x="23" y="-129" on="0"/>
        <pt x="31" y="-85" on="1"/>
        <pt x="74" y="153" on="1"/>
        <pt x="78" y="177" on="0"/>
        <pt x="92" y="211" on="0"/>
        <pt x="112" y="235" on="0"/>
        <pt x="140" y="251" on="0"/>
        <pt x="159" y="258" on="1"/>
        <pt x="133" y="271" on="0"/>
        <pt x="109" y="304" on="0"/>
        <pt x="109" y="329" on="1"/>
        <pt x="109" y="343" on="0"/>
        <pt x="114" y="368" on="1"/>
        <pt x="152" y="572" on="1"/>
        <pt x="154" y="584" on="0"/>
        <pt x="158" y="608" on="0"/>
        <pt x="158" y="618" on="1"/>
        <pt x="158" y="649" on="0"/>
        <pt x="121" y="676" on="0"/>
        <pt x="89" y="676" on="1"/>
        <pt x="101" y="740" on="1"/>
        <pt x="158" y="740" on="0"/>
        <pt x="223" y="682" on="0"/>
        <pt x="223" y="628" on="1"/>
        <pt x="223" y="618" on="0"/>
        <pt x="220" y="592" on="0"/>
        <pt x="218" y="580" on="1"/>
        <pt x="177" y="353" on="1"/>
        <pt x="175" y="348" on="0"/>
        <pt x="174" y="332" on="0"/>
        <pt x="174" y="326" on="1"/>
        <pt x="174" y="286" on="0"/>
        <pt x="223" y="286" on="1"/>
        <pt x="241" y="286" on="1"/>
        <pt x="229" y="223" on="1"/>
        <pt x="211" y="223" on="1"/>
        <pt x="183" y="223" on="0"/>
        <pt x="147" y="196" on="0"/>
        <pt x="141" y="164" on="1"/>
        <pt x="96" y="-86" on="1"/>
        <pt x="82" y="-161" on="0"/>
        <pt x="3" y="-223" on="0"/>
        <pt x="-62" y="-223" on="1"/>
        <pt x="-74" y="-223" on="1"/>
      </contour>
    </TTGlyph>
    <TTGlyph name="braceright.cap" xMin="-54" yMin="-118" xMax="261" yMax="845">
      <component glyphName="braceright" x="20" y="105" flags="0x204"/>
    </TTGlyph>
    <TTGlyph name="bracketleft" xMin="-21" yMin="-216" xMax="323" yMax="733">
      <contour>
        <pt x="312" y="674" on="1"/>
        <pt x="208" y="674" on="1"/>
        <pt x="55" y="-158" on="1"/>
        <pt x="160" y="-158" on="1"/>
        <pt x="149" y="-216" on="1"/>
        <pt x="-21" y="-216" on="1"/>
        <pt x="154" y="733" on="1"/>
        <pt x="323" y="733" on="1"/>
      </contour>
    </TTGlyph>
    <TTGlyph name="bracketleft.cap" xMin="-1" yMin="-111" xMax="343" yMax="838">
      <component glyphName="bracketleft" x="20" y="105" flags="0x204"/>
    </TTGlyph>
    <TTGlyph name="bracketright" xMin="-72" yMin="-216" xMax="273" yMax="733">
      <contour>
        <pt x="98" y="-216" on="1"/>
        <pt x="-72" y="-216" on="1"/>
        <pt x="-61" y="-157" on="1"/>
        <pt x="44" y="-157" on="1"/>
        <pt x="197" y="674" on="1"/>
        <pt x="92" y="674" on="1"/>
        <pt x="103" y="733" on="1"/>
        <pt x="273" y="733" on="1"/>
      </contour>
    </TTGlyph>
    <TTGlyph name="bracketright.cap" xMin="-52" yMin="-111" xMax="293" yMax="838">
      <component glyphName="bracketright" x="20" y="105" flags="0x4"/>
    </TTGlyph>
    <TTGlyph name="breve" xMin="160" yMin="489" xMax="388" yMax="607">
      <contour>
        <pt x="388" y="603" on="1"/>
        <pt x="380" y="555" on="0"/>
        <pt x="319" y="489" on="0"/>
        <pt x="262" y="489" on="1"/>
        <pt x="214" y="489" on="0"/>
        <pt x="160" y="541" on="0"/>
        <pt x="160" y="582" on="1"/>
        <pt x="160" y="587" on="0"/>
        <pt x="160" y="599" on="0"/>
        <pt x="161" y="603" on="1"/>
        <pt x="222" y="607" on="1"/>
        <pt x="221" y="603" on="0"/>
        <pt x="221" y="593" on="0"/>
        <pt x="221" y="588" on="1"/>
        <pt x="221" y="540" on="0"/>
        <pt x="267" y="540" on="1"/>
        <pt x="317" y="540" on="0"/>
        <pt x="328" y="607" on="1"/>
      </contour>
    </TTGlyph>
    <TTGlyph name="bullet" xMin="68" yMin="253" xMax="290" yMax="479">
      <contour>
        <pt x="290" y="371" on="1"/>
        <pt x="290" y="347" on="0"/>
        <pt x="272" y="304" on="0"/>
        <pt x="241" y="272" on="0"/>
        <pt x="199" y="253" on="0"/>
        <pt x="176" y="253" on="1"/>
        <pt x="128" y="253" on="0"/>
        <pt x="68" y="315" on="0"/>
        <pt x="68" y="361" on="1"/>
        <pt x="68" y="385" on="0"/>
        <pt x="86" y="428" on="0"/>
        <pt x="118" y="460" on="0"/>
        <pt x="160" y="479" on="0"/>
        <pt x="183" y="479" on="1"/>
        <pt x="231" y="479" on="0"/>
        <pt x="290" y="417" on="0"/>
      </contour>
    </TTGlyph>
    <TTGlyph name="c" xMin="29" yMin="-10" xMax="348" yMax="445">
      <contour>
        <pt x="313" y="353" on="1"/>
        <pt x="296" y="366" on="0"/>
        <pt x="257" y="382" on="0"/>
        <pt x="234" y="382" on="1"/>
        <pt x="205" y="382" on="0"/>
        <pt x="155" y="346" on="0"/>
        <pt x="119" y="286" on="0"/>
        <pt x="99" y="209" on="0"/>
        <pt x="99" y="167" on="1"/>
        <pt x="99" y="118" on="0"/>
        <pt x="149" y="53" on="0"/>
        <pt x="192" y="53" on="1"/>
        <pt x="231" y="53" on="0"/>
        <pt x="269" y="77" on="1"/>
        <pt x="285" y="19" on="1"/>
        <pt x="233" y="-10" on="0"/>
        <pt x="182" y="-10" on="1"/>
        <pt x="149" y="-10" on="0"/>
        <pt x="92" y="15" on="0"/>
        <pt x="52" y="61" on="0"/>
        <pt x="29" y="124" on="0"/>
        <pt x="29" y="163" on="1"/>
        <pt x="29" y="217" on="0"/>
        <pt x="60" y="319" on="0"/>
        <pt x="115" y="397" on="0"/>
        <pt x="194" y="445" on="0"/>
        <pt x="242" y="445" on="1"/>
        <pt x="274" y="445" on="0"/>
        <pt x="326" y="424" on="0"/>
        <pt x="348" y="406" on="1"/>
      </contour>
    </TTGlyph>
    <TTGlyph name="cacute" xMin="29" yMin="-10" xMax="391" yMax="631">
      <component glyphName="acute" x="39" y="0" flags="0x4"/>
      <component glyphName="c" x="0" y="0" flags="0x4"/>
    </TTGlyph>
    <TTGlyph name="caron" xMin="155" yMin="489" xMax="409" yMax="627">
      <contour>
        <pt x="268" y="489" on="1"/>
        <pt x="241" y="489" on="1"/>
        <pt x="155" y="627" on="1"/>
        <pt x="221" y="627" on="1"/>
        <pt x="265" y="554" on="1"/>
        <pt x="336" y="627" on="1"/>
        <pt x="409" y="627" on="1"/>
      </contour>
    </TTGlyph>
    <TTGlyph name="caron.alt" xMin="20" yMin="533" xMax="162" yMax="740">
      <contour>
        <pt x="162" y="729" on="1"/>
        <pt x="151" y="663" on="0"/>
        <pt x="95" y="568" on="0"/>
        <pt x="48" y="533" on="1"/>
        <pt x="20" y="558" on="1"/>
        <pt x="53" y="596" on="0"/>
        <pt x="87" y="685" on="0"/>
        <pt x="97" y="740" on="1"/>
      </contour>
    </TTGlyph>
    <TTGlyph name="ccaron" xMin="29" yMin="-10" xMax="404" yMax="627">
      <component glyphName="caron" x="-5" y="0" flags="0x4"/>
      <component glyphName="c" x="0" y="0" flags="0x4"/>
    </TTGlyph>
    <TTGlyph name="ccedilla" xMin="29" yMin="-204" xMax="348" yMax="445">
      <contour>
        <pt x="227" y="-119" on="1"/>
        <pt x="227" y="-156" on="0"/>
        <pt x="174" y="-204" on="0"/>
        <pt x="131" y="-204" on="1"/>
        <pt x="83" y="-204" on="0"/>
        <pt x="39" y="-175" on="1"/>
        <pt x="64" y="-134" on="1"/>
        <pt x="83" y="-147" on="0"/>
        <pt x="118" y="-158" on="0"/>
        <pt x="135" y="-158" on="1"/>
        <pt x="152" y="-158" on="0"/>
        <pt x="174" y="-138" on="0"/>
        <pt x="174" y="-123" on="1"/>
        <pt x="174" y="-109" on="0"/>
        <pt x="140" y="-83" on="0"/>
        <pt x="98" y="-81" on="1"/>
        <pt x="96" y="-74" on="1"/>
        <pt x="128" y="-1" on="1"/>
        <pt x="83" y="16" on="0"/>
        <pt x="29" y="102" on="0"/>
        <pt x="29" y="163" on="1"/>
        <pt x="29" y="217" on="0"/>
        <pt x="60" y="319" on="0"/>
        <pt x="115" y="397" on="0"/>
        <pt x="194" y="445" on="0"/>
        <pt x="242" y="445" on="1"/>
        <pt x="274" y="445" on="0"/>
        <pt x="326" y="424" on="0"/>
        <pt x="348" y="406" on="1"/>
        <pt x="313" y="353" on="1"/>
        <pt x="296" y="366" on="0"/>
        <pt x="257" y="382" on="0"/>
        <pt x="234" y="382" on="1"/>
        <pt x="205" y="382" on="0"/>
        <pt x="155" y="346" on="0"/>
        <pt x="119" y="286" on="0"/>
        <pt x="99" y="209" on="0"/>
        <pt x="99" y="167" on="1"/>
        <pt x="99" y="118" on="0"/>
        <pt x="149" y="53" on="0"/>
        <pt x="192" y="53" on="1"/>
        <pt x="231" y="53" on="0"/>
        <pt x="269" y="77" on="1"/>
        <pt x="285" y="19" on="1"/>
        <pt x="233" y="-10" on="0"/>
        <pt x="182" y="-10" on="1"/>
        <pt x="173" y="-10" on="0"/>
        <pt x="168" y="-9" on="1"/>
        <pt x="154" y="-45" on="1"/>
        <pt x="194" y="-55" on="0"/>
        <pt x="227" y="-96" on="0"/>
      </contour>
    </TTGlyph>
    <TTGlyph name="cdotaccent" xMin="29" yMin="-10" xMax="348" yMax="581">
      <component glyphName="c" x="0" y="0" flags="0x204"/>
      <component glyphName="dotaccent" x="-10" y="0" flags="0x4"/>
    </TTGlyph>
    <TTGlyph name="cedilla" xMin="65" yMin="-204" xMax="253" yMax="14">
      <contour>
        <pt x="253" y="-119" on="1"/>
        <pt x="253" y="-156" on="0"/>
        <pt x="200" y="-204" on="0"/>
        <pt x="157" y="-204" on="1"/>
        <pt x="109" y="-204" on="0"/>
        <pt x="65" y="-175" on="1"/>
        <pt x="90" y="-134" on="1"/>
        <pt x="109" y="-147" on="0"/>
        <pt x="144" y="-158" on="0"/>
        <pt x="161" y="-158" on="1"/>
        <pt x="178" y="-158" on="0"/>
        <pt x="200" y="-138" on="0"/>
        <pt x="200" y="-123" on="1"/>
        <pt x="200" y="-109" on="0"/>
        <pt x="166" y="-83" on="0"/>
        <pt x="124" y="-81" on="1"/>
        <pt x="122" y="-74" on="1"/>
        <pt x="161" y="14" on="1"/>
        <pt x="200" y="4" on="1"/>
        <pt x="180" y="-45" on="1"/>
        <pt x="220" y="-55" on="0"/>
        <pt x="253" y="-96" on="0"/>
      </contour>
    </TTGlyph>
    <TTGlyph name="cent" xMin="32" yMin="-78" xMax="356" yMax="522">
      <contour>
        <pt x="289" y="440" on="1"/>
        <pt x="309" y="435" on="0"/>
        <pt x="342" y="417" on="0"/>
        <pt x="356" y="406" on="1"/>
        <pt x="321" y="353" on="1"/>
        <pt x="310" y="361" on="0"/>
        <pt x="286" y="374" on="0"/>
        <pt x="272" y="378" on="1"/>
        <pt x="187" y="53" on="1"/>
        <pt x="201" y="53" on="1"/>
        <pt x="239" y="53" on="0"/>
        <pt x="277" y="77" on="1"/>
        <pt x="293" y="19" on="1"/>
        <pt x="241" y="-10" on="0"/>
        <pt x="190" y="-10" on="1"/>
        <pt x="185" y="-10" on="0"/>
        <pt x="176" y="-9" on="0"/>
        <pt x="171" y="-9" on="1"/>
        <pt x="153" y="-78" on="1"/>
        <pt x="98" y="-72" on="1"/>
        <pt x="118" y="6" on="1"/>
        <pt x="79" y="26" on="0"/>
        <pt x="32" y="108" on="0"/>
        <pt x="32" y="165" on="1"/>
        <pt x="32" y="217" on="0"/>
        <pt x="60" y="313" on="0"/>
        <pt x="112" y="390" on="0"/>
        <pt x="186" y="439" on="0"/>
        <pt x="233" y="444" on="1"/>
        <pt x="254" y="522" on="1"/>
        <pt x="309" y="516" on="1"/>
      </contour>
      <contour>
        <pt x="101" y="163" on="1"/>
        <pt x="101" y="101" on="0"/>
        <pt x="136" y="72" on="1"/>
        <pt x="217" y="380" on="1"/>
        <pt x="190" y="373" on="0"/>
        <pt x="147" y="331" on="0"/>
        <pt x="117" y="271" on="0"/>
        <pt x="101" y="200" on="0"/>
      </contour>
    </TTGlyph>
    <TTGlyph name="cent.lin" xMin="60" yMin="71" xMax="384" yMax="671">
      <component glyphName="cent" x="28" y="149" flags="0x204"/>
    </TTGlyph>
    <TTGlyph name="circumflex" xMin="132" yMin="492" xMax="386" yMax="630">
      <contour>
        <pt x="320" y="492" on="1"/>
        <pt x="277" y="565" on="1"/>
        <pt x="205" y="492" on="1"/>
        <pt x="132" y="492" on="1"/>
        <pt x="273" y="630" on="1"/>
        <pt x="301" y="630" on="1"/>
        <pt x="386" y="492" on="1"/>
      </contour>
    </TTGlyph>
    <TTGlyph name="colon" xMin="9" yMin="-10" xMax="158" yMax="387">
      <contour>
        <pt x="158" y="341" on="1"/>
        <pt x="158" y="321" on="0"/>
        <pt x="128" y="291" on="0"/>
        <pt x="108" y="291" on="1"/>
        <pt x="88" y="291" on="0"/>
        <pt x="63" y="317" on="0"/>
        <pt x="63" y="337" on="1"/>
        <pt x="63" y="357" on="0"/>
        <pt x="92" y="387" on="0"/>
        <pt x="112" y="387" on="1"/>
        <pt x="132" y="387" on="0"/>
        <pt x="158" y="361" on="0"/>
      </contour>
      <contour>
        <pt x="103" y="40" on="1"/>
        <pt x="103" y="20" on="0"/>
        <pt x="74" y="-10" on="0"/>
        <pt x="54" y="-10" on="1"/>
        <pt x="34" y="-10" on="0"/>
        <pt x="9" y="16" on="0"/>
        <pt x="9" y="36" on="1"/>
        <pt x="9" y="56" on="0"/>
        <pt x="38" y="86" on="0"/>
        <pt x="58" y="86" on="1"/>
        <pt x="78" y="86" on="0"/>
        <pt x="103" y="60" on="0"/>
      </contour>
    </TTGlyph>
    <TTGlyph name="comma" xMin="-27" yMin="-113" xMax="102" yMax="87">
      <contour>
        <pt x="102" y="34" on="1"/>
        <pt x="102" y="14" on="0"/>
        <pt x="82" y="-29" on="0"/>
        <pt x="49" y="-68" on="0"/>
        <pt x="5" y="-101" on="0"/>
        <pt x="-18" y="-113" on="1"/>
        <pt x="-27" y="-99" on="1"/>
        <pt x="8" y="-72" on="0"/>
        <pt x="39" y="-29" on="0"/>
        <pt x="47" y="-8" on="1"/>
        <pt x="27" y="-6" on="0"/>
        <pt x="6" y="20" on="0"/>
        <pt x="6" y="37" on="1"/>
        <pt x="6" y="58" on="0"/>
        <pt x="35" y="87" on="0"/>
        <pt x="55" y="87" on="1"/>
        <pt x="75" y="87" on="0"/>
        <pt x="102" y="58" on="0"/>
      </contour>
    </TTGlyph>
    <TTGlyph name="commaaccent" xMin="29" yMin="-262" xMax="151" yMax="-73">
      <contour>
        <pt x="151" y="-123" on="1"/>
        <pt x="151" y="-142" on="0"/>
        <pt x="132" y="-181" on="0"/>
        <pt x="100" y="-219" on="0"/>
        <pt x="60" y="-251" on="0"/>
        <pt x="38" y="-262" on="1"/>
        <pt x="29" y="-248" on="1"/>
        <pt x="62" y="-223" on="0"/>
        <pt x="92" y="-183" on="0"/>
        <pt x="100" y="-163" on="1"/>
        <pt x="81" y="-160" on="0"/>
        <pt x="61" y="-135" on="0"/>
        <pt x="61" y="-120" on="1"/>
        <pt x="61" y="-100" on="0"/>
        <pt x="88" y="-73" on="0"/>
        <pt x="107" y="-73" on="1"/>
        <pt x="126" y="-73" on="0"/>
        <pt x="151" y="-100" on="0"/>
      </contour>
    </TTGlyph>
    <TTGlyph name="copyright" xMin="60" yMin="-12" xMax="648" yMax="745">
      <contour>
        <pt x="426" y="202" on="1"/>
        <pt x="384" y="178" on="0"/>
        <pt x="341" y="178" on="1"/>
        <pt x="284" y="178" on="0"/>
        <pt x="213" y="256" on="0"/>
        <pt x="214" y="326" on="1"/>
        <pt x="214" y="370" on="0"/>
        <pt x="241" y="454" on="0"/>
        <pt x="289" y="519" on="0"/>
        <pt x="355" y="558" on="0"/>
        <pt x="393" y="558" on="1"/>
        <pt x="421" y="558" on="0"/>
        <pt x="465" y="542" on="0"/>
        <pt x="484" y="528" on="1"/>
        <pt x="455" y="481" on="1"/>
        <pt x="443" y="491" on="0"/>
        <pt x="412" y="505" on="0"/>
        <pt x="392" y="505" on="1"/>
        <pt x="368" y="505" on="0"/>
        <pt x="325" y="475" on="0"/>
        <pt x="293" y="426" on="0"/>
        <pt x="274" y="362" on="0"/>
        <pt x="274" y="328" on="1"/>
        <pt x="274" y="281" on="0"/>
        <pt x="315" y="232" on="0"/>
        <pt x="350" y="232" on="1"/>
        <pt x="367" y="232" on="0"/>
        <pt x="399" y="243" on="0"/>
        <pt x="413" y="251" on="1"/>
      </contour>
      <contour>
        <pt x="598" y="442" on="1"/>
        <pt x="598" y="499" on="0"/>
        <pt x="570" y="594" on="0"/>
        <pt x="519" y="663" on="0"/>
        <pt x="446" y="701" on="0"/>
        <pt x="400" y="701" on="1"/>
        <pt x="338" y="701" on="0"/>
        <pt x="232" y="631" on="0"/>
        <pt x="154" y="517" on="0"/>
        <pt x="109" y="369" on="0"/>
        <pt x="109" y="291" on="1"/>
        <pt x="109" y="234" on="0"/>
        <pt x="137" y="139" on="0"/>
        <pt x="189" y="70" on="0"/>
        <pt x="262" y="31" on="0"/>
        <pt x="307" y="31" on="1"/>
        <pt x="368" y="31" on="0"/>
        <pt x="475" y="101" on="0"/>
        <pt x="553" y="216" on="0"/>
        <pt x="598" y="364" on="0"/>
      </contour>
      <contour>
        <pt x="648" y="442" on="1"/>
        <pt x="648" y="355" on="0"/>
        <pt x="596" y="192" on="0"/>
        <pt x="504" y="65" on="0"/>
        <pt x="378" y="-12" on="0"/>
        <pt x="304" y="-12" on="1"/>
        <pt x="248" y="-12" on="0"/>
        <pt x="158" y="33" on="0"/>
        <pt x="94" y="113" on="0"/>
        <pt x="60" y="224" on="0"/>
        <pt x="60" y="290" on="1"/>
        <pt x="60" y="377" on="0"/>
        <pt x="112" y="540" on="0"/>
        <pt x="204" y="668" on="0"/>
        <pt x="330" y="745" on="0"/>
        <pt x="404" y="745" on="1"/>
        <pt x="460" y="745" on="0"/>
        <pt x="550" y="700" on="0"/>
        <pt x="614" y="620" on="0"/>
        <pt x="648" y="508" on="0"/>
      </contour>
    </TTGlyph>
    <TTGlyph name="d" xMin="23" yMin="-9" xMax="439" yMax="733">
      <contour>
        <pt x="304" y="0" on="1"/>
        <pt x="234" y="0" on="1"/>
        <pt x="241" y="38" on="1"/>
        <pt x="222" y="19" on="0"/>
        <pt x="175" y="-9" on="0"/>
        <pt x="144" y="-9" on="1"/>
        <pt x="120" y="-9" on="0"/>
        <pt x="76" y="11" on="0"/>
        <pt x="43" y="51" on="0"/>
        <pt x="23" y="108" on="0"/>
        <pt x="23" y="146" on="1"/>
        <pt x="23" y="207" on="0"/>
        <pt x="54" y="315" on="0"/>
        <pt x="107" y="396" on="0"/>
        <pt x="178" y="443" on="0"/>
        <pt x="219" y="443" on="1"/>
        <pt x="271" y="443" on="0"/>
        <pt x="307" y="406" on="1"/>
        <pt x="366" y="733" on="1"/>
        <pt x="439" y="733" on="1"/>
      </contour>
      <contour>
        <pt x="296" y="351" on="1"/>
        <pt x="265" y="384" on="0"/>
        <pt x="224" y="384" on="1"/>
        <pt x="195" y="384" on="0"/>
        <pt x="147" y="343" on="0"/>
        <pt x="113" y="278" on="0"/>
        <pt x="93" y="196" on="0"/>
        <pt x="93" y="155" on="1"/>
        <pt x="93" y="103" on="0"/>
        <pt x="135" y="53" on="0"/>
        <pt x="170" y="53" on="1"/>
        <pt x="192" y="53" on="0"/>
        <pt x="232" y="75" on="0"/>
        <pt x="249" y="92" on="1"/>
      </contour>
    </TTGlyph>
    <TTGlyph name="dagger" xMin="78" yMin="190" xMax="380" yMax="733">
      <contour>
        <pt x="368" y="512" on="1"/>
        <pt x="259" y="512" on="1"/>
        <pt x="199" y="190" on="1"/>
        <pt x="132" y="190" on="1"/>
        <pt x="191" y="512" on="1"/>
        <pt x="78" y="512" on="1"/>
        <pt x="89" y="574" on="1"/>
        <pt x="202" y="574" on="1"/>
        <pt x="232" y="733" on="1"/>
        <pt x="299" y="733" on="1"/>
        <pt x="270" y="574" on="1"/>
        <pt x="380" y="574" on="1"/>
      </contour>
    </TTGlyph>
    <TTGlyph name="daggerdbl" xMin="46" yMin="190" xMax="385" yMax="733">
      <contour>
        <pt x="373" y="535" on="1"/>
        <pt x="263" y="535" on="1"/>
        <pt x="236" y="388" on="1"/>
        <pt x="348" y="388" on="1"/>
        <pt x="336" y="326" on="1"/>
        <pt x="224" y="326" on="1"/>
        <pt x="200" y="190" on="1"/>
        <pt x="132" y="190" on="1"/>
        <pt x="157" y="326" on="1"/>
        <pt x="46" y="326" on="1"/>
        <pt x="57" y="388" on="1"/>
        <pt x="168" y="388" on="1"/>
        <pt x="196" y="535" on="1"/>
        <pt x="83" y="535" on="1"/>
        <pt x="94" y="598" on="1"/>
        <pt x="207" y="598" on="1"/>
        <pt x="233" y="733" on="1"/>
        <pt x="300" y="733" on="1"/>
        <pt x="275" y="598" on="1"/>
        <pt x="385" y="598" on="1"/>
      </contour>
    </TTGlyph>
    <TTGlyph name="dcaron" xMin="23" yMin="-9" xMax="577" yMax="736">
      <component glyphName="caron.alt" x="415" y="-4" flags="0x4"/>
      <component glyphName="d" x="0" y="0" flags="0x4"/>
    </TTGlyph>
    <TTGlyph name="dcroat" xMin="23" yMin="-9" xMax="469" yMax="733">
      <contour>
        <pt x="419" y="626" on="1"/>
        <pt x="469" y="626" on="1"/>
        <pt x="457" y="563" on="1"/>
        <pt x="407" y="563" on="1"/>
        <pt x="304" y="0" on="1"/>
        <pt x="234" y="0" on="1"/>
        <pt x="241" y="38" on="1"/>
        <pt x="222" y="19" on="0"/>
        <pt x="175" y="-9" on="0"/>
        <pt x="144" y="-9" on="1"/>
        <pt x="120" y="-9" on="0"/>
        <pt x="76" y="11" on="0"/>
        <pt x="43" y="51" on="0"/>
        <pt x="23" y="108" on="0"/>
        <pt x="23" y="146" on="1"/>
        <pt x="23" y="207" on="0"/>
        <pt x="54" y="315" on="0"/>
        <pt x="107" y="396" on="0"/>
        <pt x="178" y="443" on="0"/>
        <pt x="219" y="443" on="1"/>
        <pt x="271" y="443" on="0"/>
        <pt x="307" y="406" on="1"/>
        <pt x="335" y="563" on="1"/>
        <pt x="224" y="563" on="1"/>
        <pt x="236" y="626" on="1"/>
        <pt x="347" y="626" on="1"/>
        <pt x="366" y="733" on="1"/>
        <pt x="439" y="733" on="1"/>
      </contour>
      <contour>
        <pt x="296" y="351" on="1"/>
        <pt x="265" y="384" on="0"/>
        <pt x="224" y="384" on="1"/>
        <pt x="195" y="384" on="0"/>
        <pt x="147" y="343" on="0"/>
        <pt x="113" y="278" on="0"/>
        <pt x="93" y="196" on="0"/>
        <pt x="93" y="155" on="1"/>
        <pt x="93" y="103" on="0"/>
        <pt x="135" y="53" on="0"/>
        <pt x="170" y="53" on="1"/>
        <pt x="192" y="53" on="0"/>
        <pt x="232" y="75" on="0"/>
        <pt x="249" y="92" on="1"/>
      </contour>
    </TTGlyph>
    <TTGlyph name="degree" xMin="119" yMin="474" xMax="353" yMax="711">
      <contour>
        <pt x="353" y="610" on="1"/>
        <pt x="353" y="584" on="0"/>
        <pt x="334" y="536" on="0"/>
        <pt x="300" y="497" on="0"/>
        <pt x="251" y="474" on="0"/>
        <pt x="221" y="474" on="1"/>
        <pt x="174" y="474" on="0"/>
        <pt x="119" y="533" on="0"/>
        <pt x="119" y="575" on="1"/>
        <pt x="119" y="600" on="0"/>
        <pt x="137" y="649" on="0"/>
        <pt x="172" y="688" on="0"/>
        <pt x="220" y="711" on="0"/>
        <pt x="250" y="711" on="1"/>
        <pt x="298" y="711" on="0"/>
        <pt x="353" y="652" on="0"/>
      </contour>
      <contour>
        <pt x="296" y="607" on="1"/>
        <pt x="296" y="636" on="0"/>
        <pt x="267" y="667" on="0"/>
        <pt x="246" y="667" on="1"/>
        <pt x="216" y="667" on="0"/>
        <pt x="175" y="615" on="0"/>
        <pt x="175" y="578" on="1"/>
        <pt x="175" y="549" on="0"/>
        <pt x="204" y="519" on="0"/>
        <pt x="225" y="519" on="1"/>
        <pt x="255" y="519" on="0"/>
        <pt x="296" y="570" on="0"/>
      </contour>
    </TTGlyph>
    <TTGlyph name="degree.lin" xMin="117" yMin="474" xMax="374" yMax="736">
      <contour>
        <pt x="374" y="625" on="1"/>
        <pt x="374" y="596" on="0"/>
        <pt x="353" y="542" on="0"/>
        <pt x="316" y="500" on="0"/>
        <pt x="262" y="474" on="0"/>
        <pt x="229" y="474" on="1"/>
        <pt x="203" y="474" on="0"/>
        <pt x="162" y="492" on="0"/>
        <pt x="133" y="522" on="0"/>
        <pt x="117" y="562" on="0"/>
        <pt x="117" y="585" on="1"/>
        <pt x="117" y="613" on="0"/>
        <pt x="138" y="668" on="0"/>
        <pt x="175" y="710" on="0"/>
        <pt x="229" y="736" on="0"/>
        <pt x="262" y="736" on="1"/>
        <pt x="314" y="736" on="0"/>
        <pt x="374" y="671" on="0"/>
      </contour>
      <contour>
        <pt x="313" y="623" on="1"/>
        <pt x="313" y="655" on="0"/>
        <pt x="282" y="688" on="0"/>
        <pt x="257" y="688" on="1"/>
        <pt x="240" y="688" on="0"/>
        <pt x="211" y="672" on="0"/>
        <pt x="190" y="645" on="0"/>
        <pt x="178" y="608" on="0"/>
        <pt x="178" y="588" on="1"/>
        <pt x="178" y="556" on="0"/>
        <pt x="210" y="522" on="0"/>
        <pt x="234" y="522" on="1"/>
        <pt x="251" y="522" on="0"/>
        <pt x="280" y="538" on="0"/>
        <pt x="301" y="566" on="0"/>
        <pt x="313" y="603" on="0"/>
      </contour>
    </TTGlyph>
    <TTGlyph name="dieresis" xMin="152" yMin="496" xMax="379" yMax="581">
      <contour>
        <pt x="235" y="540" on="1"/>
        <pt x="235" y="522" on="0"/>
        <pt x="209" y="496" on="0"/>
        <pt x="192" y="496" on="1"/>
        <pt x="174" y="496" on="0"/>
        <pt x="152" y="519" on="0"/>
        <pt x="152" y="536" on="1"/>
        <pt x="152" y="555" on="0"/>
        <pt x="178" y="581" on="0"/>
        <pt x="195" y="581" on="1"/>
        <pt x="213" y="581" on="0"/>
        <pt x="235" y="557" on="0"/>
      </contour>
      <contour>
        <pt x="379" y="540" on="1"/>
        <pt x="379" y="522" on="0"/>
        <pt x="354" y="496" on="0"/>
        <pt x="337" y="496" on="1"/>
        <pt x="318" y="496" on="0"/>
        <pt x="296" y="519" on="0"/>
        <pt x="296" y="536" on="1"/>
        <pt x="296" y="555" on="0"/>
        <pt x="322" y="581" on="0"/>
        <pt x="339" y="581" on="1"/>
        <pt x="357" y="581" on="0"/>
        <pt x="379" y="557" on="0"/>
      </contour>
    </TTGlyph>
    <TTGlyph name="divide" xMin="53" yMin="169" xMax="370" yMax="501">
      <contour>
        <pt x="232" y="214" on="1"/>
        <pt x="232" y="196" on="0"/>
        <pt x="205" y="169" on="0"/>
        <pt x="188" y="169" on="1"/>
        <pt x="169" y="169" on="0"/>
        <pt x="146" y="193" on="0"/>
        <pt x="146" y="211" on="1"/>
        <pt x="146" y="230" on="0"/>
        <pt x="172" y="256" on="0"/>
        <pt x="190" y="256" on="1"/>
        <pt x="209" y="256" on="0"/>
        <pt x="232" y="232" on="0"/>
      </contour>
      <contour>
        <pt x="64" y="366" on="1"/>
        <pt x="370" y="366" on="1"/>
        <pt x="359" y="304" on="1"/>
        <pt x="53" y="304" on="1"/>
      </contour>
      <contour>
        <pt x="277" y="459" on="1"/>
        <pt x="277" y="441" on="0"/>
        <pt x="251" y="414" on="0"/>
        <pt x="233" y="414" on="1"/>
        <pt x="214" y="414" on="0"/>
        <pt x="191" y="438" on="0"/>
        <pt x="191" y="456" on="1"/>
        <pt x="191" y="475" on="0"/>
        <pt x="217" y="501" on="0"/>
        <pt x="235" y="501" on="1"/>
        <pt x="254" y="501" on="0"/>
        <pt x="277" y="477" on="0"/>
      </contour>
    </TTGlyph>
    <TTGlyph name="divide.lin" xMin="69" yMin="204" xMax="386" yMax="536">
      <component glyphName="divide" x="16" y="35" flags="0x4"/>
    </TTGlyph>
    <TTGlyph name="dollar" xMin="-8" yMin="-75" xMax="404" yMax="735">
      <contour>
        <pt x="326" y="659" on="1"/>
        <pt x="352" y="650" on="0"/>
        <pt x="391" y="623" on="0"/>
        <pt x="404" y="612" on="1"/>
        <pt x="368" y="555" on="1"/>
        <pt x="354" y="567" on="0"/>
        <pt x="325" y="587" on="0"/>
        <pt x="309" y="593" on="1"/>
        <pt x="244" y="353" on="1"/>
        <pt x="266" y="332" on="0"/>
        <pt x="302" y="291" on="0"/>
        <pt x="328" y="248" on="0"/>
        <pt x="342" y="200" on="0"/>
        <pt x="342" y="171" on="1"/>
        <pt x="342" y="128" on="0"/>
        <pt x="312" y="61" on="0"/>
        <pt x="263" y="14" on="0"/>
        <pt x="199" y="-11" on="0"/>
        <pt x="166" y="-11" on="1"/>
        <pt x="160" y="-11" on="0"/>
        <pt x="149" y="-10" on="0"/>
        <pt x="144" y="-10" on="1"/>
        <pt x="127" y="-75" on="1"/>
        <pt x="74" y="-68" on="1"/>
        <pt x="93" y="0" on="1"/>
        <pt x="61" y="11" on="0"/>
        <pt x="13" y="45" on="0"/>
        <pt x="-8" y="64" on="1"/>
        <pt x="32" y="122" on="1"/>
        <pt x="51" y="103" on="0"/>
        <pt x="89" y="74" on="0"/>
        <pt x="110" y="65" on="1"/>
        <pt x="181" y="323" on="1"/>
        <pt x="160" y="343" on="0"/>
        <pt x="127" y="381" on="0"/>
        <pt x="103" y="421" on="0"/>
        <pt x="90" y="466" on="0"/>
        <pt x="90" y="494" on="1"/>
        <pt x="90" y="531" on="0"/>
        <pt x="115" y="595" on="0"/>
        <pt x="162" y="642" on="0"/>
        <pt x="227" y="669" on="0"/>
        <pt x="266" y="669" on="1"/>
        <pt x="273" y="669" on="1"/>
        <pt x="291" y="735" on="1"/>
        <pt x="345" y="728" on="1"/>
      </contour>
      <contour>
        <pt x="271" y="167" on="1"/>
        <pt x="271" y="198" on="0"/>
        <pt x="245" y="252" on="0"/>
        <pt x="223" y="278" on="1"/>
        <pt x="162" y="54" on="1"/>
        <pt x="166" y="54" on="1"/>
        <pt x="213" y="54" on="0"/>
        <pt x="271" y="116" on="0"/>
      </contour>
      <contour>
        <pt x="159" y="500" on="1"/>
        <pt x="159" y="472" on="0"/>
        <pt x="181" y="423" on="0"/>
        <pt x="201" y="399" on="1"/>
        <pt x="255" y="603" on="1"/>
        <pt x="231" y="602" on="0"/>
        <pt x="195" y="584" on="0"/>
        <pt x="171" y="556" on="0"/>
        <pt x="159" y="519" on="0"/>
      </contour>
    </TTGlyph>
    <TTGlyph name="dollar.lin" xMin="-9" yMin="-81" xMax="435" yMax="807">
      <contour>
        <pt x="351" y="726" on="1"/>
        <pt x="377" y="717" on="0"/>
        <pt x="419" y="691" on="0"/>
        <pt x="435" y="677" on="1"/>
        <pt x="400" y="619" on="1"/>
        <pt x="384" y="633" on="0"/>
        <pt x="351" y="654" on="0"/>
        <pt x="333" y="660" on="1"/>
        <pt x="259" y="386" on="1"/>
        <pt x="280" y="365" on="0"/>
        <pt x="321" y="323" on="0"/>
        <pt x="352" y="275" on="0"/>
        <pt x="371" y="219" on="0"/>
        <pt x="371" y="185" on="1"/>
        <pt x="371" y="143" on="0"/>
        <pt x="341" y="72" on="0"/>
        <pt x="289" y="19" on="0"/>
        <pt x="218" y="-11" on="0"/>
        <pt x="177" y="-11" on="1"/>
        <pt x="171" y="-11" on="0"/>
        <pt x="159" y="-11" on="0"/>
        <pt x="153" y="-10" on="1"/>
        <pt x="134" y="-81" on="1"/>
        <pt x="81" y="-74" on="1"/>
        <pt x="101" y="1" on="1"/>
        <pt x="68" y="12" on="0"/>
        <pt x="14" y="47" on="0"/>
        <pt x="-9" y="68" on="1"/>
        <pt x="30" y="127" on="1"/>
        <pt x="73" y="84" on="0"/>
        <pt x="118" y="65" on="1"/>
        <pt x="196" y="357" on="1"/>
        <pt x="176" y="377" on="0"/>
        <pt x="139" y="416" on="0"/>
        <pt x="111" y="460" on="0"/>
        <pt x="93" y="513" on="0"/>
        <pt x="93" y="546" on="1"/>
        <pt x="93" y="586" on="0"/>
        <pt x="121" y="655" on="0"/>
        <pt x="172" y="707" on="0"/>
        <pt x="243" y="737" on="0"/>
        <pt x="286" y="737" on="1"/>
        <pt x="289" y="737" on="0"/>
        <pt x="295" y="736" on="0"/>
        <pt x="298" y="736" on="1"/>
        <pt x="317" y="807" on="1"/>
        <pt x="371" y="801" on="1"/>
      </contour>
      <contour>
        <pt x="300" y="180" on="1"/>
        <pt x="300" y="219" on="0"/>
        <pt x="264" y="282" on="0"/>
        <pt x="239" y="310" on="1"/>
        <pt x="170" y="54" on="1"/>
        <pt x="176" y="54" on="1"/>
        <pt x="206" y="54" on="0"/>
        <pt x="252" y="75" on="0"/>
        <pt x="284" y="111" on="0"/>
        <pt x="300" y="156" on="0"/>
      </contour>
      <contour>
        <pt x="163" y="552" on="1"/>
        <pt x="163" y="518" on="0"/>
        <pt x="193" y="459" on="0"/>
        <pt x="216" y="432" on="1"/>
        <pt x="280" y="670" on="1"/>
        <pt x="251" y="670" on="0"/>
        <pt x="207" y="650" on="0"/>
        <pt x="178" y="617" on="0"/>
        <pt x="163" y="575" on="0"/>
      </contour>
    </TTGlyph>
    <TTGlyph name="dotaccent" xMin="226" yMin="496" xMax="310" yMax="581">
      <contour>
        <pt x="310" y="540" on="1"/>
        <pt x="310" y="522" on="0"/>
        <pt x="284" y="496" on="0"/>
        <pt x="267" y="496" on="1"/>
        <pt x="249" y="496" on="0"/>
        <pt x="226" y="519" on="0"/>
        <pt x="226" y="536" on="1"/>
        <pt x="226" y="555" on="0"/>
        <pt x="252" y="581" on="0"/>
        <pt x="269" y="581" on="1"/>
        <pt x="287" y="581" on="0"/>
        <pt x="310" y="557" on="0"/>
      </contour>
    </TTGlyph>
    <TTGlyph name="dotlessi" xMin="14" yMin="0" xMax="167" yMax="435">
      <contour>
        <pt x="87" y="0" on="1"/>
        <pt x="14" y="0" on="1"/>
        <pt x="94" y="435" on="1"/>
        <pt x="167" y="435" on="1"/>
      </contour>
    </TTGlyph>
    <TTGlyph name="e" xMin="27" yMin="-10" xMax="358" yMax="445">
      <contour>
        <pt x="184" y="-10" on="1"/>
        <pt x="153" y="-10" on="0"/>
        <pt x="96" y="8" on="0"/>
        <pt x="53" y="49" on="0"/>
        <pt x="27" y="113" on="0"/>
        <pt x="27" y="158" on="1"/>
        <pt x="27" y="205" on="0"/>
        <pt x="56" y="306" on="0"/>
        <pt x="110" y="390" on="0"/>
        <pt x="186" y="445" on="0"/>
        <pt x="234" y="445" on="1"/>
        <pt x="296" y="445" on="0"/>
        <pt x="358" y="360" on="0"/>
        <pt x="358" y="294" on="1"/>
        <pt x="358" y="253" on="0"/>
        <pt x="343" y="198" on="1"/>
        <pt x="100" y="198" on="1"/>
        <pt x="98" y="190" on="0"/>
        <pt x="98" y="172" on="0"/>
        <pt x="98" y="161" on="1"/>
        <pt x="98" y="108" on="0"/>
        <pt x="148" y="52" on="0"/>
        <pt x="194" y="52" on="1"/>
        <pt x="212" y="52" on="0"/>
        <pt x="257" y="64" on="0"/>
        <pt x="278" y="74" on="1"/>
        <pt x="291" y="16" on="1"/>
        <pt x="266" y="3" on="0"/>
        <pt x="216" y="-10" on="0"/>
      </contour>
      <contour>
        <pt x="284" y="253" on="1"/>
        <pt x="287" y="264" on="0"/>
        <pt x="290" y="297" on="0"/>
        <pt x="290" y="309" on="1"/>
        <pt x="290" y="340" on="0"/>
        <pt x="260" y="383" on="0"/>
        <pt x="229" y="383" on="1"/>
        <pt x="210" y="383" on="0"/>
        <pt x="174" y="363" on="0"/>
        <pt x="144" y="327" on="0"/>
        <pt x="120" y="280" on="0"/>
        <pt x="112" y="253" on="1"/>
      </contour>
    </TTGlyph>
    <TTGlyph name="eacute" xMin="27" yMin="-10" xMax="393" yMax="631">
      <component glyphName="acute" x="41" y="0" flags="0x4"/>
      <component glyphName="e" x="0" y="0" flags="0x4"/>
    </TTGlyph>
    <TTGlyph name="ebreve" xMin="27" yMin="-10" xMax="385" yMax="607">
      <component glyphName="e" x="0" y="0" flags="0x204"/>
      <component glyphName="breve" x="-3" y="0" flags="0x4"/>
    </TTGlyph>
    <TTGlyph name="ecaron" xMin="27" yMin="-10" xMax="407" yMax="627">
      <component glyphName="caron" x="-2" y="0" flags="0x4"/>
      <component glyphName="e" x="0" y="0" flags="0x4"/>
    </TTGlyph>
    <TTGlyph name="ecircumflex" xMin="27" yMin="-10" xMax="374" yMax="630">
      <component glyphName="circumflex" x="-12" y="0" flags="0x4"/>
      <component glyphName="e" x="0" y="0" flags="0x4"/>
    </TTGlyph>
    <TTGlyph name="edieresis" xMin="27" yMin="-10" xMax="374" yMax="581">
      <component glyphName="dieresis" x="-5" y="0" flags="0x4"/>
      <component glyphName="e" x="0" y="0" flags="0x4"/>
    </TTGlyph>
    <TTGlyph name="edotaccent" xMin="27" yMin="-10" xMax="358" yMax="581">
      <component glyphName="e" x="0" y="0" flags="0x204"/>
      <component glyphName="dotaccent" x="-7" y="0" flags="0x4"/>
    </TTGlyph>
    <TTGlyph name="egrave" xMin="27" yMin="-10" xMax="358" yMax="631">
      <component glyphName="e" x="0" y="0" flags="0x204"/>
      <component glyphName="grave" x="-67" y="0" flags="0x4"/>
    </TTGlyph>
    <TTGlyph name="eight" xMin="37" yMin="-11" xMax="422" yMax="668">
      <contour>
        <pt x="422" y="516" on="1"/>
        <pt x="422" y="459" on="0"/>
        <pt x="368" y="358" on="0"/>
        <pt x="311" y="331" on="1"/>
        <pt x="343" y="311" on="0"/>
        <pt x="376" y="243" on="0"/>
        <pt x="376" y="201" on="1"/>
        <pt x="376" y="159" on="0"/>
        <pt x="348" y="82" on="0"/>
        <pt x="298" y="24" on="0"/>
        <pt x="229" y="-11" on="0"/>
        <pt x="189" y="-11" on="1"/>
        <pt x="153" y="-11" on="0"/>
        <pt x="96" y="13" on="0"/>
        <pt x="57" y="55" on="0"/>
        <pt x="37" y="111" on="0"/>
        <pt x="37" y="144" on="1"/>
        <pt x="37" y="206" on="0"/>
        <pt x="96" y="315" on="0"/>
        <pt x="158" y="341" on="1"/>
        <pt x="129" y="364" on="0"/>
        <pt x="102" y="429" on="0"/>
        <pt x="102" y="464" on="1"/>
        <pt x="102" y="505" on="0"/>
        <pt x="129" y="579" on="0"/>
        <pt x="176" y="635" on="0"/>
        <pt x="241" y="668" on="0"/>
        <pt x="279" y="668" on="1"/>
        <pt x="312" y="668" on="0"/>
        <pt x="365" y="644" on="0"/>
        <pt x="402" y="603" on="0"/>
        <pt x="422" y="548" on="0"/>
      </contour>
      <contour>
        <pt x="351" y="512" on="1"/>
        <pt x="351" y="550" on="0"/>
        <pt x="314" y="605" on="0"/>
        <pt x="277" y="605" on="1"/>
        <pt x="254" y="605" on="0"/>
        <pt x="216" y="582" on="0"/>
        <pt x="188" y="542" on="0"/>
        <pt x="172" y="489" on="0"/>
        <pt x="172" y="459" on="1"/>
        <pt x="172" y="417" on="0"/>
        <pt x="212" y="365" on="0"/>
        <pt x="247" y="365" on="1"/>
        <pt x="269" y="365" on="0"/>
        <pt x="307" y="389" on="0"/>
        <pt x="335" y="429" on="0"/>
        <pt x="351" y="482" on="0"/>
      </contour>
      <contour>
        <pt x="304" y="207" on="1"/>
        <pt x="304" y="249" on="0"/>
        <pt x="262" y="304" on="0"/>
        <pt x="222" y="304" on="1"/>
        <pt x="197" y="304" on="0"/>
        <pt x="155" y="279" on="0"/>
        <pt x="125" y="237" on="0"/>
        <pt x="109" y="181" on="0"/>
        <pt x="109" y="149" on="1"/>
        <pt x="109" y="105" on="0"/>
        <pt x="155" y="53" on="0"/>
        <pt x="193" y="53" on="1"/>
        <pt x="218" y="53" on="0"/>
        <pt x="260" y="77" on="0"/>
        <pt x="288" y="119" on="0"/>
        <pt x="304" y="175" on="0"/>
      </contour>
    </TTGlyph>
    <TTGlyph name="eight.lin" xMin="40" yMin="-11" xMax="469" yMax="736">
      <contour>
        <pt x="213" y="-11" on="1"/>
        <pt x="171" y="-11" on="0"/>
        <pt x="106" y="17" on="0"/>
        <pt x="63" y="64" on="0"/>
        <pt x="40" y="126" on="0"/>
        <pt x="40" y="160" on="1"/>
        <pt x="40" y="230" on="0"/>
        <pt x="109" y="348" on="0"/>
        <pt x="175" y="376" on="1"/>
        <pt x="143" y="402" on="0"/>
        <pt x="112" y="474" on="0"/>
        <pt x="112" y="512" on="1"/>
        <pt x="112" y="559" on="0"/>
        <pt x="143" y="641" on="0"/>
        <pt x="195" y="701" on="0"/>
        <pt x="266" y="736" on="0"/>
        <pt x="307" y="736" on="1"/>
        <pt x="344" y="736" on="0"/>
        <pt x="404" y="710" on="0"/>
        <pt x="446" y="665" on="0"/>
        <pt x="469" y="603" on="0"/>
        <pt x="469" y="567" on="1"/>
        <pt x="469" y="535" on="0"/>
        <pt x="453" y="473" on="0"/>
        <pt x="422" y="418" on="0"/>
        <pt x="375" y="373" on="0"/>
        <pt x="345" y="359" on="1"/>
        <pt x="380" y="336" on="0"/>
        <pt x="418" y="265" on="0"/>
        <pt x="418" y="220" on="1"/>
        <pt x="418" y="173" on="0"/>
        <pt x="387" y="90" on="0"/>
        <pt x="332" y="26" on="0"/>
        <pt x="257" y="-11" on="0"/>
      </contour>
      <contour>
        <pt x="346" y="227" on="1"/>
        <pt x="346" y="277" on="0"/>
        <pt x="288" y="338" on="0"/>
        <pt x="243" y="338" on="1"/>
        <pt x="214" y="338" on="0"/>
        <pt x="167" y="310" on="0"/>
        <pt x="132" y="262" on="0"/>
        <pt x="113" y="199" on="0"/>
        <pt x="113" y="165" on="1"/>
        <pt x="113" y="116" on="0"/>
        <pt x="167" y="53" on="0"/>
        <pt x="215" y="53" on="1"/>
        <pt x="243" y="53" on="0"/>
        <pt x="292" y="80" on="0"/>
        <pt x="326" y="128" on="0"/>
        <pt x="346" y="191" on="0"/>
      </contour>
      <contour>
        <pt x="397" y="564" on="1"/>
        <pt x="397" y="613" on="0"/>
        <pt x="346" y="672" on="0"/>
        <pt x="304" y="672" on="1"/>
        <pt x="277" y="672" on="0"/>
        <pt x="232" y="646" on="0"/>
        <pt x="200" y="600" on="0"/>
        <pt x="183" y="539" on="0"/>
        <pt x="183" y="505" on="1"/>
        <pt x="183" y="459" on="0"/>
        <pt x="232" y="399" on="0"/>
        <pt x="276" y="399" on="1"/>
        <pt x="303" y="399" on="0"/>
        <pt x="347" y="425" on="0"/>
        <pt x="379" y="470" on="0"/>
        <pt x="397" y="530" on="0"/>
      </contour>
    </TTGlyph>
    <TTGlyph name="ellipsis" xMin="16" yMin="-10" xMax="485" yMax="86">
      <contour>
        <pt x="111" y="40" on="1"/>
        <pt x="111" y="20" on="0"/>
        <pt x="82" y="-10" on="0"/>
        <pt x="62" y="-10" on="1"/>
        <pt x="42" y="-10" on="0"/>
        <pt x="16" y="16" on="0"/>
        <pt x="16" y="36" on="1"/>
        <pt x="16" y="56" on="0"/>
        <pt x="45" y="86" on="0"/>
        <pt x="65" y="86" on="1"/>
        <pt x="85" y="86" on="0"/>
        <pt x="111" y="60" on="0"/>
      </contour>
      <contour>
        <pt x="298" y="40" on="1"/>
        <pt x="298" y="20" on="0"/>
        <pt x="269" y="-10" on="0"/>
        <pt x="249" y="-10" on="1"/>
        <pt x="229" y="-10" on="0"/>
        <pt x="203" y="16" on="0"/>
        <pt x="203" y="36" on="1"/>
        <pt x="203" y="56" on="0"/>
        <pt x="232" y="86" on="0"/>
        <pt x="252" y="86" on="1"/>
        <pt x="272" y="86" on="0"/>
        <pt x="298" y="60" on="0"/>
      </contour>
      <contour>
        <pt x="485" y="40" on="1"/>
        <pt x="485" y="20" on="0"/>
        <pt x="456" y="-10" on="0"/>
        <pt x="436" y="-10" on="1"/>
        <pt x="416" y="-10" on="0"/>
        <pt x="391" y="16" on="0"/>
        <pt x="391" y="36" on="1"/>
        <pt x="391" y="56" on="0"/>
        <pt x="420" y="86" on="0"/>
        <pt x="440" y="86" on="1"/>
        <pt x="460" y="86" on="0"/>
        <pt x="485" y="60" on="0"/>
      </contour>
    </TTGlyph>
    <TTGlyph name="emacron" xMin="27" yMin="-10" xMax="384" yMax="559">
      <component glyphName="e" x="0" y="0" flags="0x204"/>
      <component glyphName="macron" x="-5" y="0" flags="0x4"/>
    </TTGlyph>
    <TTGlyph name="emdash" xMin="40" yMin="224" xMax="542" yMax="290">
      <contour>
        <pt x="530" y="224" on="1"/>
        <pt x="40" y="224" on="1"/>
        <pt x="52" y="290" on="1"/>
        <pt x="542" y="290" on="1"/>
      </contour>
    </TTGlyph>
    <TTGlyph name="emdash.cap" xMin="61" yMin="338" xMax="563" yMax="404">
      <component glyphName="emdash" x="21" y="114" flags="0x204"/>
    </TTGlyph>
    <TTGlyph name="endash" xMin="39" yMin="224" xMax="349" yMax="290">
      <contour>
        <pt x="336" y="224" on="1"/>
        <pt x="39" y="224" on="1"/>
        <pt x="52" y="290" on="1"/>
        <pt x="349" y="290" on="1"/>
      </contour>
    </TTGlyph>
    <TTGlyph name="endash.cap" xMin="61" yMin="338" xMax="371" yMax="404">
      <component glyphName="endash" x="22" y="114" flags="0x204"/>
    </TTGlyph>
    <TTGlyph name="eogonek" xMin="27" yMin="-202" xMax="358" yMax="445">
      <contour>
        <pt x="184" y="-10" on="1"/>
        <pt x="153" y="-10" on="0"/>
        <pt x="96" y="8" on="0"/>
        <pt x="53" y="49" on="0"/>
        <pt x="27" y="113" on="0"/>
        <pt x="27" y="158" on="1"/>
        <pt x="27" y="205" on="0"/>
        <pt x="56" y="306" on="0"/>
        <pt x="110" y="390" on="0"/>
        <pt x="186" y="445" on="0"/>
        <pt x="234" y="445" on="1"/>
        <pt x="296" y="445" on="0"/>
        <pt x="358" y="360" on="0"/>
        <pt x="358" y="294" on="1"/>
        <pt x="358" y="253" on="0"/>
        <pt x="343" y="198" on="1"/>
        <pt x="100" y="198" on="1"/>
        <pt x="98" y="190" on="0"/>
        <pt x="98" y="172" on="0"/>
        <pt x="98" y="161" on="1"/>
        <pt x="98" y="108" on="0"/>
        <pt x="148" y="52" on="0"/>
        <pt x="194" y="52" on="1"/>
        <pt x="212" y="52" on="0"/>
        <pt x="257" y="64" on="0"/>
        <pt x="278" y="74" on="1"/>
        <pt x="291" y="16" on="1"/>
        <pt x="272" y="1" on="0"/>
        <pt x="237" y="-34" on="0"/>
        <pt x="211" y="-70" on="0"/>
        <pt x="195" y="-106" on="0"/>
        <pt x="195" y="-122" on="1"/>
        <pt x="195" y="-151" on="0"/>
        <pt x="218" y="-151" on="1"/>
        <pt x="236" y="-151" on="0"/>
        <pt x="257" y="-133" on="1"/>
        <pt x="275" y="-167" on="1"/>
        <pt x="258" y="-184" on="0"/>
        <pt x="222" y="-201" on="0"/>
        <pt x="199" y="-201" on="1"/>
        <pt x="170" y="-202" on="0"/>
        <pt x="137" y="-168" on="0"/>
        <pt x="137" y="-140" on="1"/>
        <pt x="137" y="-106" on="0"/>
        <pt x="176" y="-41" on="0"/>
        <pt x="209" y="-9" on="1"/>
        <pt x="203" y="-10" on="0"/>
        <pt x="191" y="-10" on="0"/>
      </contour>
      <contour>
        <pt x="284" y="253" on="1"/>
        <pt x="287" y="264" on="0"/>
        <pt x="290" y="297" on="0"/>
        <pt x="290" y="309" on="1"/>
        <pt x="290" y="340" on="0"/>
        <pt x="260" y="383" on="0"/>
        <pt x="229" y="383" on="1"/>
        <pt x="210" y="383" on="0"/>
        <pt x="174" y="363" on="0"/>
        <pt x="144" y="327" on="0"/>
        <pt x="120" y="280" on="0"/>
        <pt x="112" y="253" on="1"/>
      </contour>
    </TTGlyph>
    <TTGlyph name="equal" xMin="46" yMin="232" xMax="316" yMax="439">
      <contour>
        <pt x="278" y="232" on="1"/>
        <pt x="46" y="232" on="1"/>
        <pt x="58" y="294" on="1"/>
        <pt x="290" y="294" on="1"/>
      </contour>
      <contour>
        <pt x="305" y="377" on="1"/>
        <pt x="73" y="377" on="1"/>
        <pt x="84" y="439" on="1"/>
        <pt x="316" y="439" on="1"/>
      </contour>
    </TTGlyph>
    <TTGlyph name="equal.lin" xMin="51" yMin="267" xMax="321" yMax="474">
      <component glyphName="equal" x="5" y="35" flags="0x4"/>
    </TTGlyph>
    <TTGlyph name="eth" xMin="25" yMin="-9" xMax="370" yMax="732">
      <contour>
        <pt x="287" y="618" on="1"/>
        <pt x="322" y="565" on="0"/>
        <pt x="370" y="424" on="0"/>
        <pt x="370" y="333" on="1"/>
        <pt x="370" y="259" on="0"/>
        <pt x="340" y="133" on="0"/>
        <pt x="285" y="42" on="0"/>
        <pt x="209" y="-9" on="0"/>
        <pt x="163" y="-9" on="1"/>
        <pt x="100" y="-9" on="0"/>
        <pt x="25" y="85" on="0"/>
        <pt x="25" y="164" on="1"/>
        <pt x="25" y="218" on="0"/>
        <pt x="56" y="319" on="0"/>
        <pt x="109" y="397" on="0"/>
        <pt x="180" y="444" on="0"/>
        <pt x="220" y="444" on="1"/>
        <pt x="245" y="444" on="0"/>
        <pt x="289" y="417" on="0"/>
        <pt x="303" y="388" on="1"/>
        <pt x="297" y="447" on="0"/>
        <pt x="258" y="541" on="0"/>
        <pt x="232" y="579" on="1"/>
        <pt x="156" y="526" on="1"/>
        <pt x="124" y="574" on="1"/>
        <pt x="196" y="625" on="1"/>
        <pt x="182" y="642" on="0"/>
        <pt x="152" y="671" on="0"/>
        <pt x="138" y="684" on="1"/>
        <pt x="181" y="732" on="1"/>
        <pt x="198" y="719" on="0"/>
        <pt x="235" y="685" on="0"/>
        <pt x="252" y="665" on="1"/>
        <pt x="322" y="715" on="1"/>
        <pt x="355" y="666" on="1"/>
      </contour>
      <contour>
        <pt x="294" y="274" on="1"/>
        <pt x="294" y="322" on="0"/>
        <pt x="257" y="381" on="0"/>
        <pt x="220" y="381" on="1"/>
        <pt x="193" y="381" on="0"/>
        <pt x="147" y="341" on="0"/>
        <pt x="114" y="277" on="0"/>
        <pt x="95" y="197" on="0"/>
        <pt x="95" y="157" on="1"/>
        <pt x="95" y="109" on="0"/>
        <pt x="132" y="52" on="0"/>
        <pt x="168" y="52" on="1"/>
        <pt x="195" y="52" on="0"/>
        <pt x="241" y="93" on="0"/>
        <pt x="275" y="157" on="0"/>
        <pt x="294" y="236" on="0"/>
      </contour>
    </TTGlyph>
    <TTGlyph name="exclam" xMin="12" yMin="-10" xMax="227" yMax="733">
      <contour>
        <pt x="108" y="179" on="1"/>
        <pt x="59" y="182" on="1"/>
        <pt x="145" y="733" on="1"/>
        <pt x="227" y="733" on="1"/>
      </contour>
      <contour>
        <pt x="107" y="40" on="1"/>
        <pt x="107" y="20" on="0"/>
        <pt x="78" y="-10" on="0"/>
        <pt x="58" y="-10" on="1"/>
        <pt x="38" y="-10" on="0"/>
        <pt x="12" y="16" on="0"/>
        <pt x="12" y="36" on="1"/>
        <pt x="12" y="56" on="0"/>
        <pt x="41" y="86" on="0"/>
        <pt x="61" y="86" on="1"/>
        <pt x="81" y="86" on="0"/>
        <pt x="107" y="60" on="0"/>
      </contour>
    </TTGlyph>
    <TTGlyph name="exclamdown" xMin="8" yMin="0" xMax="223" yMax="743">
      <contour>
        <pt x="223" y="697" on="1"/>
        <pt x="223" y="677" on="0"/>
        <pt x="194" y="647" on="0"/>
        <pt x="174" y="647" on="1"/>
        <pt x="154" y="647" on="0"/>
        <pt x="128" y="673" on="0"/>
        <pt x="128" y="693" on="1"/>
        <pt x="128" y="713" on="0"/>
        <pt x="157" y="743" on="0"/>
        <pt x="177" y="743" on="1"/>
        <pt x="197" y="743" on="0"/>
        <pt x="223" y="717" on="0"/>
      </contour>
      <contour>
        <pt x="90" y="0" on="1"/>
        <pt x="8" y="0" on="1"/>
        <pt x="127" y="554" on="1"/>
        <pt x="176" y="551" on="1"/>
      </contour>
    </TTGlyph>
    <TTGlyph name="f" xMin="-4" yMin="-199" xMax="351" yMax="739">
      <contour>
        <pt x="326" y="663" on="1"/>
        <pt x="318" y="666" on="0"/>
        <pt x="296" y="672" on="0"/>
        <pt x="286" y="672" on="1"/>
        <pt x="268" y="672" on="0"/>
        <pt x="244" y="663" on="0"/>
        <pt x="227" y="641" on="0"/>
        <pt x="215" y="603" on="0"/>
        <pt x="210" y="574" on="1"/>
        <pt x="184" y="435" on="1"/>
        <pt x="273" y="435" on="1"/>
        <pt x="260" y="371" on="1"/>
        <pt x="172" y="371" on="1"/>
        <pt x="67" y="-199" on="1"/>
        <pt x="-4" y="-199" on="1"/>
        <pt x="101" y="371" on="1"/>
        <pt x="39" y="371" on="1"/>
        <pt x="40" y="383" on="1"/>
        <pt x="114" y="442" on="1"/>
        <pt x="139" y="576" on="1"/>
        <pt x="155" y="666" on="0"/>
        <pt x="227" y="739" on="0"/>
        <pt x="286" y="739" on="1"/>
        <pt x="308" y="739" on="0"/>
        <pt x="340" y="731" on="0"/>
        <pt x="351" y="727" on="1"/>
      </contour>
    </TTGlyph>
    <TTGlyph name="f_f" xMin="-4" yMin="-199" xMax="568" yMax="739">
      <contour>
        <pt x="326" y="663" on="1"/>
        <pt x="318" y="666" on="0"/>
        <pt x="295" y="672" on="0"/>
        <pt x="285" y="672" on="1"/>
        <pt x="250" y="672" on="0"/>
        <pt x="220" y="630" on="0"/>
        <pt x="210" y="577" on="1"/>
        <pt x="184" y="435" on="1"/>
        <pt x="273" y="435" on="1"/>
        <pt x="268" y="411" on="1"/>
        <pt x="331" y="438" on="1"/>
        <pt x="355" y="572" on="1"/>
        <pt x="372" y="660" on="0"/>
        <pt x="441" y="739" on="0"/>
        <pt x="504" y="739" on="1"/>
        <pt x="524" y="739" on="0"/>
        <pt x="557" y="731" on="0"/>
        <pt x="568" y="727" on="1"/>
        <pt x="543" y="663" on="1"/>
        <pt x="535" y="666" on="0"/>
        <pt x="513" y="672" on="0"/>
        <pt x="502" y="672" on="1"/>
        <pt x="467" y="672" on="0"/>
        <pt x="437" y="630" on="0"/>
        <pt x="427" y="577" on="1"/>
        <pt x="401" y="435" on="1"/>
        <pt x="490" y="435" on="1"/>
        <pt x="478" y="371" on="1"/>
        <pt x="389" y="371" on="1"/>
        <pt x="285" y="-199" on="1"/>
        <pt x="213" y="-199" on="1"/>
        <pt x="318" y="371" on="1"/>
        <pt x="172" y="371" on="1"/>
        <pt x="67" y="-199" on="1"/>
        <pt x="-4" y="-199" on="1"/>
        <pt x="101" y="371" on="1"/>
        <pt x="39" y="371" on="1"/>
        <pt x="40" y="383" on="1"/>
        <pt x="114" y="442" on="1"/>
        <pt x="138" y="572" on="1"/>
        <pt x="154" y="659" on="0"/>
        <pt x="223" y="739" on="0"/>
        <pt x="287" y="739" on="1"/>
        <pt x="307" y="739" on="0"/>
        <pt x="340" y="731" on="0"/>
        <pt x="351" y="727" on="1"/>
      </contour>
    </TTGlyph>
    <TTGlyph name="f_f_i" xMin="-4" yMin="-199" xMax="657" yMax="739">
      <contour>
        <pt x="543" y="663" on="1"/>
        <pt x="535" y="666" on="0"/>
        <pt x="513" y="672" on="0"/>
        <pt x="502" y="672" on="1"/>
        <pt x="467" y="672" on="0"/>
        <pt x="437" y="630" on="0"/>
        <pt x="427" y="577" on="1"/>
        <pt x="401" y="435" on="1"/>
        <pt x="490" y="435" on="1"/>
        <pt x="478" y="371" on="1"/>
        <pt x="389" y="371" on="1"/>
        <pt x="285" y="-199" on="1"/>
        <pt x="213" y="-199" on="1"/>
        <pt x="318" y="371" on="1"/>
        <pt x="172" y="371" on="1"/>
        <pt x="67" y="-199" on="1"/>
        <pt x="-4" y="-199" on="1"/>
        <pt x="101" y="371" on="1"/>
        <pt x="39" y="371" on="1"/>
        <pt x="40" y="383" on="1"/>
        <pt x="114" y="442" on="1"/>
        <pt x="138" y="572" on="1"/>
        <pt x="154" y="659" on="0"/>
        <pt x="223" y="739" on="0"/>
        <pt x="287" y="739" on="1"/>
        <pt x="307" y="739" on="0"/>
        <pt x="340" y="731" on="0"/>
        <pt x="351" y="727" on="1"/>
        <pt x="326" y="663" on="1"/>
        <pt x="318" y="666" on="0"/>
        <pt x="295" y="672" on="0"/>
        <pt x="285" y="672" on="1"/>
        <pt x="250" y="672" on="0"/>
        <pt x="220" y="630" on="0"/>
        <pt x="210" y="577" on="1"/>
        <pt x="184" y="435" on="1"/>
        <pt x="273" y="435" on="1"/>
        <pt x="268" y="411" on="1"/>
        <pt x="331" y="438" on="1"/>
        <pt x="355" y="572" on="1"/>
        <pt x="372" y="660" on="0"/>
        <pt x="441" y="739" on="0"/>
        <pt x="504" y="739" on="1"/>
        <pt x="524" y="739" on="0"/>
        <pt x="557" y="731" on="0"/>
        <pt x="568" y="727" on="1"/>
      </contour>
      <contour>
        <pt x="544" y="0" on="1"/>
        <pt x="471" y="0" on="1"/>
        <pt x="551" y="435" on="1"/>
        <pt x="624" y="435" on="1"/>
      </contour>
      <contour>
        <pt x="657" y="572" on="1"/>
        <pt x="657" y="551" on="0"/>
        <pt x="629" y="521" on="0"/>
        <pt x="609" y="521" on="1"/>
        <pt x="589" y="521" on="0"/>
        <pt x="565" y="547" on="0"/>
        <pt x="565" y="567" on="1"/>
        <pt x="565" y="589" on="0"/>
        <pt x="593" y="619" on="0"/>
        <pt x="613" y="619" on="1"/>
        <pt x="633" y="619" on="0"/>
        <pt x="657" y="592" on="0"/>
      </contour>
    </TTGlyph>
    <TTGlyph name="f_f_l" xMin="-4" yMin="-199" xMax="676" yMax="739">
      <contour>
        <pt x="543" y="663" on="1"/>
        <pt x="535" y="666" on="0"/>
        <pt x="513" y="672" on="0"/>
        <pt x="502" y="672" on="1"/>
        <pt x="467" y="672" on="0"/>
        <pt x="437" y="630" on="0"/>
        <pt x="427" y="577" on="1"/>
        <pt x="401" y="435" on="1"/>
        <pt x="490" y="435" on="1"/>
        <pt x="478" y="371" on="1"/>
        <pt x="389" y="371" on="1"/>
        <pt x="285" y="-199" on="1"/>
        <pt x="213" y="-199" on="1"/>
        <pt x="318" y="371" on="1"/>
        <pt x="172" y="371" on="1"/>
        <pt x="67" y="-199" on="1"/>
        <pt x="-4" y="-199" on="1"/>
        <pt x="101" y="371" on="1"/>
        <pt x="39" y="371" on="1"/>
        <pt x="40" y="383" on="1"/>
        <pt x="114" y="442" on="1"/>
        <pt x="138" y="572" on="1"/>
        <pt x="154" y="659" on="0"/>
        <pt x="223" y="739" on="0"/>
        <pt x="287" y="739" on="1"/>
        <pt x="307" y="739" on="0"/>
        <pt x="340" y="731" on="0"/>
        <pt x="351" y="727" on="1"/>
        <pt x="326" y="663" on="1"/>
        <pt x="318" y="666" on="0"/>
        <pt x="295" y="672" on="0"/>
        <pt x="285" y="672" on="1"/>
        <pt x="250" y="672" on="0"/>
        <pt x="220" y="630" on="0"/>
        <pt x="210" y="577" on="1"/>
        <pt x="184" y="435" on="1"/>
        <pt x="273" y="435" on="1"/>
        <pt x="268" y="411" on="1"/>
        <pt x="331" y="438" on="1"/>
        <pt x="355" y="572" on="1"/>
        <pt x="372" y="660" on="0"/>
        <pt x="441" y="739" on="0"/>
        <pt x="504" y="739" on="1"/>
        <pt x="524" y="739" on="0"/>
        <pt x="557" y="731" on="0"/>
        <pt x="568" y="727" on="1"/>
      </contour>
      <contour>
        <pt x="541" y="0" on="1"/>
        <pt x="468" y="0" on="1"/>
        <pt x="603" y="733" on="1"/>
        <pt x="676" y="733" on="1"/>
      </contour>
    </TTGlyph>
    <TTGlyph name="fi" xMin="-4" yMin="-199" xMax="439" yMax="739">
      <contour>
        <pt x="326" y="663" on="1"/>
        <pt x="318" y="666" on="0"/>
        <pt x="296" y="672" on="0"/>
        <pt x="286" y="672" on="1"/>
        <pt x="268" y="672" on="0"/>
        <pt x="244" y="663" on="0"/>
        <pt x="227" y="641" on="0"/>
        <pt x="215" y="603" on="0"/>
        <pt x="210" y="574" on="1"/>
        <pt x="184" y="435" on="1"/>
        <pt x="273" y="435" on="1"/>
        <pt x="260" y="371" on="1"/>
        <pt x="172" y="371" on="1"/>
        <pt x="67" y="-199" on="1"/>
        <pt x="-4" y="-199" on="1"/>
        <pt x="101" y="371" on="1"/>
        <pt x="39" y="371" on="1"/>
        <pt x="40" y="383" on="1"/>
        <pt x="114" y="442" on="1"/>
        <pt x="139" y="576" on="1"/>
        <pt x="155" y="666" on="0"/>
        <pt x="227" y="739" on="0"/>
        <pt x="286" y="739" on="1"/>
        <pt x="308" y="739" on="0"/>
        <pt x="340" y="731" on="0"/>
        <pt x="351" y="727" on="1"/>
      </contour>
      <contour>
        <pt x="327" y="0" on="1"/>
        <pt x="254" y="0" on="1"/>
        <pt x="334" y="435" on="1"/>
        <pt x="407" y="435" on="1"/>
      </contour>
      <contour>
        <pt x="439" y="572" on="1"/>
        <pt x="439" y="551" on="0"/>
        <pt x="412" y="521" on="0"/>
        <pt x="392" y="521" on="1"/>
        <pt x="372" y="521" on="0"/>
        <pt x="348" y="547" on="0"/>
        <pt x="348" y="567" on="1"/>
        <pt x="348" y="589" on="0"/>
        <pt x="376" y="619" on="0"/>
        <pt x="396" y="619" on="1"/>
        <pt x="415" y="619" on="0"/>
        <pt x="439" y="592" on="0"/>
      </contour>
    </TTGlyph>
    <TTGlyph name="five" xMin="11" yMin="-11" xMax="408" yMax="658">
      <contour>
        <pt x="395" y="590" on="1"/>
        <pt x="203" y="590" on="1"/>
        <pt x="165" y="400" on="1"/>
        <pt x="169" y="401" on="0"/>
        <pt x="177" y="401" on="1"/>
        <pt x="219" y="401" on="0"/>
        <pt x="284" y="375" on="0"/>
        <pt x="328" y="330" on="0"/>
        <pt x="350" y="269" on="0"/>
        <pt x="350" y="233" on="1"/>
        <pt x="350" y="184" on="0"/>
        <pt x="322" y="96" on="0"/>
        <pt x="269" y="29" on="0"/>
        <pt x="195" y="-11" on="0"/>
        <pt x="149" y="-11" on="1"/>
        <pt x="110" y="-11" on="0"/>
        <pt x="42" y="9" on="0"/>
        <pt x="11" y="26" on="1"/>
        <pt x="40" y="87" on="1"/>
        <pt x="66" y="73" on="0"/>
        <pt x="120" y="55" on="0"/>
        <pt x="147" y="55" on="1"/>
        <pt x="177" y="55" on="0"/>
        <pt x="224" y="82" on="0"/>
        <pt x="257" y="129" on="0"/>
        <pt x="275" y="190" on="0"/>
        <pt x="275" y="225" on="1"/>
        <pt x="275" y="337" on="0"/>
        <pt x="150" y="337" on="1"/>
        <pt x="135" y="337" on="0"/>
        <pt x="106" y="333" on="0"/>
        <pt x="91" y="330" on="1"/>
        <pt x="84" y="338" on="1"/>
        <pt x="145" y="658" on="1"/>
        <pt x="408" y="658" on="1"/>
      </contour>
    </TTGlyph>
    <TTGlyph name="five.lin" xMin="15" yMin="-11" xMax="452" yMax="725">
      <contour>
        <pt x="440" y="657" on="1"/>
        <pt x="219" y="657" on="1"/>
        <pt x="175" y="437" on="1"/>
        <pt x="180" y="437" on="0"/>
        <pt x="190" y="438" on="0"/>
        <pt x="194" y="438" on="1"/>
        <pt x="244" y="438" on="0"/>
        <pt x="318" y="409" on="0"/>
        <pt x="366" y="359" on="0"/>
        <pt x="390" y="291" on="0"/>
        <pt x="390" y="253" on="1"/>
        <pt x="390" y="200" on="0"/>
        <pt x="359" y="104" on="0"/>
        <pt x="300" y="32" on="0"/>
        <pt x="216" y="-11" on="0"/>
        <pt x="164" y="-11" on="1"/>
        <pt x="88" y="-11" on="0"/>
        <pt x="15" y="30" on="1"/>
        <pt x="43" y="91" on="1"/>
        <pt x="72" y="76" on="0"/>
        <pt x="134" y="55" on="0"/>
        <pt x="165" y="55" on="1"/>
        <pt x="199" y="55" on="0"/>
        <pt x="255" y="85" on="0"/>
        <pt x="294" y="136" on="0"/>
        <pt x="315" y="205" on="0"/>
        <pt x="315" y="245" on="1"/>
        <pt x="315" y="310" on="0"/>
        <pt x="236" y="375" on="0"/>
        <pt x="164" y="375" on="1"/>
        <pt x="147" y="375" on="0"/>
        <pt x="116" y="371" on="0"/>
        <pt x="99" y="368" on="1"/>
        <pt x="93" y="375" on="1"/>
        <pt x="163" y="725" on="1"/>
        <pt x="452" y="725" on="1"/>
      </contour>
    </TTGlyph>
    <TTGlyph name="fl" xMin="-4" yMin="-199" xMax="459" yMax="739">
      <contour>
        <pt x="323" y="0" on="1"/>
        <pt x="251" y="0" on="1"/>
        <pt x="386" y="733" on="1"/>
        <pt x="459" y="733" on="1"/>
      </contour>
      <contour>
        <pt x="326" y="663" on="1"/>
        <pt x="318" y="666" on="0"/>
        <pt x="296" y="672" on="0"/>
        <pt x="286" y="672" on="1"/>
        <pt x="268" y="672" on="0"/>
        <pt x="244" y="663" on="0"/>
        <pt x="227" y="641" on="0"/>
        <pt x="215" y="603" on="0"/>
        <pt x="210" y="574" on="1"/>
        <pt x="184" y="435" on="1"/>
        <pt x="273" y="435" on="1"/>
        <pt x="260" y="371" on="1"/>
        <pt x="172" y="371" on="1"/>
        <pt x="67" y="-199" on="1"/>
        <pt x="-4" y="-199" on="1"/>
        <pt x="101" y="371" on="1"/>
        <pt x="39" y="371" on="1"/>
        <pt x="40" y="383" on="1"/>
        <pt x="114" y="442" on="1"/>
        <pt x="139" y="576" on="1"/>
        <pt x="155" y="666" on="0"/>
        <pt x="227" y="739" on="0"/>
        <pt x="286" y="739" on="1"/>
        <pt x="308" y="739" on="0"/>
        <pt x="340" y="731" on="0"/>
        <pt x="351" y="727" on="1"/>
      </contour>
    </TTGlyph>
    <TTGlyph name="florin" xMin="21" yMin="0" xMax="383" yMax="669">
      <contour>
        <pt x="359" y="593" on="1"/>
        <pt x="351" y="596" on="0"/>
        <pt x="328" y="601" on="0"/>
        <pt x="317" y="601" on="1"/>
        <pt x="283" y="601" on="0"/>
        <pt x="246" y="557" on="0"/>
        <pt x="232" y="506" on="1"/>
        <pt x="204" y="403" on="1"/>
        <pt x="290" y="403" on="1"/>
        <pt x="279" y="339" on="1"/>
        <pt x="186" y="339" on="1"/>
        <pt x="93" y="0" on="1"/>
        <pt x="21" y="0" on="1"/>
        <pt x="114" y="339" on="1"/>
        <pt x="58" y="339" on="1"/>
        <pt x="59" y="351" on="1"/>
        <pt x="134" y="407" on="1"/>
        <pt x="159" y="501" on="1"/>
        <pt x="184" y="589" on="0"/>
        <pt x="260" y="669" on="0"/>
        <pt x="323" y="669" on="1"/>
        <pt x="343" y="669" on="0"/>
        <pt x="372" y="661" on="0"/>
        <pt x="383" y="657" on="1"/>
      </contour>
    </TTGlyph>
    <TTGlyph name="florin.lin" xMin="8" yMin="0" xMax="431" yMax="736">
      <contour>
        <pt x="405" y="658" on="1"/>
        <pt x="391" y="663" on="0"/>
        <pt x="365" y="671" on="0"/>
        <pt x="348" y="671" on="1"/>
        <pt x="303" y="671" on="0"/>
        <pt x="252" y="617" on="0"/>
        <pt x="235" y="560" on="1"/>
        <pt x="201" y="435" on="1"/>
        <pt x="314" y="435" on="1"/>
        <pt x="302" y="370" on="1"/>
        <pt x="183" y="370" on="1"/>
        <pt x="80" y="0" on="1"/>
        <pt x="8" y="0" on="1"/>
        <pt x="111" y="370" on="1"/>
        <pt x="49" y="370" on="1"/>
        <pt x="52" y="383" on="1"/>
        <pt x="130" y="439" on="1"/>
        <pt x="164" y="561" on="1"/>
        <pt x="214" y="736" on="0"/>
        <pt x="353" y="736" on="1"/>
        <pt x="377" y="736" on="0"/>
        <pt x="419" y="725" on="0"/>
        <pt x="431" y="719" on="1"/>
      </contour>
    </TTGlyph>
    <TTGlyph name="four" xMin="12" yMin="-1" xMax="402" yMax="664">
      <contour>
        <pt x="390" y="190" on="1"/>
        <pt x="313" y="190" on="1"/>
        <pt x="279" y="-1" on="1"/>
        <pt x="212" y="-1" on="1"/>
        <pt x="246" y="190" on="1"/>
        <pt x="12" y="190" on="1"/>
        <pt x="16" y="213" on="1"/>
        <pt x="363" y="664" on="1"/>
        <pt x="400" y="664" on="1"/>
        <pt x="325" y="255" on="1"/>
        <pt x="402" y="255" on="1"/>
      </contour>
      <contour>
        <pt x="302" y="496" on="1"/>
        <pt x="124" y="254" on="1"/>
        <pt x="258" y="254" on="1"/>
      </contour>
    </TTGlyph>
    <TTGlyph name="four.lin" xMin="10" yMin="0" xMax="453" yMax="730">
      <contour>
        <pt x="442" y="211" on="1"/>
        <pt x="350" y="211" on="1"/>
        <pt x="312" y="0" on="1"/>
        <pt x="243" y="0" on="1"/>
        <pt x="282" y="211" on="1"/>
        <pt x="10" y="211" on="1"/>
        <pt x="14" y="232" on="1"/>
        <pt x="404" y="730" on="1"/>
        <pt x="446" y="730" on="1"/>
        <pt x="362" y="277" on="1"/>
        <pt x="453" y="277" on="1"/>
      </contour>
      <contour>
        <pt x="348" y="566" on="1"/>
        <pt x="126" y="276" on="1"/>
        <pt x="293" y="276" on="1"/>
      </contour>
    </TTGlyph>
    <TTGlyph name="fraction" xMin="-22" yMin="-14" xMax="553" yMax="685">
      <contour>
        <pt x="17" y="-14" on="1"/>
        <pt x="-22" y="15" on="1"/>
        <pt x="514" y="685" on="1"/>
        <pt x="553" y="656" on="1"/>
      </contour>
    </TTGlyph>
    <TTGlyph name="fraction.lin" xMin="-21" yMin="-13" xMax="615" yMax="752">
      <contour>
        <pt x="23" y="-13" on="1"/>
        <pt x="-21" y="20" on="1"/>
        <pt x="572" y="752" on="1"/>
        <pt x="615" y="719" on="1"/>
      </contour>
    </TTGlyph>
    <TTGlyph name="g" xMin="12" yMin="-206" xMax="386" yMax="443">
      <contour>
        <pt x="298" y="-41" on="1"/>
        <pt x="289" y="-89" on="0"/>
        <pt x="257" y="-152" on="0"/>
        <pt x="212" y="-190" on="0"/>
        <pt x="157" y="-206" on="0"/>
        <pt x="125" y="-206" on="1"/>
        <pt x="99" y="-206" on="0"/>
        <pt x="38" y="-193" on="0"/>
        <pt x="12" y="-182" on="1"/>
        <pt x="33" y="-119" on="1"/>
        <pt x="61" y="-130" on="0"/>
        <pt x="110" y="-140" on="0"/>
        <pt x="130" y="-140" on="1"/>
        <pt x="171" y="-140" on="0"/>
        <pt x="215" y="-96" on="0"/>
        <pt x="225" y="-46" on="1"/>
        <pt x="240" y="33" on="1"/>
        <pt x="222" y="16" on="0"/>
        <pt x="179" y="-9" on="0"/>
        <pt x="150" y="-9" on="1"/>
        <pt x="124" y="-9" on="0"/>
        <pt x="78" y="12" on="0"/>
        <pt x="43" y="52" on="0"/>
        <pt x="23" y="109" on="0"/>
        <pt x="23" y="146" on="1"/>
        <pt x="23" y="207" on="0"/>
        <pt x="54" y="315" on="0"/>
        <pt x="107" y="396" on="0"/>
        <pt x="179" y="443" on="0"/>
        <pt x="220" y="443" on="1"/>
        <pt x="246" y="443" on="0"/>
        <pt x="292" y="424" on="0"/>
        <pt x="310" y="405" on="1"/>
        <pt x="316" y="435" on="1"/>
        <pt x="386" y="435" on="1"/>
      </contour>
      <contour>
        <pt x="297" y="351" on="1"/>
        <pt x="267" y="383" on="0"/>
        <pt x="225" y="383" on="1"/>
        <pt x="196" y="383" on="0"/>
        <pt x="149" y="343" on="0"/>
        <pt x="114" y="278" on="0"/>
        <pt x="95" y="196" on="0"/>
        <pt x="95" y="155" on="1"/>
        <pt x="95" y="103" on="0"/>
        <pt x="138" y="52" on="0"/>
        <pt x="173" y="52" on="1"/>
        <pt x="195" y="52" on="0"/>
        <pt x="233" y="75" on="0"/>
        <pt x="250" y="92" on="1"/>
      </contour>
    </TTGlyph>
    <TTGlyph name="gbreve" xMin="12" yMin="-206" xMax="392" yMax="607">
      <component glyphName="g" x="0" y="0" flags="0x204"/>
      <component glyphName="breve" x="4" y="0" flags="0x4"/>
    </TTGlyph>
    <TTGlyph name="gcommaaccent" xMin="12" yMin="-206" xMax="386" yMax="685">
      <contour>
        <pt x="223" y="546" on="1"/>
        <pt x="223" y="565" on="0"/>
        <pt x="242" y="604" on="0"/>
        <pt x="273" y="642" on="0"/>
        <pt x="314" y="674" on="0"/>
        <pt x="336" y="685" on="1"/>
        <pt x="345" y="671" on="1"/>
        <pt x="312" y="646" on="0"/>
        <pt x="282" y="606" on="0"/>
        <pt x="274" y="586" on="1"/>
        <pt x="293" y="583" on="0"/>
        <pt x="313" y="558" on="0"/>
        <pt x="313" y="543" on="1"/>
        <pt x="313" y="523" on="0"/>
        <pt x="286" y="496" on="0"/>
        <pt x="267" y="496" on="1"/>
        <pt x="248" y="496" on="0"/>
        <pt x="223" y="523" on="0"/>
      </contour>
      <contour>
        <pt x="298" y="-41" on="1"/>
        <pt x="289" y="-89" on="0"/>
        <pt x="257" y="-152" on="0"/>
        <pt x="212" y="-190" on="0"/>
        <pt x="157" y="-206" on="0"/>
        <pt x="125" y="-206" on="1"/>
        <pt x="99" y="-206" on="0"/>
        <pt x="38" y="-193" on="0"/>
        <pt x="12" y="-182" on="1"/>
        <pt x="33" y="-119" on="1"/>
        <pt x="61" y="-130" on="0"/>
        <pt x="110" y="-140" on="0"/>
        <pt x="130" y="-140" on="1"/>
        <pt x="171" y="-140" on="0"/>
        <pt x="215" y="-96" on="0"/>
        <pt x="225" y="-46" on="1"/>
        <pt x="240" y="33" on="1"/>
        <pt x="222" y="16" on="0"/>
        <pt x="179" y="-9" on="0"/>
        <pt x="150" y="-9" on="1"/>
        <pt x="124" y="-9" on="0"/>
        <pt x="78" y="12" on="0"/>
        <pt x="43" y="52" on="0"/>
        <pt x="23" y="109" on="0"/>
        <pt x="23" y="146" on="1"/>
        <pt x="23" y="207" on="0"/>
        <pt x="54" y="315" on="0"/>
        <pt x="107" y="396" on="0"/>
        <pt x="179" y="443" on="0"/>
        <pt x="220" y="443" on="1"/>
        <pt x="246" y="443" on="0"/>
        <pt x="292" y="424" on="0"/>
        <pt x="310" y="405" on="1"/>
        <pt x="316" y="435" on="1"/>
        <pt x="386" y="435" on="1"/>
      </contour>
      <contour>
        <pt x="297" y="351" on="1"/>
        <pt x="267" y="383" on="0"/>
        <pt x="225" y="383" on="1"/>
        <pt x="196" y="383" on="0"/>
        <pt x="149" y="343" on="0"/>
        <pt x="114" y="278" on="0"/>
        <pt x="95" y="196" on="0"/>
        <pt x="95" y="155" on="1"/>
        <pt x="95" y="103" on="0"/>
        <pt x="138" y="52" on="0"/>
        <pt x="173" y="52" on="1"/>
        <pt x="195" y="52" on="0"/>
        <pt x="233" y="75" on="0"/>
        <pt x="250" y="92" on="1"/>
      </contour>
    </TTGlyph>
    <TTGlyph name="gdotaccent" xMin="12" yMin="-206" xMax="386" yMax="581">
      <component glyphName="g" x="0" y="0" flags="0x204"/>
      <component glyphName="dotaccent" x="0" y="0" flags="0x4"/>
    </TTGlyph>
    <TTGlyph name="germandbls" xMin="2" yMin="-94" xMax="409" yMax="740">
      <contour>
        <pt x="249" y="208" on="1"/>
        <pt x="291" y="191" on="0"/>
        <pt x="332" y="126" on="0"/>
        <pt x="332" y="82" on="1"/>
        <pt x="332" y="45" on="0"/>
        <pt x="308" y="-19" on="0"/>
        <pt x="264" y="-67" on="0"/>
        <pt x="203" y="-94" on="0"/>
        <pt x="165" y="-94" on="1"/>
        <pt x="148" y="-94" on="0"/>
        <pt x="114" y="-89" on="0"/>
        <pt x="99" y="-84" on="1"/>
        <pt x="115" y="-23" on="1"/>
        <pt x="127" y="-26" on="0"/>
        <pt x="154" y="-30" on="0"/>
        <pt x="167" y="-30" on="1"/>
        <pt x="213" y="-30" on="0"/>
        <pt x="261" y="31" on="0"/>
        <pt x="261" y="78" on="1"/>
        <pt x="261" y="118" on="0"/>
        <pt x="208" y="163" on="0"/>
        <pt x="160" y="168" on="1"/>
        <pt x="160" y="169" on="1"/>
        <pt x="156" y="181" on="1"/>
        <pt x="295" y="372" on="1"/>
        <pt x="143" y="372" on="1"/>
        <pt x="74" y="0" on="1"/>
        <pt x="2" y="0" on="1"/>
        <pt x="110" y="584" on="1"/>
        <pt x="119" y="629" on="0"/>
        <pt x="147" y="689" on="0"/>
        <pt x="185" y="725" on="0"/>
        <pt x="231" y="740" on="0"/>
        <pt x="258" y="740" on="1"/>
        <pt x="282" y="740" on="0"/>
        <pt x="318" y="730" on="0"/>
        <pt x="328" y="726" on="1"/>
        <pt x="303" y="662" on="1"/>
        <pt x="294" y="667" on="0"/>
        <pt x="271" y="673" on="0"/>
        <pt x="258" y="673" on="1"/>
        <pt x="227" y="673" on="0"/>
        <pt x="189" y="631" on="0"/>
        <pt x="179" y="575" on="1"/>
        <pt x="154" y="435" on="1"/>
        <pt x="406" y="435" on="1"/>
        <pt x="409" y="423" on="1"/>
      </contour>
    </TTGlyph>
    <TTGlyph name="grave" xMin="189" yMin="484" xMax="368" yMax="631">
      <contour>
        <pt x="342" y="484" on="1"/>
        <pt x="189" y="570" on="1"/>
        <pt x="230" y="631" on="1"/>
        <pt x="368" y="519" on="1"/>
      </contour>
    </TTGlyph>
    <TTGlyph name="greater" xMin="17" yMin="95" xMax="307" yMax="576">
      <contour>
        <pt x="58" y="95" on="1"/>
        <pt x="17" y="144" on="1"/>
        <pt x="221" y="327" on="1"/>
        <pt x="90" y="538" on="1"/>
        <pt x="144" y="576" on="1"/>
        <pt x="307" y="320" on="1"/>
      </contour>
    </TTGlyph>
    <TTGlyph name="greater.lin" xMin="23" yMin="130" xMax="313" yMax="611">
      <component glyphName="greater" x="6" y="35" flags="0x204"/>
    </TTGlyph>
    <TTGlyph name="guillemotleft" xMin="29" yMin="38" xMax="331" yMax="365">
      <contour>
        <pt x="218" y="198" on="1"/>
        <pt x="271" y="38" on="1"/>
        <pt x="203" y="38" on="1"/>
        <pt x="152" y="202" on="1"/>
        <pt x="264" y="365" on="1"/>
        <pt x="331" y="365" on="1"/>
      </contour>
      <contour>
        <pt x="94" y="198" on="1"/>
        <pt x="148" y="38" on="1"/>
        <pt x="80" y="38" on="1"/>
        <pt x="29" y="202" on="1"/>
        <pt x="140" y="365" on="1"/>
        <pt x="208" y="365" on="1"/>
      </contour>
    </TTGlyph>
    <TTGlyph name="guillemotleft.cap" xMin="60" yMin="206" xMax="362" yMax="533">
      <component glyphName="guillemotleft" x="31" y="168" flags="0x204"/>
    </TTGlyph>
    <TTGlyph name="guillemotright" xMin="-5" yMin="38" xMax="297" yMax="365">
      <contour>
        <pt x="186" y="38" on="1"/>
        <pt x="118" y="38" on="1"/>
        <pt x="232" y="206" on="1"/>
        <pt x="179" y="365" on="1"/>
        <pt x="247" y="365" on="1"/>
        <pt x="297" y="201" on="1"/>
      </contour>
      <contour>
        <pt x="63" y="38" on="1"/>
        <pt x="-5" y="38" on="1"/>
        <pt x="109" y="206" on="1"/>
        <pt x="55" y="365" on="1"/>
        <pt x="123" y="365" on="1"/>
        <pt x="174" y="201" on="1"/>
      </contour>
    </TTGlyph>
    <TTGlyph name="guillemotright.cap" xMin="26" yMin="206" xMax="328" yMax="533">
      <component glyphName="guillemotright" x="31" y="168" flags="0x204"/>
    </TTGlyph>
    <TTGlyph name="guilsinglleft" xMin="29" yMin="38" xMax="208" yMax="365">
      <contour>
        <pt x="94" y="198" on="1"/>
        <pt x="148" y="38" on="1"/>
        <pt x="80" y="38" on="1"/>
        <pt x="29" y="202" on="1"/>
        <pt x="140" y="365" on="1"/>
        <pt x="208" y="365" on="1"/>
      </contour>
    </TTGlyph>
    <TTGlyph name="guilsinglleft.cap" xMin="61" yMin="206" xMax="240" yMax="533">
      <component glyphName="guilsinglleft" x="32" y="168" flags="0x204"/>
    </TTGlyph>
    <TTGlyph name="guilsinglright" xMin="-4" yMin="38" xMax="175" yMax="365">
      <contour>
        <pt x="64" y="38" on="1"/>
        <pt x="-4" y="38" on="1"/>
        <pt x="110" y="206" on="1"/>
        <pt x="56" y="365" on="1"/>
        <pt x="124" y="365" on="1"/>
        <pt x="175" y="201" on="1"/>
      </contour>
    </TTGlyph>
    <TTGlyph name="guilsinglright.cap" xMin="28" yMin="206" xMax="207" yMax="533">
      <component glyphName="guilsinglright" x="32" y="168" flags="0x204"/>
    </TTGlyph>
    <TTGlyph name="h" xMin="9" yMin="0" xMax="368" yMax="733">
      <contour>
        <pt x="368" y="352" on="1"/>
        <pt x="368" y="342" on="0"/>
        <pt x="365" y="321" on="0"/>
        <pt x="363" y="308" on="1"/>
        <pt x="307" y="0" on="1"/>
        <pt x="234" y="0" on="1"/>
        <pt x="289" y="300" on="1"/>
        <pt x="291" y="312" on="0"/>
        <pt x="293" y="330" on="0"/>
        <pt x="293" y="337" on="1"/>
        <pt x="293" y="380" on="0"/>
        <pt x="248" y="380" on="1"/>
        <pt x="222" y="380" on="0"/>
        <pt x="167" y="348" on="0"/>
        <pt x="140" y="320" on="1"/>
        <pt x="81" y="0" on="1"/>
        <pt x="9" y="0" on="1"/>
        <pt x="143" y="733" on="1"/>
        <pt x="215" y="733" on="1"/>
        <pt x="149" y="368" on="1"/>
        <pt x="180" y="401" on="0"/>
        <pt x="245" y="443" on="0"/>
        <pt x="282" y="443" on="1"/>
        <pt x="325" y="443" on="0"/>
        <pt x="368" y="392" on="0"/>
      </contour>
    </TTGlyph>
    <TTGlyph name="hbar" xMin="9" yMin="0" xMax="368" yMax="733">
      <contour>
        <pt x="368" y="352" on="1"/>
        <pt x="368" y="342" on="0"/>
        <pt x="365" y="321" on="0"/>
        <pt x="363" y="308" on="1"/>
        <pt x="307" y="0" on="1"/>
        <pt x="234" y="0" on="1"/>
        <pt x="289" y="300" on="1"/>
        <pt x="291" y="312" on="0"/>
        <pt x="293" y="330" on="0"/>
        <pt x="293" y="337" on="1"/>
        <pt x="293" y="380" on="0"/>
        <pt x="248" y="380" on="1"/>
        <pt x="222" y="380" on="0"/>
        <pt x="167" y="348" on="0"/>
        <pt x="140" y="320" on="1"/>
        <pt x="81" y="0" on="1"/>
        <pt x="9" y="0" on="1"/>
        <pt x="112" y="563" on="1"/>
        <pt x="65" y="563" on="1"/>
        <pt x="76" y="626" on="1"/>
        <pt x="123" y="626" on="1"/>
        <pt x="143" y="733" on="1"/>
        <pt x="215" y="733" on="1"/>
        <pt x="196" y="626" on="1"/>
        <pt x="309" y="626" on="1"/>
        <pt x="297" y="563" on="1"/>
        <pt x="184" y="563" on="1"/>
        <pt x="149" y="368" on="1"/>
        <pt x="180" y="401" on="0"/>
        <pt x="245" y="443" on="0"/>
        <pt x="282" y="443" on="1"/>
        <pt x="325" y="443" on="0"/>
        <pt x="368" y="392" on="0"/>
      </contour>
    </TTGlyph>
</ttFont>
